<?xml version="1.0" standalone="no"?>
<!DOCTYPE svg PUBLIC "-//W3C//DTD SVG 20010904//EN"
 "http://www.w3.org/TR/2001/REC-SVG-20010904/DTD/svg10.dtd">
<svg version="1.0" xmlns="http://www.w3.org/2000/svg"
 width="612.000000pt" height="792.000000pt" viewBox="0 0 612.000000 792.000000"
 preserveAspectRatio="xMidYMid meet">
<metadata>
Created by potrace 1.15, written by Peter Selinger 2001-2017
</metadata>
<g transform="translate(0.000000,792.000000) scale(0.100000,-0.100000)"
fill="#000000" stroke="none">
<path d="M2875 6954 c-16 -2 -79 -9 -140 -15 -648 -65 -1301 -376 -1771 -844
-376 -374 -650 -862 -784 -1395 -70 -283 -75 -330 -73 -710 3 -400 11 -492 59
-690 104 -423 268 -784 504 -1105 80 -109 246 -299 342 -390 302 -289 579
-466 965 -619 303 -120 556 -175 913 -198 605 -39 1230 120 1761 448 390 241
777 656 1018 1088 197 356 323 777 362 1216 20 227 -3 634 -45 785 -7 28 -24
95 -36 150 -61 269 -192 592 -338 835 -124 205 -345 486 -488 620 -222 209
-468 378 -749 515 -311 152 -625 248 -955 291 -110 15 -482 27 -545 18z m480
-65 c216 -19 629 -115 678 -157 24 -21 22 -29 -23 -158 -56 -157 -75 -200 -94
-207 -9 -4 -78 11 -154 33 -173 50 -328 77 -512 92 -80 6 -151 16 -158 21 -9
7 -12 53 -10 191 4 231 -24 212 273 185z m-315 -8 c15 -29 13 -354 -2 -369 -7
-7 -41 -12 -83 -12 -165 0 -443 -46 -644 -107 -63 -18 -123 -33 -134 -31 -16
2 -33 37 -83 168 -35 91 -63 168 -64 172 -1 18 61 40 290 104 198 55 432 91
617 93 82 1 93 -1 103 -18z m1302 -274 c236 -116 414 -229 588 -375 100 -83
201 -185 193 -192 -4 -4 -42 -15 -83 -24 -87 -20 -116 -29 -226 -68 -44 -15
-93 -28 -108 -28 -19 0 -59 23 -125 72 -166 125 -368 241 -535 309 -94 38 -94
39 -25 223 33 87 62 163 65 168 14 22 91 -4 256 -85z m-2340 66 c27 -31 127
-316 118 -334 -5 -9 -31 -24 -57 -34 -89 -33 -307 -151 -426 -231 -179 -119
-161 -111 -199 -95 -136 54 -195 72 -365 107 -13 2 -23 9 -23 14 0 17 220 199
339 279 64 43 161 104 216 136 110 64 341 174 366 175 9 0 23 -8 31 -17z
m1011 -199 c13 -4 7 -23 -27 -102 -88 -198 -156 -476 -156 -633 0 -43 -4 -79
-8 -79 -4 0 -28 21 -52 46 -68 70 -219 180 -293 213 -37 17 -107 40 -157 52
-81 20 -98 21 -172 11 -105 -15 -221 -70 -307 -147 -34 -30 -65 -55 -69 -55
-21 1 -252 158 -252 172 0 14 15 26 155 120 330 220 757 365 1173 397 152 12
149 12 165 5z m332 -15 c379 -40 777 -187 1100 -404 223 -151 227 -158 129
-201 -31 -13 -80 -40 -110 -59 -30 -19 -59 -35 -64 -35 -6 0 -29 17 -53 38
-69 63 -139 106 -221 136 -73 27 -84 28 -194 23 -187 -9 -316 -57 -515 -193
-43 -30 -84 -54 -92 -54 -8 0 -15 21 -19 61 -24 205 -102 481 -183 642 -13 26
-22 51 -19 55 6 9 103 6 241 -9z m-172 -234 c51 -134 86 -282 108 -462 l13
-102 -28 -38 c-101 -138 -148 -233 -193 -392 l-18 -65 -24 85 c-29 103 -85
225 -137 299 l-38 55 1 120 c0 74 7 149 18 195 9 41 23 107 32 145 25 118 77
261 137 375 l19 34 30 -59 c16 -33 52 -118 80 -190z m-1975 -190 c197 -52 395
-154 519 -268 l31 -29 -28 -57 c-44 -89 -54 -130 -54 -227 l-1 -90 -48 14
c-72 21 -179 12 -249 -20 l-56 -26 -20 21 c-34 36 -100 157 -133 242 -56 143
-119 379 -119 443 0 24 2 24 52 18 28 -4 76 -14 106 -21z m-183 -17 c44 -198
57 -252 75 -302 11 -33 20 -69 20 -82 0 -13 -34 -67 -78 -126 -43 -57 -106
-147 -141 -202 -62 -96 -186 -344 -211 -419 -6 -20 -19 -41 -28 -46 -19 -9
-311 91 -323 111 -31 49 148 428 320 678 127 185 317 410 347 410 7 0 16 -10
19 -22z m4110 -100 c-35 -150 -135 -371 -226 -503 -82 -119 -68 -111 -141 -82
-82 33 -164 47 -230 41 l-53 -5 -1 103 c-1 102 -5 116 -51 215 -15 31 -14 34
8 52 52 43 218 127 323 164 186 64 322 103 372 106 l22 1 -23 -92z m142 -20
c158 -186 295 -393 406 -613 56 -111 66 -154 40 -176 -34 -30 -285 -131 -310
-124 -17 4 -36 31 -74 106 -62 124 -128 232 -225 366 -41 56 -74 107 -74 115
0 7 20 62 46 121 25 60 57 151 72 203 14 52 29 94 33 94 4 0 43 -41 86 -92z
m-2936 46 c109 -31 186 -69 274 -135 91 -69 145 -114 145 -122 0 -3 -17 -1
-37 4 -63 14 -158 10 -224 -11 -119 -36 -219 -113 -318 -245 -80 -105 -121
-148 -176 -180 -84 -49 -170 -33 -242 45 -48 52 -62 89 -62 166 -2 119 46 222
148 324 146 145 326 202 492 154z m1789 -36 c121 -39 218 -121 271 -230 46
-92 54 -121 54 -208 0 -103 -16 -139 -93 -204 -62 -53 -103 -64 -177 -47 -65
15 -128 66 -187 155 -85 125 -172 227 -223 260 -126 84 -287 98 -405 36 l-25
-13 25 28 c49 54 239 169 338 205 141 52 300 58 422 18z m-453 -253 c108 -48
165 -103 283 -271 98 -141 177 -198 273 -197 l58 0 -64 -66 c-36 -36 -153
-155 -262 -263 l-197 -198 -67 0 c-37 0 -116 5 -176 11 -93 9 -118 8 -177 -6
-37 -9 -72 -14 -77 -11 -5 3 -12 18 -16 33 -16 67 -89 236 -125 292 -49 75
-52 122 -16 262 47 183 131 326 226 384 114 69 225 79 337 30z m-995 15 c128
-25 144 -37 225 -171 64 -105 113 -241 138 -382 11 -63 10 -75 -3 -97 -60 -94
-106 -187 -133 -269 -17 -53 -35 -99 -38 -104 -4 -4 -29 -1 -57 7 -85 24 -143
28 -248 15 -55 -7 -123 -9 -151 -5 -49 7 -54 11 -213 174 -89 92 -204 211
-253 265 l-91 97 48 0 c92 1 169 54 269 186 114 153 197 223 310 262 98 35
119 37 197 22z m-1498 -173 c17 -34 42 -82 58 -106 15 -25 28 -54 28 -65 0
-11 -27 -46 -63 -81 -75 -73 -118 -132 -149 -206 -19 -46 -22 -73 -22 -184 -1
-108 3 -143 23 -210 40 -137 108 -248 231 -377 43 -45 76 -86 74 -90 -3 -4
-35 -8 -72 -8 -197 0 -469 -68 -662 -165 -38 -19 -74 -35 -80 -35 -25 0 -7
256 31 445 76 375 213 699 412 980 87 122 135 175 150 169 7 -3 25 -33 41 -67z
m3909 -50 c193 -258 356 -616 431 -947 35 -151 75 -498 60 -521 -4 -6 -10 -6
-18 0 -23 19 -215 91 -348 129 -122 36 -244 61 -370 77 -27 4 -48 11 -48 17 0
5 28 40 63 76 120 127 180 237 211 387 45 218 -4 411 -139 549 -36 36 -65 71
-65 78 0 6 10 25 23 42 13 17 45 68 71 113 31 55 52 80 61 77 8 -3 38 -38 68
-77z m-3487 -92 c120 -35 204 -126 204 -220 0 -70 -38 -144 -88 -173 -21 -11
-76 -35 -122 -52 -280 -103 -402 -249 -371 -445 5 -36 17 -80 25 -97 26 -51
11 -43 -36 19 -127 166 -189 383 -158 551 32 177 175 342 354 408 72 27 124
29 192 9z m3126 -44 c108 -49 223 -152 268 -240 78 -155 80 -360 4 -544 -15
-36 -36 -76 -48 -90 -12 -14 -26 -34 -33 -44 -10 -15 -12 -2 -12 70 -1 75 -6
100 -31 161 -45 107 -103 160 -261 235 -172 82 -232 143 -250 251 -16 96 42
197 129 225 66 21 156 12 234 -24z m-392 -192 c0 -54 32 -118 89 -177 38 -39
78 -65 193 -121 164 -79 190 -103 235 -213 50 -124 25 -276 -60 -367 -65 -69
-176 -148 -278 -199 -103 -52 -153 -69 -279 -92 l-66 -11 -69 42 c-87 53 -206
111 -265 129 -59 18 -71 33 -59 73 5 18 9 125 8 239 0 115 4 215 9 225 19 34
522 524 532 518 5 -3 10 -24 10 -46z m-2284 -166 c259 -268 279 -291 293 -333
8 -24 10 -83 5 -200 -6 -150 -5 -170 14 -222 23 -65 22 -66 -48 -91 -72 -25
-179 -71 -260 -112 -74 -37 -75 -37 -170 -32 -102 6 -178 28 -257 73 -93 54
-192 124 -251 179 -52 48 -64 67 -97 150 -34 86 -37 101 -33 167 6 91 28 139
93 203 58 57 148 108 283 158 51 19 108 47 126 61 49 37 82 111 85 189 1 9 5
17 9 17 5 0 98 -93 208 -207z m3710 119 c41 -27 137 -345 183 -602 35 -197 53
-457 35 -504 -5 -14 -31 -16 -184 -16 -201 0 -190 -5 -190 83 0 183 -61 505
-141 741 -42 126 -48 151 -37 163 15 14 295 142 313 142 6 1 15 -3 21 -7z
m-2666 -89 c53 -67 131 -268 149 -383 15 -93 13 -256 -4 -346 -8 -42 -17 -79
-19 -82 -3 -3 -28 5 -55 17 -70 30 -138 26 -232 -13 -13 -6 -19 5 -33 52 -51
184 -19 449 79 644 34 68 78 138 87 138 4 0 16 -12 28 -27z m-2651 -109 c203
-71 210 -76 185 -150 -52 -156 -97 -395 -114 -614 -6 -74 -14 -138 -19 -143
-4 -4 -81 -6 -171 -5 l-164 3 -10 34 c-7 23 -6 86 2 190 16 212 53 421 107
606 27 91 47 127 68 120 7 -2 59 -20 116 -41z m2114 -234 c121 14 200 8 262
-19 l43 -19 -5 -133 c-4 -87 -1 -155 7 -194 7 -33 15 -75 17 -93 l5 -33 -53 8
c-73 11 -304 8 -356 -4 -37 -9 -44 -8 -61 11 -48 53 -50 67 -38 376 0 19 -3
51 -7 71 l-8 37 43 -10 c30 -7 75 -6 151 2z m1142 -7 l60 -5 4 -193 c4 -264
-9 -300 -106 -284 -69 11 -281 11 -344 -1 -29 -6 -57 -6 -61 -2 -5 5 -1 42 8
83 10 50 16 123 15 226 0 168 -3 161 68 184 26 9 239 4 356 -8z m-507 -490
c28 -17 59 -48 77 -77 27 -44 30 -58 30 -125 -1 -119 -48 -188 -154 -226 -158
-55 -319 71 -309 240 2 35 12 77 24 100 61 116 219 158 332 88z m1857 -17
c270 -64 555 -173 524 -200 -80 -69 -369 -167 -596 -201 -165 -24 -175 -23
-278 41 -114 71 -197 109 -296 137 -92 27 -102 34 -63 42 93 20 252 102 349
178 l50 39 105 -6 c58 -3 150 -17 205 -30z m-3558 -33 c76 -55 164 -104 225
-125 20 -7 37 -17 36 -23 0 -5 -34 -20 -75 -32 -94 -28 -164 -60 -267 -122
l-81 -49 -90 9 c-92 10 -232 37 -340 66 -63 17 -249 89 -299 115 l-28 15 43
25 c53 31 99 51 204 88 172 61 338 90 500 87 l100 -2 72 -52z m1355 32 c15 -6
14 -12 -10 -56 -47 -93 -37 -216 25 -290 14 -16 22 -33 19 -37 -4 -3 -48 -12
-99 -18 -179 -22 -363 8 -562 93 -80 34 -205 109 -205 123 0 6 130 70 215 105
84 35 172 64 225 74 30 6 64 13 75 15 29 7 297 -1 317 -9z m744 5 c133 -12
251 -42 349 -90 95 -47 175 -96 175 -109 0 -32 -257 -147 -404 -181 -84 -20
-114 -22 -215 -17 -111 6 -186 20 -204 37 -5 4 2 27 14 51 36 67 34 177 -4
243 -15 27 -26 50 -25 51 7 7 119 23 163 23 28 1 96 -3 151 -8z m-3098 -203
c6 -7 16 -77 22 -156 19 -252 61 -460 139 -682 22 -61 37 -117 35 -124 -8 -19
-281 -137 -303 -130 -11 3 -22 13 -26 23 -68 172 -125 361 -159 532 -29 144
-58 406 -54 483 l3 52 105 5 c223 11 227 11 238 -3z m1567 -55 c51 -32 132
-74 180 -92 47 -19 91 -42 96 -51 6 -11 4 -29 -6 -53 -25 -58 -28 -143 -11
-255 26 -173 52 -130 -256 -438 -150 -150 -275 -273 -278 -273 -3 0 -4 18 -2
39 6 62 -23 135 -74 186 -50 49 -142 104 -217 129 -154 51 -241 133 -269 255
-25 110 27 289 110 380 50 54 198 142 297 175 97 33 200 53 278 55 55 1 65 -3
152 -57z m-1415 12 c157 -69 466 -154 560 -154 16 0 41 -5 56 -11 l28 -10 -71
-67 c-176 -166 -269 -365 -248 -532 25 -198 89 -343 212 -483 18 -20 33 -43
33 -51 0 -18 -120 -206 -132 -206 -12 0 -123 152 -179 247 -195 331 -313 671
-354 1021 -20 169 -20 282 0 282 7 0 50 -16 95 -36z m3691 10 c200 -46 380
-151 470 -274 74 -102 106 -249 75 -352 -32 -110 -123 -184 -301 -243 -93 -31
-138 -59 -187 -113 -52 -58 -59 -76 -65 -163 l-6 -78 -217 222 c-119 122 -240
248 -268 280 -51 56 -52 59 -52 119 0 34 5 112 11 172 10 96 9 119 -5 171 -27
96 -27 97 29 117 108 40 221 92 278 128 55 35 64 38 116 34 31 -3 86 -12 122
-20z m1633 10 c40 -39 -10 -441 -91 -729 -43 -156 -67 -215 -87 -215 -15 0
-277 95 -309 112 -11 6 -17 17 -14 26 3 10 19 62 35 117 57 190 86 358 98 565
4 63 11 121 17 128 7 9 54 12 173 12 134 0 165 -3 178 -16z m-390 -91 c-32
-512 -201 -990 -483 -1370 -61 -83 -88 -113 -100 -113 -4 0 -20 24 -36 53 -15
28 -38 66 -51 84 -32 43 -32 95 0 117 65 42 138 135 182 232 50 110 73 271 55
382 -22 134 -100 267 -231 397 -38 38 -70 75 -70 82 0 8 13 13 36 13 87 0 330
51 454 95 77 27 211 85 225 97 20 17 23 5 19 -69z m-2234 -89 c75 -16 269 -21
334 -9 28 6 36 2 59 -24 34 -41 41 -97 31 -250 -5 -69 -8 -148 -7 -174 1 -42
-1 -48 -15 -42 -9 4 -103 10 -207 15 -169 7 -196 11 -238 31 l-48 23 5 119 c3
65 0 158 -6 207 -10 87 -7 120 9 120 4 0 42 -7 83 -16z m-880 -17 c37 -14 264
-20 350 -9 41 5 78 7 82 3 3 -3 -3 -40 -13 -81 -14 -55 -19 -106 -19 -190 1
-63 1 -121 1 -127 -1 -7 -23 -24 -51 -38 -43 -22 -63 -25 -147 -26 -54 0 -140
5 -190 11 -51 6 -96 9 -101 6 -12 -7 -46 261 -40 324 2 30 14 77 26 103 23 51
29 53 102 24z m530 -22 c54 -19 106 -19 161 0 25 9 46 12 52 6 18 -18 27 -89
28 -217 1 -180 -33 -321 -118 -497 -18 -37 -33 -71 -33 -75 0 -4 -8 -17 -18
-30 l-18 -23 -37 78 c-98 209 -137 411 -117 599 10 88 34 174 50 174 4 0 27
-7 50 -15z m-1754 -77 c-25 -39 -47 -139 -47 -220 -1 -143 66 -245 206 -315
22 -11 51 -24 65 -28 111 -31 237 -121 273 -195 38 -76 10 -191 -60 -249 -68
-56 -209 -76 -322 -46 -107 28 -215 133 -285 277 -49 100 -67 174 -73 303 -5
106 -4 113 26 191 34 89 107 198 178 268 48 48 65 54 39 14z m3682 -57 c176
-186 232 -365 186 -589 -55 -266 -260 -452 -500 -454 -87 0 -146 23 -195 77
-41 44 -57 85 -58 145 -2 132 67 207 253 274 147 53 210 95 263 179 65 102 58
278 -15 407 -22 38 -23 43 -7 31 11 -8 44 -40 73 -70z m-2038 -343 c32 -124
64 -213 110 -307 50 -103 50 -103 40 -161 -45 -247 -233 -541 -385 -601 -89
-35 -228 -34 -305 2 -116 54 -195 143 -235 264 -30 91 -51 129 -92 166 -54 50
-101 71 -174 78 l-70 6 280 279 c153 154 287 284 296 289 11 6 69 5 162 -3
158 -14 257 -9 300 14 47 26 61 20 73 -26z m443 27 c28 -8 109 -16 200 -19
254 -8 220 10 480 -259 123 -128 249 -259 280 -293 l57 -61 -49 5 c-120 11
-200 -52 -292 -233 -82 -160 -95 -175 -182 -220 -73 -36 -85 -40 -177 -43 -71
-3 -119 1 -169 13 -65 16 -71 20 -118 78 -128 161 -243 391 -274 550 -12 64
-12 70 10 115 41 82 118 266 125 297 13 55 28 85 45 85 9 0 38 -7 64 -15z
m2295 -246 c89 -32 147 -59 152 -70 14 -25 -8 -85 -95 -264 -109 -222 -287
-477 -488 -700 -64 -70 -77 -68 -96 22 -8 32 -28 111 -47 176 -19 65 -34 122
-34 126 0 4 38 58 84 120 81 109 178 264 229 366 23 47 97 219 110 258 9 26
29 22 185 -34z m-4829 -226 c78 -154 151 -273 234 -381 l40 -53 -26 -77 c-35
-101 -55 -180 -63 -247 -10 -79 -16 -76 -124 51 -177 207 -289 372 -394 583
-59 116 -65 141 -42 160 20 17 258 120 278 120 13 1 40 -43 97 -156z m2295
-115 c32 -92 84 -205 127 -275 l41 -68 -6 -100 c-4 -55 -10 -125 -16 -155 -5
-30 -16 -97 -25 -148 -23 -137 -131 -452 -155 -452 -9 0 -12 6 -55 130 -74
213 -125 432 -143 613 l-8 79 39 60 c62 96 112 196 142 286 16 45 31 82 34 82
4 0 15 -24 25 -52z m-1158 -53 c66 -31 107 -81 140 -170 45 -121 64 -153 125
-213 96 -96 213 -140 336 -128 35 4 75 11 89 17 50 18 36 1 -38 -48 -91 -61
-191 -106 -285 -127 -91 -20 -284 -23 -333 -4 -101 38 -228 125 -278 191 -66
87 -101 221 -80 307 14 55 59 130 90 150 93 58 151 64 234 25z m2418 -26 c39
-11 105 -56 137 -94 49 -57 49 -187 1 -290 -87 -184 -279 -283 -527 -272 -143
6 -242 34 -375 103 -98 52 -164 97 -117 81 10 -4 59 -10 110 -13 69 -5 108 -3
154 10 142 36 198 84 278 238 84 161 124 212 187 237 32 13 105 13 152 0z
m-3004 -34 c60 -17 186 -20 238 -6 17 5 32 7 32 3 0 -4 -9 -32 -21 -62 -31
-81 -23 -193 20 -278 l31 -61 -58 -37 c-153 -99 -437 -191 -571 -185 -23 1
-23 2 -17 74 7 71 31 173 59 253 48 135 181 332 217 320 8 -2 40 -12 70 -21z
m3523 -53 c87 -115 147 -261 196 -477 l28 -127 -46 6 c-43 6 -247 59 -356 93
-57 18 -182 78 -206 99 -15 13 -13 21 19 82 32 60 37 77 40 157 3 60 -1 103
-10 130 l-14 40 96 1 c70 1 109 6 150 22 30 11 57 21 60 21 3 1 22 -21 43 -47z
m-1518 -307 c149 -194 455 -316 717 -285 145 17 276 69 337 134 14 14 33 26
44 26 35 0 167 -71 167 -89 -1 -30 -232 -190 -415 -287 -308 -163 -740 -274
-1066 -274 l-68 0 34 76 c39 85 96 255 120 359 22 96 55 311 55 363 0 27 4 42
13 42 6 -1 34 -30 62 -65z m-521 33 c3 -13 10 -61 16 -108 17 -126 82 -387
135 -535 25 -71 47 -137 48 -145 2 -13 -16 -15 -117 -13 -437 8 -960 199
-1342 490 -101 78 -114 102 -62 124 18 7 53 26 77 41 25 15 53 28 63 28 11 0
40 -20 66 -44 60 -55 203 -139 264 -154 26 -7 92 -12 147 -12 241 0 471 106
631 290 29 33 56 60 61 60 5 0 11 -10 13 -22z m-1287 -327 c147 -110 334 -220
508 -297 54 -25 102 -50 106 -56 7 -11 -75 -261 -94 -285 -16 -21 -50 -15
-138 22 -217 94 -439 223 -619 364 -119 92 -260 220 -260 235 0 8 31 19 85 30
47 9 125 29 173 45 48 16 98 26 112 23 14 -2 71 -39 127 -81z m3258 37 c50
-16 145 -40 253 -63 12 -3 22 -9 22 -14 0 -30 -332 -290 -495 -388 -172 -104
-464 -239 -492 -229 -30 12 -119 259 -109 300 3 14 12 26 18 26 7 0 75 31 152
69 177 87 292 158 454 282 73 55 77 56 197 17z m-2490 -433 c159 -54 398 -96
622 -111 62 -4 103 -11 106 -18 2 -6 3 -75 3 -154 -1 -120 -4 -146 -17 -155
-22 -17 -241 -4 -408 23 -202 33 -474 103 -516 133 -17 13 -16 19 25 128 66
175 68 179 90 179 11 0 54 -11 95 -25z m1621 17 c18 -12 105 -252 102 -280 -3
-29 -20 -36 -188 -82 -116 -31 -274 -63 -390 -79 -111 -16 -348 -31 -365 -25
-23 9 -26 36 -23 189 l3 140 155 11 c189 14 397 51 545 98 115 36 143 40 161
28z"/>
</g>
</svg>
