<?xml version="1.0" standalone="no"?>
<!DOCTYPE svg PUBLIC "-//W3C//DTD SVG 20010904//EN"
 "http://www.w3.org/TR/2001/REC-SVG-20010904/DTD/svg10.dtd">
<svg version="1.0" xmlns="http://www.w3.org/2000/svg"
 width="1230.000000pt" height="1230.000000pt" viewBox="0 0 1230.000000 1230.000000"
 preserveAspectRatio="xMidYMid meet">
<metadata>
Created by potrace 1.15, written by Peter Selinger 2001-2017
</metadata>
<g transform="translate(0.000000,1230.000000) scale(0.100000,-0.100000)"
fill="#000000" stroke="none">
<g>
<path d="M6105 11743 c-1017 -43 -2019 -370 -2878 -937 -784 -517 -1426 -1220
-1877 -2056 -358 -662 -589 -1428 -656 -2170 -82 -917 55 -1835 401 -2680 632
-1544 1913 -2734 3500 -3253 1098 -358 2263 -378 3360 -57 340 100 636 215
935 365 705 353 1270 791 1799 1398 56 64 106 117 111 117 5 0 12 10 16 22 4
13 54 86 112 163 295 394 537 829 725 1300 217 544 342 1082 388 1675 15 202
16 676 0 860 -70 842 -322 1668 -723 2370 -499 871 -1169 1558 -2037 2086
-263 160 -720 374 -1021 479 -58 20 -114 45 -125 55 -12 12 -29 17 -41 14 -11
-3 -89 15 -174 39 -562 163 -1200 236 -1815 210z m623 -113 c249 -17 445 -43
716 -96 223 -44 427 -96 428 -109 1 -20 -512 -180 -892 -279 -201 -52 -570
-139 -840 -197 -909 -196 -1266 -311 -1589 -512 -223 -138 -429 -339 -549
-534 -142 -230 -201 -423 -219 -717 -3 -59 -9 -109 -13 -111 -4 -2 -61 31
-127 74 -256 164 -395 285 -447 389 -27 53 -32 82 -56 312 -18 166 -88 351
-198 524 -18 28 -32 55 -32 62 0 25 325 255 577 407 318 193 691 367 1053 493
441 152 981 262 1435 293 176 12 584 12 753 1z m1478 -301 c236 -81 593 -238
809 -356 88 -47 91 -50 123 -116 l33 -67 -21 -58 c-70 -186 -215 -399 -376
-552 -119 -114 -398 -322 -559 -419 -82 -49 -156 -99 -215 -146 -79 -63 -214
-203 -258 -266 -20 -30 -80 -84 -169 -150 -632 -475 -990 -976 -1084 -1518
-19 -113 -27 -334 -15 -412 3 -19 13 -78 22 -132 9 -54 13 -101 10 -105 -14
-13 -61 24 -106 82 -25 33 -148 165 -274 295 -245 253 -274 286 -425 486 -94
124 -126 172 -222 330 -199 326 -350 766 -413 1205 -9 58 -23 129 -31 158 -26
86 -6 141 140 381 113 187 138 249 257 652 l19 67 192 46 c106 25 293 68 417
95 863 191 1273 299 1750 462 124 42 237 77 251 78 15 1 80 -17 145 -40z
m1195 -586 c756 -485 1401 -1178 1854 -1993 190 -341 383 -812 485 -1185 48
-177 90 -355 90 -383 0 -51 -336 -293 -545 -393 -66 -31 -235 -96 -375 -144
-140 -48 -289 -101 -330 -117 l-75 -30 -270 17 c-464 28 -914 100 -1125 181
-63 24 -137 49 -165 55 -78 18 -326 14 -415 -6 -41 -10 -105 -21 -141 -25 -45
-5 -83 -16 -120 -37 -49 -28 -383 -183 -394 -183 -16 0 2 40 50 110 62 91 105
172 137 257 11 32 29 69 38 83 10 14 20 35 24 47 16 52 130 210 246 343 36 41
74 87 83 102 9 15 48 62 85 105 261 300 433 553 512 753 37 93 61 204 69 315
l7 110 81 120 c158 235 250 447 304 705 19 88 22 136 22 295 0 168 -4 204 -27
315 -36 166 -103 368 -171 515 -30 65 -55 123 -55 127 0 16 18 7 121 -59z
m-4100 -139 c14 -17 13 -19 -74 -274 -52 -153 -81 -227 -133 -338 -24 -52 -44
-95 -44 -98 0 -2 -24 -46 -53 -98 -105 -187 -202 -499 -269 -866 -26 -143 -31
-196 -35 -400 -7 -309 6 -402 103 -753 28 -104 9 -110 -96 -32 -416 311 -665
671 -772 1115 -20 83 -23 120 -23 300 0 186 2 212 24 285 77 264 169 430 345
622 55 60 176 158 309 251 130 90 429 225 602 271 22 6 47 15 55 21 22 14 46
12 61 -6z"/>
<g>
<!-- <path d="M8825 6476 c-66 -29 -105 -107 -90 -175 9 -44 63 -97 112 -111 82
-25 171 35 189 126 8 43 -25 114 -66 144 -39 28 -104 35 -145 16z"/> -->
</g>
</g>
</g>
</svg>
