<?xml version="1.0" standalone="no"?>
<!DOCTYPE svg PUBLIC "-//W3C//DTD SVG 20010904//EN"
 "http://www.w3.org/TR/2001/REC-SVG-20010904/DTD/svg10.dtd">
<svg version="1.0" xmlns="http://www.w3.org/2000/svg"
 width="1230.000000pt" height="1230.000000pt" viewBox="0 0 1230.000000 1230.000000"
 preserveAspectRatio="xMidYMid meet">
<metadata>
Created by potrace 1.15, written by Peter Selinger 2001-2017
</metadata>
<g transform="translate(0.000000,1230.000000) scale(0.100000,-0.100000)"
fill="#000000" stroke="none">
<g>
<path d="M6105 11743 c-1017 -43 -2019 -370 -2878 -937 -784 -517 -1426 -1220
-1877 -2056 -358 -662 -589 -1428 -656 -2170 -82 -917 55 -1835 401 -2680 632
-1544 1913 -2734 3500 -3253 1098 -358 2263 -378 3360 -57 340 100 636 215
935 365 705 353 1270 791 1799 1398 56 64 106 117 111 117 5 0 12 10 16 22 4
13 54 86 112 163 295 394 537 829 725 1300 217 544 342 1082 388 1675 15 202
16 676 0 860 -70 842 -322 1668 -723 2370 -499 871 -1169 1558 -2037 2086
-263 160 -720 374 -1021 479 -58 20 -114 45 -125 55 -12 12 -29 17 -41 14 -11
-3 -89 15 -174 39 -562 163 -1200 236 -1815 210z m623 -113 c249 -17 445 -43
716 -96 223 -44 427 -96 428 -109 1 -20 -512 -180 -892 -279 -201 -52 -570
-139 -840 -197 -909 -196 -1266 -311 -1589 -512 -223 -138 -429 -339 -549
-534 -142 -230 -201 -423 -219 -717 -3 -59 -9 -109 -13 -111 -4 -2 -61 31
-127 74 -256 164 -395 285 -447 389 -27 53 -32 82 -56 312 -18 166 -88 351
-198 524 -18 28 -32 55 -32 62 0 25 325 255 577 407 318 193 691 367 1053 493
441 152 981 262 1435 293 176 12 584 12 753 1z"/>
<g>
<!-- <path d="M8825 6476 c-66 -29 -105 -107 -90 -175 9 -44 63 -97 112 -111 82
-25 171 35 189 126 8 43 -25 114 -66 144 -39 28 -104 35 -145 16z"/> -->
</g>
</g>
</g>
</svg>
