<?xml version="1.0" encoding="utf-8"?>
<!-- Generator: Adobe Illustrator 21.0.2, SVG Export Plug-In . SVG Version: 6.00 Build 0)  -->
<svg version="1.1"
	 id="Layer_1" xmlns:cc="http://creativecommons.org/ns#" xmlns:dc="http://purl.org/dc/elements/1.1/" xmlns:inkscape="http://www.inkscape.org/namespaces/inkscape" xmlns:rdf="http://www.w3.org/1999/02/22-rdf-syntax-ns#" xmlns:sodipodi="http://sodipodi.sourceforge.net/DTD/sodipodi-0.dtd" xmlns:svg="http://www.w3.org/2000/svg"
	 xmlns="http://www.w3.org/2000/svg" xmlns:xlink="http://www.w3.org/1999/xlink" x="0px" y="0px" viewBox="0 0 634 638.6"
	 style="enable-background:new 0 0 634 638.6;" xml:space="preserve">
<g transform="translate(84.237209,2651.5274)">
	<path d="M537.3-2014.1c-3.4-0.6-28.5-4.7-55.6-9.2l-49.4-8.1l-258.1-258.2c-142-142-258.3-258.6-258.4-259.1
		c-0.2-0.5,22.6-23.9,50.6-51.9l50.9-50.9l258.9,259.1l258.9,259.1l2,16.2c1.1,8.9,4.5,35.6,7.6,59.2s5.3,43.5,4.9,44.1
		C548.9-2012.6,546-2012.7,537.3-2014.1L537.3-2014.1z M479.5-2086.2c25.3-25.3,45.9-46.5,45.9-47.2S417-2243.1,284.5-2375.6
		L43.6-2616.5L-3-2570c-25.6,25.6-46.6,46.8-46.6,47.2c0,0.8,481.7,482.5,482.5,482.5C433.3-2040.3,454.2-2061,479.5-2086.2
		L479.5-2086.2z"/>
</g>
</svg>
