<?xml version="1.0" encoding="utf-8"?>
<!-- Generator: Adobe Illustrator 21.0.2, SVG Export Plug-In . SVG Version: 6.00 Build 0)  -->
<svg version="1.1"
	 id="Layer_1" xmlns:cc="http://creativecommons.org/ns#" xmlns:dc="http://purl.org/dc/elements/1.1/" xmlns:inkscape="http://www.inkscape.org/namespaces/inkscape" xmlns:rdf="http://www.w3.org/1999/02/22-rdf-syntax-ns#" xmlns:sodipodi="http://sodipodi.sourceforge.net/DTD/sodipodi-0.dtd" xmlns:svg="http://www.w3.org/2000/svg"
	 xmlns="http://www.w3.org/2000/svg" xmlns:xlink="http://www.w3.org/1999/xlink" x="0px" y="0px" viewBox="0 0 100 100"
	 style="enable-background:new 0 0 100 100;" xml:space="preserve">
<g transform="translate(0,-952.36218)">
	<path d="M11.8,963.4c-0.5,0.1-0.8,0.5-0.8,1v20c0,0.6,0.4,1,1,1s1-0.4,1-1c0,0,0,0,0,0v-17.6l22.3,22.3c0.4,0.4,1,0.4,1.4,0
		c0.4-0.4,0.4-1,0-1.4l-22.3-22.3H32c0.6,0,1-0.4,1-1s-0.4-1-1-1c0,0,0,0,0,0H12C11.9,963.4,11.9,963.4,11.8,963.4z M67.8,963.4
		c-0.6,0.1-1,0.5-0.9,1.1s0.5,1,1.1,0.9c0,0,0,0,0,0h17.6l-22.3,22.3c-0.4,0.4-0.4,1,0,1.4s1,0.4,1.4,0l0,0L87,966.8v17.6
		c0,0.6,0.4,1,1,1c0.6,0,1-0.4,1-1c0,0,0,0,0,0v-20c0-0.6-0.4-1-1-1H68C67.9,963.4,67.9,963.4,67.8,963.4z M36,1015.3
		c-0.3,0-0.5,0.1-0.7,0.3L13,1037.9v-17.6c0-0.6-0.4-1-1-1c-0.1,0-0.1,0-0.2,0c-0.5,0.1-0.9,0.5-0.9,1v20c0,0.6,0.4,1,1,1h20
		c0.6,0,1-0.4,1-1s-0.4-1-1-1c0,0,0,0,0,0H14.4l22.3-22.3c0.4-0.4,0.4-1,0-1.4C36.5,1015.4,36.3,1015.3,36,1015.3z M63.9,1015.3
		c-0.5,0.1-1,0.5-0.9,1.1c0,0.2,0.1,0.5,0.3,0.6l22.3,22.3H68c-0.6,0-1,0.4-1,1s0.4,1,1,1c0,0,0,0,0,0h20c0.6,0,1-0.4,1-1v-20
		c0-0.6-0.4-1-1-1c-0.1,0-0.1,0-0.2,0c-0.5,0.1-0.9,0.5-0.9,1v17.6l-22.3-22.3C64.5,1015.4,64.2,1015.3,63.9,1015.3z"/>
</g>
</svg>
