<?xml version="1.0" standalone="no"?>
<!DOCTYPE svg PUBLIC "-//W3C//DTD SVG 20010904//EN"
 "http://www.w3.org/TR/2001/REC-SVG-20010904/DTD/svg10.dtd">
<svg version="1.0" xmlns="http://www.w3.org/2000/svg"
 width="728.000000pt" height="739.000000pt" viewBox="0 0 728.000000 739.000000"
 preserveAspectRatio="xMidYMid meet">
<metadata>
Created by potrace 1.15, written by Peter Selinger 2001-2017
</metadata>
<g transform="translate(0.000000,739.000000) scale(0.100000,-0.100000)"
fill="#000000" stroke="none">
<g>
<path d="M5506 7336 c-120 -45 -207 -174 -257 -384 -71 -294 -192 -667 -277
-857 -143 -318 -310 -527 -530 -665 -280 -176 -401 -261 -465 -326 -88 -89
-173 -216 -221 -329 -35 -84 -86 -284 -86 -339 0 -14 -4 -27 -9 -30 -4 -3
-117 87 -250 199 -262 223 -460 372 -671 507 -188 120 -191 121 -455 262 -156
83 -404 164 -570 187 -305 40 -596 -48 -771 -233 -60 -63 -92 -122 -126 -228
-21 -68 -23 -93 -22 -260 0 -195 4 -222 79 -558 54 -245 47 -291 -79 -547 -93
-188 -116 -265 -116 -393 0 -204 74 -361 270 -570 61 -65 71 -82 46 -82 -25 0
-221 -67 -308 -105 -181 -80 -432 -235 -542 -336 -70 -64 -116 -142 -116 -195
0 -80 44 -135 214 -267 72 -55 236 -189 365 -297 313 -262 354 -294 436 -350
321 -217 873 -398 1495 -490 80 -11 163 -24 185 -28 l40 -7 -66 -32 c-116 -57
-181 -155 -195 -292 -11 -100 41 -188 136 -230 173 -75 473 -43 1160 125 1180
289 1270 312 1403 356 312 103 479 242 562 469 21 55 28 96 30 163 l3 89 129
130 c305 308 522 461 758 533 86 27 98 28 280 26 105 -2 208 -4 230 -5 29 -1
40 2 40 13 0 24 -68 32 -270 34 -171 1 -198 -1 -269 -22 -245 -71 -441 -200
-729 -481 -70 -69 -114 -105 -108 -91 5 14 46 99 91 190 115 232 209 370 344
506 141 140 271 227 553 367 116 59 214 111 218 117 3 5 -1 13 -11 17 -19 7
-351 -154 -491 -238 -167 -101 -300 -216 -407 -354 -104 -134 -160 -230 -276
-467 -61 -126 -112 -228 -114 -228 -2 0 -17 7 -32 15 -36 19 -149 19 -224 1
-30 -8 -102 -30 -160 -50 -58 -20 -108 -36 -113 -36 -9 0 -7 3 284 445 341
516 451 713 593 1061 196 485 261 881 297 1829 28 741 34 1183 20 1375 -33
421 -92 662 -231 937 -109 213 -229 352 -365 420 -65 33 -78 36 -180 39 -79 3
-121 0 -149 -10z"/>
</g>
</g>
</svg>
