<?xml version="1.0" standalone="no"?>
<!DOCTYPE svg PUBLIC "-//W3C//DTD SVG 20010904//EN"
 "http://www.w3.org/TR/2001/REC-SVG-20010904/DTD/svg10.dtd">
<svg version="1.0" xmlns="http://www.w3.org/2000/svg"
 width="380.000000pt" height="380.000000pt" viewBox="0 0 380.000000 380.000000"
 preserveAspectRatio="xMidYMid meet">
<metadata>
Created by potrace 1.15, written by Peter Selinger 2001-2017
</metadata>
<g transform="translate(0.000000,380.000000) scale(0.100000,-0.100000)"
fill="#000000" stroke="none">
<path d="M1650 3764 c-830 -120 -1485 -790 -1615 -1651 -29 -195 -15 -454 36
-658 43 -173 153 -430 245 -575 290 -455 747 -756 1294 -852 101 -17 491 -18
585 0 410 78 723 231 997 491 308 291 490 621 574 1036 35 175 29 510 -12 715
-147 724 -708 1302 -1424 1465 -200 45 -485 57 -680 29z m577 -24 c132 -23
254 -57 265 -74 25 -37 -14 -153 -73 -220 -40 -45 -106 -76 -164 -76 -62 0
-128 -32 -192 -95 -64 -61 -68 -63 -132 -70 -107 -12 -181 -63 -196 -137 -16
-77 -122 -227 -149 -211 -6 4 -49 10 -95 13 l-85 5 -32 75 c-18 40 -40 80 -50
87 -10 7 -45 13 -80 13 -58 0 -66 3 -121 43 -73 55 -112 69 -155 56 -48 -14
-133 -1 -213 33 -112 46 -125 53 -125 58 0 11 96 99 168 154 259 197 596 331
927 366 118 13 367 3 502 -20z m388 -110 c282 -115 547 -309 734 -537 45 -56
46 -67 6 -77 -36 -9 -82 13 -235 113 -74 49 -157 97 -185 106 -66 22 -156 30
-193 17 -31 -11 -31 -11 -62 56 -35 74 -84 126 -153 160 -26 13 -47 25 -47 26
0 2 7 23 15 46 8 23 15 62 15 86 0 24 2 44 3 44 2 0 48 -18 102 -40z m-96
-174 c72 -37 104 -68 141 -138 29 -53 35 -76 38 -145 l4 -82 -38 -37 c-22 -20
-65 -59 -96 -87 -32 -27 -58 -54 -58 -58 0 -5 14 -9 30 -9 l30 0 0 -64 c0 -55
-3 -64 -20 -69 -17 -4 -20 -14 -20 -70 l0 -64 -83 -6 c-46 -4 -110 -16 -143
-27 -101 -35 -142 -41 -201 -30 -39 7 -62 18 -82 38 -14 16 -55 40 -90 53 -63
22 -64 23 -35 32 47 16 121 75 138 111 9 19 20 66 25 105 6 45 17 81 31 101
24 33 68 60 99 60 35 0 83 51 90 96 6 34 12 42 56 66 64 34 72 47 80 121 6 53
36 127 51 127 3 0 26 -11 53 -24z m-121 -131 c-12 -46 -18 -52 -65 -78 -41
-22 -54 -35 -63 -65 -20 -65 -32 -81 -69 -92 -75 -23 -92 -34 -121 -73 -22
-30 -30 -52 -30 -82 0 -77 -26 -141 -74 -180 -45 -36 -119 -65 -171 -65 -23 0
-35 7 -47 28 -18 31 -92 102 -124 120 -18 10 -18 12 13 44 36 37 103 160 103
188 0 25 45 77 83 97 17 9 62 19 100 23 67 8 69 9 136 73 70 68 131 97 210 97
20 1 56 11 81 23 53 26 57 20 38 -58z m474 -86 c69 -15 123 -42 260 -132 62
-41 128 -82 147 -92 32 -16 76 -17 112 -1 11 5 27 -11 60 -61 133 -197 210
-371 270 -603 28 -107 59 -330 59 -428 l0 -42 -39 6 c-53 8 -103 -9 -183 -63
-102 -69 -137 -70 -278 -3 -129 61 -205 74 -284 47 -36 -12 -48 -13 -51 -4 -2
7 -9 77 -15 157 -5 80 -18 237 -28 350 -11 117 -17 245 -14 298 4 89 4 93 -17
99 -20 5 -22 11 -19 67 3 55 5 61 26 64 12 2 22 7 22 11 0 4 -43 49 -95 100
l-95 94 0 63 c0 59 1 63 28 72 37 14 71 14 134 1z m-2215 -30 c55 -30 58 -34
130 -131 43 -58 79 -96 103 -108 20 -10 44 -30 53 -43 12 -19 28 -26 71 -31
52 -7 59 -11 101 -61 47 -54 104 -87 178 -100 46 -9 49 -32 7 -63 -19 -14 -30
-32 -30 -47 0 -42 -18 -74 -75 -128 -30 -30 -55 -61 -55 -70 0 -18 -25 -23
-35 -7 -9 14 -89 12 -103 -2 -7 -7 -12 -20 -12 -29 0 -34 -24 -41 -88 -24 -85
21 -107 19 -146 -16 -43 -37 -84 -49 -144 -43 -27 4 -75 -1 -115 -10 -80 -19
-170 -21 -218 -5 -19 7 -54 27 -78 45 -24 19 -55 34 -69 34 -22 0 -24 3 -19
30 11 51 78 221 123 312 52 103 107 195 167 278 54 74 198 240 209 240 4 0 24
-9 45 -21z m163 -65 c40 -12 73 -15 128 -10 82 7 106 -1 178 -60 37 -31 47
-34 108 -34 60 0 70 -3 91 -26 14 -15 25 -32 25 -38 0 -6 11 -35 25 -64 l25
-53 -21 -22 c-12 -12 -28 -37 -35 -54 -11 -26 -20 -33 -42 -33 -59 0 -120 30
-168 83 -55 62 -78 76 -122 77 -23 0 -41 9 -60 29 -15 16 -41 36 -58 44 -17 9
-55 49 -85 89 -70 93 -76 102 -58 95 8 -3 39 -13 69 -23z m1972 -141 c43 -43
78 -81 78 -85 0 -5 -74 -8 -165 -8 -93 0 -165 4 -165 9 0 5 17 23 38 40 20 16
57 50 82 75 25 25 47 45 50 46 2 0 40 -35 82 -77z m-1177 -173 c79 -34 183
-169 159 -207 -14 -23 -92 -29 -154 -12 -34 10 -60 28 -107 78 l-63 65 24 26
c14 14 28 38 32 53 6 25 9 27 37 21 17 -3 49 -14 72 -24z m2 -234 c26 -9 57
-16 70 -16 18 0 23 -5 23 -27 0 -16 7 -57 15 -92 15 -63 15 -64 -8 -95 -55
-71 -69 -113 -66 -197 3 -73 2 -79 -21 -97 -67 -52 -130 -67 -197 -47 -64 20
-103 19 -162 -4 l-50 -19 -5 27 c-3 14 -15 82 -26 151 -11 69 -25 143 -30 165
-17 71 -13 85 37 134 65 63 83 90 83 128 0 34 31 73 58 73 9 0 29 11 46 23 52
40 57 39 124 -29 43 -42 78 -68 109 -78z m280 59 c122 -38 155 -72 92 -94 -48
-17 -62 -14 -95 18 -16 16 -46 36 -67 44 -26 11 -37 22 -37 36 0 27 12 26 107
-4z m613 -360 c-38 -402 -35 -388 -68 -380 -97 21 -131 21 -199 3 -37 -11
-106 -23 -153 -29 -145 -16 -243 16 -341 111 -74 73 -92 115 -86 202 4 58 9
73 48 129 35 51 51 65 79 70 19 4 42 18 53 33 13 19 28 26 51 26 39 0 56 15
56 50 0 21 8 28 48 42 36 13 56 15 87 8 65 -15 116 -11 190 16 66 24 240 47
257 34 4 -3 -6 -144 -22 -315z m292 248 l78 -78 5 -90 6 -90 -23 25 c-13 14
-46 43 -73 64 -77 62 -245 228 -239 238 3 4 42 8 87 8 l82 0 77 -77z m-27
-168 c117 -94 132 -122 134 -248 l1 -38 -127 113 c-71 62 -156 138 -190 167
-48 41 -62 59 -58 75 2 11 7 47 10 79 l7 58 86 -83 c48 -46 109 -101 137 -123z
m-1656 20 c15 -15 14 -17 -8 -34 -21 -16 -23 -24 -19 -78 l4 -61 -50 -5 c-34
-3 -58 0 -71 9 -29 21 -89 18 -110 -6 -10 -11 -23 -20 -30 -20 -6 0 -49 19
-96 41 l-84 41 38 14 c22 7 54 27 73 44 19 16 38 30 42 30 4 0 39 -7 78 -16
39 -10 79 -14 87 -11 9 3 23 23 32 43 15 35 16 36 56 31 23 -3 49 -13 58 -22z
m1545 -104 c153 -134 240 -213 247 -225 4 -6 9 -56 13 -110 l7 -99 -93 84
c-51 47 -144 129 -205 183 -124 108 -119 98 -107 214 5 41 10 59 18 55 6 -4
60 -50 120 -102z m-2468 32 c62 -51 123 -65 229 -52 46 5 96 14 110 19 40 15
80 12 106 -9 38 -30 166 -91 191 -91 12 0 32 10 44 21 18 17 30 20 58 15 53
-10 51 -21 -7 -49 -75 -37 -209 -138 -286 -215 -80 -81 -160 -229 -185 -343
-25 -112 -11 -238 38 -331 20 -38 36 -71 36 -73 0 -3 -83 -5 -183 -5 l-184 0
-31 93 c-77 229 -96 343 -96 572 1 148 18 327 39 387 2 7 9 32 15 56 9 36 15
42 36 42 15 0 45 -16 70 -37z m983 -163 c27 -183 44 -256 94 -405 54 -164 112
-292 185 -413 34 -56 62 -104 62 -107 0 -11 135 -213 164 -245 18 -20 57 -69
88 -110 30 -41 69 -88 87 -104 32 -31 41 -52 17 -43 -8 3 -74 15 -147 27 -208
33 -517 90 -549 101 -15 6 -31 20 -34 32 -10 36 -7 1432 3 1422 5 -6 18 -75
30 -155z m-69 41 c0 -4 -8 -19 -19 -32 -58 -75 -127 -256 -161 -426 -23 -117
-27 -344 -9 -484 17 -123 71 -276 125 -354 44 -63 45 -65 21 -65 -66 0 -180
62 -323 176 -135 108 -236 238 -270 349 -19 63 -18 202 2 279 28 108 100 232
184 316 138 137 322 249 413 250 20 0 37 -4 37 -9z m1477 -54 c32 -29 94 -84
138 -122 91 -80 85 -74 155 -139 52 -49 54 -52 67 -130 7 -45 13 -85 13 -89 0
-13 -25 4 -77 53 -26 25 -73 65 -103 90 -30 25 -106 89 -168 144 -106 93 -113
102 -108 129 3 16 6 49 6 73 0 24 4 44 9 44 6 0 36 -24 68 -53z m-1466 -520
l-3 -419 -87 7 c-47 4 -87 8 -89 10 -11 10 -23 205 -19 315 9 229 77 467 176
620 16 24 16 23 21 -45 3 -38 3 -258 1 -488z m656 328 c85 -66 135 -80 273
-79 89 2 129 7 174 23 68 24 106 26 188 9 67 -14 65 -8 48 -158 -5 -47 -12
-129 -15 -182 -5 -69 -11 -98 -20 -98 -7 0 -24 -9 -38 -20 -14 -11 -32 -20
-41 -20 -29 0 -92 -38 -110 -65 -16 -25 -20 -26 -77 -19 l-60 7 -43 -42 c-32
-31 -61 -47 -121 -67 -44 -14 -99 -37 -123 -51 -39 -22 -49 -24 -110 -17 -37
5 -83 7 -102 6 l-35 -2 -85 147 c-92 160 -168 339 -225 527 -41 136 -40 137
41 163 52 16 58 16 124 -1 84 -22 118 -17 190 28 l54 34 28 -39 c15 -21 54
-59 85 -84z m853 -36 c47 -41 117 -100 155 -131 39 -31 94 -79 124 -106 l54
-49 12 -89 c7 -49 11 -91 9 -93 -4 -5 -120 88 -248 199 -54 47 -133 114 -175
149 l-76 63 3 57 c2 31 5 69 8 84 6 28 6 28 27 10 12 -10 60 -53 107 -94z
m512 -60 c29 -6 89 -30 133 -53 71 -37 88 -41 150 -41 67 0 73 2 145 50 68 45
81 50 143 53 l67 4 0 -48 c0 -51 -16 -209 -26 -256 -4 -21 -11 -28 -30 -28
-14 0 -42 -9 -64 -20 -51 -26 -60 -25 -125 6 -48 24 -59 26 -95 16 -28 -7 -51
-7 -71 0 -37 13 -86 -3 -145 -48 -24 -19 -46 -34 -49 -34 -10 0 -5 36 7 48 9
9 1 25 -33 69 l-45 58 -64 5 -65 5 -13 93 c-8 51 -12 96 -8 99 7 7 95 31 118
32 9 1 41 -4 70 -10z m-575 -82 c40 -34 134 -114 209 -177 196 -164 200 -168
192 -176 -5 -4 -19 -2 -33 4 -32 15 -105 15 -140 2 -24 -9 -35 -3 -138 88 -62
54 -129 111 -149 126 -32 24 -38 34 -38 66 0 51 11 130 19 130 3 -1 38 -29 78
-63z m28 -222 c50 -43 100 -85 113 -95 12 -10 22 -21 22 -24 0 -3 -33 -6 -74
-6 -58 0 -79 4 -99 20 -14 11 -32 17 -41 14 -9 -3 -26 -4 -39 -1 -21 6 -22 10
-19 84 2 43 5 84 7 91 7 18 26 6 130 -83z m536 23 l42 -53 -88 -3 c-48 -2 -89
-1 -91 0 -1 2 -6 27 -10 56 l-7 52 56 0 c56 0 57 0 98 -52z m256 -54 c18 -5
22 -11 17 -23 -4 -9 -11 -65 -14 -126 -6 -89 -14 -131 -45 -220 -30 -90 -38
-128 -41 -210 -6 -135 -19 -202 -54 -279 -42 -92 -52 -95 -146 -45 -62 32 -85
39 -109 34 -78 -17 -112 -16 -153 2 -23 10 -42 22 -42 27 0 5 17 41 39 80 21
39 49 103 62 141 20 57 35 81 82 127 52 53 57 61 57 102 0 38 9 58 55 126 32
48 55 92 55 108 1 15 6 37 13 49 26 47 155 129 185 118 8 -3 25 -8 39 -11z
m153 -15 c45 -25 79 -24 135 3 66 32 73 20 47 -84 -59 -241 -193 -505 -363
-713 -66 -81 -106 -121 -115 -113 -3 4 7 32 21 65 29 62 39 114 54 288 7 80
19 140 45 219 30 90 36 123 36 192 0 90 16 145 47 163 20 11 42 7 93 -20z
m-394 -91 c-4 -13 -10 -38 -13 -57 -3 -19 -28 -66 -55 -104 -39 -58 -48 -78
-48 -114 0 -40 -5 -48 -58 -101 -45 -44 -63 -70 -76 -112 -10 -30 -38 -99 -64
-153 -44 -91 -49 -97 -72 -91 -14 3 -65 9 -113 13 -84 7 -90 9 -113 39 -14 18
-32 32 -40 32 -28 0 -13 20 50 70 50 39 71 65 101 122 43 84 65 111 117 144
21 13 45 39 54 56 9 18 30 48 46 67 16 18 37 50 46 70 9 20 34 60 55 89 l39
52 75 0 c73 0 75 -1 69 -22z m-217 -1 c27 -12 30 -16 18 -26 -8 -6 -26 -35
-40 -64 -13 -29 -41 -72 -61 -95 -20 -24 -36 -50 -36 -57 0 -7 -14 -24 -30
-37 -83 -63 -103 -86 -142 -160 -25 -48 -55 -90 -76 -106 -19 -15 -52 -42 -72
-59 -35 -31 -38 -32 -53 -15 -25 28 -33 80 -14 88 9 3 30 30 47 60 17 31 46
65 69 80 39 25 60 63 91 162 8 24 26 54 41 66 36 30 99 119 99 139 0 32 104
47 159 24z m-175 -18 c11 -10 -41 -87 -95 -140 -20 -20 -39 -48 -43 -63 -22
-87 -47 -134 -91 -165 -28 -20 -55 -51 -70 -81 -27 -54 -53 -70 -69 -43 -20
36 -65 73 -90 73 -13 0 -39 13 -55 28 l-31 28 20 54 c23 65 93 134 154 152 26
8 45 23 61 47 28 45 47 61 113 98 47 26 61 28 120 25 37 -2 71 -8 76 -13z
m-358 -6 c22 -9 45 -16 52 -14 48 8 -17 -113 -66 -124 -42 -9 -125 -76 -144
-118 -10 -20 -26 -54 -36 -74 -23 -51 -56 -53 -60 -3 -5 55 -18 63 -82 56
l-55 -6 80 78 c44 43 105 106 135 141 74 85 103 96 176 64z m-206 -73 c0 -12
-198 -210 -210 -210 -4 0 -13 6 -19 14 -19 23 -84 29 -124 13 -33 -15 -57 -8
-57 15 0 14 85 56 168 83 65 21 88 34 110 61 25 31 32 34 80 34 28 0 52 -4 52
-10z m-1602 -175 c40 -51 192 -181 272 -234 l35 -22 -90 6 c-65 5 -130 19
-235 52 -176 55 -245 73 -288 73 -30 0 -34 4 -62 65 -16 35 -32 76 -36 90 l-6
25 184 0 183 0 43 -55z m535 -102 c2 -87 4 -159 2 -161 -1 -2 -14 0 -28 3 -47
12 -82 79 -143 273 l-13 42 88 0 88 0 6 -157z m653 89 l21 -26 47 18 c45 17
47 17 92 -4 37 -18 57 -22 105 -17 68 6 89 -6 89 -52 0 -18 8 -34 23 -44 l22
-16 -33 -31 c-42 -39 -77 -39 -192 0 -96 32 -138 37 -190 18 -33 -11 -35 -10
-74 34 -50 54 -107 144 -98 153 4 4 43 4 87 0 70 -6 83 -10 101 -33z m473
-146 c7 -9 29 -18 48 -22 40 -7 86 -63 102 -122 13 -44 48 -82 76 -82 28 0 65
-37 44 -44 -28 -10 -211 -26 -296 -26 -79 0 -278 30 -303 45 -21 13 -115 117
-148 166 -40 56 -37 63 28 74 24 4 65 -3 134 -25 153 -47 211 -38 252 41 12
24 18 28 33 20 10 -6 23 -17 30 -25z m-1844 -5 c45 -15 57 -26 138 -130 48
-62 86 -116 83 -118 -2 -2 -22 7 -45 21 -22 14 -80 36 -128 49 l-88 23 -47 79
c-27 43 -48 84 -48 92 0 16 58 9 135 -16z m170 -50 c50 -16 124 -42 165 -56
114 -41 297 -91 375 -104 229 -35 343 -45 507 -46 l176 0 -19 -35 c-11 -19
-35 -53 -52 -74 l-33 -39 -94 39 -95 39 -135 -2 c-74 -2 -148 1 -165 6 -108
31 -189 43 -243 36 -31 -5 -94 -8 -139 -8 -108 0 -156 23 -220 106 -63 80
-126 167 -121 167 1 0 44 -13 93 -29z m-101 -147 c33 -8 77 -26 97 -39 89 -58
258 -89 355 -66 53 13 114 6 239 -25 51 -12 104 -16 195 -15 102 2 136 -2 188
-18 83 -27 203 -91 195 -104 -11 -18 -135 0 -216 32 -91 36 -174 40 -359 17
-161 -21 -364 -24 -488 -7 l-105 15 -43 45 c-41 44 -120 142 -136 169 -9 16 3
15 78 -4z m1486 -75 c30 -6 74 -15 97 -20 57 -12 303 -11 382 2 104 16 363
-17 408 -53 14 -11 83 -13 145 -3 42 7 53 4 111 -29 66 -36 101 -44 112 -26 3
6 11 10 18 10 14 0 -42 -59 -116 -121 -55 -46 -61 -49 -116 -49 -35 0 -86 10
-131 25 -84 29 -161 32 -234 10 -80 -24 -104 -19 -230 45 -65 33 -130 60 -146
60 -15 0 -57 -9 -92 -20 -101 -33 -219 -42 -308 -24 -67 13 -150 41 -150 50 0
2 16 25 36 51 20 27 44 63 52 81 15 31 18 32 62 27 25 -3 70 -10 100 -16z
m-430 -174 c72 -31 202 -46 237 -27 15 8 37 7 84 -4 85 -21 209 -12 314 22 98
31 126 26 252 -46 103 -59 135 -64 237 -34 70 20 114 18 203 -11 43 -14 100
-29 126 -33 l48 -7 -80 -54 -80 -54 -143 8 c-79 5 -246 9 -373 9 l-230 1 -87
-38 c-103 -44 -142 -46 -284 -16 -107 22 -142 23 -429 17 -142 -4 -202 -9
-236 -21 l-46 -17 -69 38 c-126 70 -349 239 -363 275 -2 7 21 7 70 1 103 -13
385 -7 499 10 144 22 270 15 350 -19z m1090 -251 c57 -9 121 -13 160 -9 61 5
64 5 45 -10 -34 -28 -197 -102 -306 -140 -394 -137 -844 -137 -1234 1 -95 33
-215 86 -215 94 0 19 99 30 320 35 224 5 254 4 345 -15 152 -32 204 -30 306
13 47 19 98 37 115 39 80 11 376 6 464 -8z"/>
</g>
</svg>
