<?xml version="1.0" standalone="no"?>
<!DOCTYPE svg PUBLIC "-//W3C//DTD SVG 20010904//EN"
 "http://www.w3.org/TR/2001/REC-SVG-20010904/DTD/svg10.dtd">
<svg id="butterfly" version="1.0" xmlns="http://www.w3.org/2000/svg"
 width="728.000000pt" height="739.000000pt" viewBox="0 0 728.000000 739.000000"
 preserveAspectRatio="xMidYMid meet">
<metadata>
Created by potrace 1.15, written by Peter Selinger 2001-2017
</metadata>
<g transform="translate(0.000000,739.000000) scale(0.100000,-0.100000)"
fill="#000000" stroke="none">
<path id="0" fill="#000000" stroke="none" d="M5506 7336 c-120 -45 -207 -174 -257
-384 -71 -294 -192 -667 -277 -857 -143 -318 -310 -527 -530 -665 -280 -176
-401 -261 -465 -326 -88 -89 -173 -216 -221 -329 -35 -84 -86 -284 -86 -339 0
-14 -4 -27 -9 -30 -4 -3 -117 87 -250 199 -262 223 -460 372 -671 507 -188
120 -191 121 -455 262 -156 83 -404 164 -570 187 -305 40 -596 -48 -771 -233
-60 -63 -92 -122 -126 -228 -21 -68 -23 -93 -22 -260 0 -195 4 -222 79 -558
54 -245 47 -291 -79 -547 -93 -188 -116 -265 -116 -393 0 -204 74 -361 270
-570 61 -65 71 -82 46 -82 -25 0 -221 -67 -308 -105 -181 -80 -432 -235 -542
-336 -70 -64 -116 -142 -116 -195 0 -80 44 -135 214 -267 72 -55 236 -189 365
-297 313 -262 354 -294 436 -350 321 -217 873 -398 1495 -490 80 -11 163 -24
185 -28 l40 -7 -66 -32 c-116 -57 -181 -155 -195 -292 -11 -100 41 -188 136
-230 173 -75 473 -43 1160 125 1180 289 1270 312 1403 356 312 103 479 242
562 469 21 55 28 96 30 163 l3 89 129 130 c305 308 522 461 758 533 86 27 98
28 280 26 105 -2 208 -4 230 -5 29 -1 40 2 40 13 0 24 -68 32 -270 34 -171 1
-198 -1 -269 -22 -245 -71 -441 -200 -729 -481 -70 -69 -114 -105 -108 -91 5
14 46 99 91 190 115 232 209 370 344 506 141 140 271 227 553 367 116 59 214
111 218 117 3 5 -1 13 -11 17 -19 7 -351 -154 -491 -238 -167 -101 -300 -216
-407 -354 -104 -134 -160 -230 -276 -467 -61 -126 -112 -228 -114 -228 -2 0
-17 7 -32 15 -36 19 -149 19 -224 1 -30 -8 -102 -30 -160 -50 -58 -20 -108
-36 -113 -36 -9 0 -7 3 284 445 341 516 451 713 593 1061 196 485 261 881 297
1829 28 741 34 1183 20 1375 -33 421 -92 662 -231 937 -109 213 -229 352 -365
420 -65 33 -78 36 -180 39 -79 3 -121 0 -149 -10z"/>
<path id="1" fill="#ffffff" stroke="none" d="M5729 7301 c24 -15 38 -250 22 -373
-10 -80 -68 -288 -86 -306 -2 -2 -23 -8 -47 -13 -199 -44 -346 -356 -308 -656
31 -254 143 -428 305 -476 l50 -14 32 -90 c87 -248 84 -423 -15 -683 -75 -197
-75 -196 -131 -204 -108 -14 -286 -93 -421 -185 -175 -120 -312 -260 -547
-561 -71 -91 -134 -165 -140 -165 -6 0 -41 38 -79 85 -122 153 -294 338 -482
520 l-184 178 7 54 c21 162 73 334 136 447 101 182 224 293 521 471 193 115
276 183 383 310 155 186 277 432 412 830 24 70 61 203 133 475 32 124 68 211
108 262 28 37 89 81 132 94 36 11 182 10 199 0z"/>
<path id="2" fill="#ffffff" stroke="none" d="M5866 7242 c111 -72 202 -187 304 -386
193 -373 251 -811 221 -1666 -39 -1139 -40 -1151 -92 -1568 -51 -412 -162
-768 -366 -1176 -111 -221 -174 -328 -359 -608 -92 -139 -192 -291 -221 -336
-30 -46 -56 -82 -59 -80 -2 3 8 31 22 64 15 32 42 96 60 142 19 46 42 102 53
125 25 56 112 291 149 402 85 255 142 482 162 642 6 48 16 115 21 148 5 33 15
267 21 520 17 705 -1 886 -98 980 -44 43 -44 36 -8 120 141 329 158 524 70
789 -20 58 -36 108 -36 110 0 1 19 9 42 15 290 87 401 642 194 965 -59 93
-155 166 -216 166 -11 0 -20 3 -20 6 0 3 13 43 30 90 51 145 63 237 56 417 -4
88 -3 157 2 157 5 0 35 -17 68 -38z"/>
<path id="3" fill="#ffffff" stroke="none" d="M5773 6554 c85 -43 148 -121 192 -237
106 -284 24 -659 -170 -773 -54 -31 -122 -40 -182 -23 -63 17 -158 110 -197
192 -65 139 -86 341 -52 504 30 148 128 299 218 338 45 20 151 19 191 -1z"/>
<path id="4" fill="#ffffff" stroke="none" d="M1723 5519 c335 -51 786 -275 1279
-635 119 -88 223 -173 603 -497 113 -97 448 -430 569 -567 320 -360 540 -696
684 -1042 34 -81 57 -148 113 -333 27 -91 49 -279 49 -425 0 -149 -25 -387
-51 -483 l-10 -38 -37 32 c-143 123 -250 240 -308 334 -93 151 -469 760 -574
930 -184 296 -375 546 -566 741 -139 141 -197 190 -331 280 -162 109 -334 184
-522 227 -132 30 -339 30 -423 -1 l-57 -21 0 79 c0 43 -5 97 -11 119 -10 38
-57 113 -123 194 l-27 34 26 47 c74 133 70 293 -12 428 -43 70 -98 117 -190
160 -61 29 -79 32 -159 33 -71 0 -103 -5 -152 -24 l-62 -23 -61 48 c-106 83
-158 175 -163 288 l-2 60 60 19 c146 46 310 59 458 36z"/>
<path id="5" fill="#ffffff" stroke="none" d="M1169 5365 c19 -106 44 -151 136 -242
l85 -83 -40 -36 c-79 -71 -131 -196 -131 -310 0 -252 235 -453 484 -413 73 12
174 59 213 100 15 16 31 29 35 29 4 0 33 -31 63 -70 70 -90 89 -146 84 -253
l-3 -82 -76 -75 c-240 -239 -223 -546 56 -1050 36 -64 65 -121 65 -125 0 -4
-73 -4 -162 0 -318 15 -627 3 -823 -32 l-90 -16 -73 79 c-150 160 -219 269
-252 399 -45 175 -21 308 100 550 119 238 129 299 85 505 -92 429 -88 402 -89
600 -1 198 9 251 65 361 39 77 200 226 245 228 7 1 17 -28 23 -64z"/>
<path id="6" fill="#ffffff" stroke="none" d="M1733 5065 c287 -75 380 -432 168 -641
-125 -123 -336 -139 -484 -37 -145 101 -198 314 -119 476 80 163 263 247 435
202z"/>
<path id="7" fill="#ffffff" stroke="none" d="M5654 4421 c49 -43 74 -134 86 -306 11
-162 3 -915 -10 -1055 -28 -281 -57 -451 -105 -615 -13 -44 -36 -120 -50 -168
-38 -131 -134 -389 -215 -582 -39 -93 -96 -228 -125 -300 -48 -117 -121 -285
-155 -357 -7 -16 -34 -41 -60 -58 -45 -29 -159 -74 -167 -66 -3 2 14 71 35
153 22 81 56 207 75 278 170 631 123 1099 -167 1660 -78 151 -176 312 -267
440 -53 74 -57 82 -44 102 8 11 81 106 162 210 235 299 422 473 625 583 185
100 327 130 382 81z"/>
<path id="8" fill="#ffffff" stroke="none" d="M2620 4001 c460 -111 841 -421 1247
-1016 99 -145 703 -1118 698 -1123 -2 -2 -47 32 -102 75 -124 100 -344 242
-493 321 -480 252 -1021 405 -1704 479 l-68 8 -60 105 c-190 331 -268 583
-239 767 34 212 193 375 396 407 62 9 243 -3 325 -23z"/>
<path id="9" fill="#ffffff" stroke="none" d="M2265 2696 c771 -77 1436 -292 1951
-632 209 -138 414 -307 311 -256 -12 6 -71 27 -132 48 -60 20 -162 54 -225 76
-106 37 -152 51 -355 109 -386 110 -827 169 -1274 169 -558 0 -848 -71 -1044
-255 -22 -20 -44 -32 -50 -28 -7 3 -31 19 -54 35 -48 32 -152 68 -201 68 -29
0 -35 5 -58 55 -44 91 -131 144 -283 170 -87 15 -101 15 -184 0 -136 -25 -246
-91 -277 -165 -7 -17 -15 -30 -19 -30 -3 0 -33 11 -66 25 -73 30 -99 31 -170
6 -52 -18 -55 -19 -55 -2 0 53 124 170 291 276 359 228 609 309 1069 349 99 9
684 -4 825 -18z"/>
<path id="10" fill="#ffffff" stroke="none" d="M903 2205 c73 -19 158 -73 186 -118 93
-150 -143 -307 -404 -268 -168 25 -271 103 -267 205 3 62 37 105 117 148 88
47 256 62 368 33z"/>
<path id="11" fill="#ffffff" stroke="none" d="M3020 2150 c355 -35 756 -127 1155
-263 72 -24 209 -71 305 -103 l174 -59 148 -139 c103 -95 147 -144 144 -155
-3 -9 -19 -68 -37 -131 -17 -63 -37 -137 -45 -165 -7 -27 -24 -90 -37 -138
-13 -49 -28 -92 -33 -96 -5 -5 -61 -20 -124 -35 -117 -28 -190 -45 -385 -91
-122 -29 -195 -32 -403 -15 -70 5 -230 17 -357 25 -456 30 -784 88 -1105 195
-221 73 -411 161 -627 291 -293 176 -413 296 -413 410 0 91 123 251 252 327
140 83 328 133 563 151 155 11 677 6 825 -9z"/>
<path id="12" fill="#ffffff" stroke="none" d="M307 2041 c56 -27 63 -34 73 -70 24
-91 148 -171 297 -193 200 -29 402 47 458 173 16 34 22 39 52 39 67 0 232 -73
233 -103 0 -4 -11 -24 -25 -45 -105 -160 -59 -300 153 -459 102 -77 306 -200
453 -274 187 -93 319 -144 564 -218 113 -34 338 -78 515 -101 91 -11 172 -23
180 -25 8 -2 87 -9 175 -14 370 -25 495 -35 495 -43 0 -4 -10 -8 -22 -8 -13 0
-54 -7 -93 -15 -130 -28 -415 -55 -588 -55 -249 0 -689 50 -977 111 -510 108
-902 249 -1155 416 -79 52 -234 172 -319 247 -15 14 -85 72 -154 128 -68 57
-157 130 -196 164 -39 33 -114 93 -167 132 -102 75 -179 154 -179 182 0 20 87
58 135 59 17 1 58 -12 92 -28z"/>
<path id="13" fill="#ffffff" stroke="none" d="M5727 1276 c26 -22 28 -30 28 -93 -1
-142 -59 -268 -179 -388 -62 -62 -102 -91 -171 -127 -160 -82 -279 -116 -1150
-328 -115 -28 -327 -80 -470 -115 -698 -172 -1018 -202 -1157 -110 -60 40 -78
77 -78 162 0 157 81 250 270 311 54 18 76 20 130 13 36 -5 160 -9 275 -9 222
0 434 19 633 57 59 11 157 29 217 40 176 32 814 186 882 214 125 51 166 93
213 220 11 30 28 57 38 60 9 3 69 24 132 46 150 54 211 69 292 70 57 1 71 -2
95 -23z"/>
</g>
</svg>
