<?xml version="1.0" standalone="no"?>
<!DOCTYPE svg PUBLIC "-//W3C//DTD SVG 20010904//EN"
 "http://www.w3.org/TR/2001/REC-SVG-20010904/DTD/svg10.dtd">
<svg version="1.0" xmlns="http://www.w3.org/2000/svg"
 width="1140.000000pt" height="1092.000000pt" viewBox="0 0 1140.000000 1092.000000"
 preserveAspectRatio="xMidYMid meet">
<metadata>
Created by potrace 1.15, written by Peter Selinger 2001-2017
</metadata>
<g transform="translate(0.000000,1092.000000) scale(0.100000,-0.100000)"
fill="#000000" stroke="none">
<path fill="#000000" stroke="none" d="M5755 10184 c-358 -18 -612 -52 -930
-125 -469 -107 -952 -303 -1374 -558 -565 -342 -990 -729 -1415 -1290 -39 -51
-75 -101 -81 -110 -5 -9 -20 -31 -33 -48 -116 -164 -367 -635 -457 -858 -192
-476 -300 -926 -346 -1445 -16 -173 -15 -604 0 -785 37 -432 126 -840 270
-1240 27 -77 46 -142 42 -145 -4 -3 -11 -24 -15 -47 -6 -40 -5 -43 21 -49 50
-11 53 -13 73 -58 256 -597 668 -1173 1155 -1614 370 -335 692 -556 1117 -767
578 -287 1091 -430 1773 -494 116 -11 632 -11 750 0 683 63 1215 213 1805 510
1338 673 2288 1944 2564 3429 55 295 78 557 78 895 0 200 -3 260 -28 495 -44
423 -161 896 -308 1255 -275 668 -621 1186 -1125 1684 -758 748 -1794 1234
-2856 1341 -55 5 -125 12 -155 14 -82 7 -445 14 -525 10z"/>
<path fill="#ffffff" stroke="none" d="M6195 10070 c601 -48 1112 -169 1593
-376 122 -53 465 -226 501 -253 l24 -18 -31 -44 c-18 -24 -55 -76 -84 -116
-29 -39 -92 -125 -139 -190 -317 -432 -394 -538 -567 -774 -105 -145 -203
-277 -216 -294 l-24 -29 -63 28 c-35 16 -93 40 -129 53 -35 13 -69 28 -75 32
-5 5 -41 18 -80 31 -132 42 -131 42 -150 128 -21 93 -29 206 -28 412 0 156 1
166 55 403 11 49 17 91 15 94 -3 2 -1 19 4 36 13 44 57 253 75 357 20 116 20
175 -1 207 -46 70 -126 120 -172 108 -13 -3 -32 -1 -42 4 -11 6 -31 7 -52 1
-19 -4 -59 -14 -89 -20 -30 -7 -68 -20 -85 -30 -16 -10 -42 -20 -57 -24 -16
-3 -28 -12 -28 -19 0 -6 -26 -25 -58 -41 -70 -36 -213 -130 -267 -176 -78 -67
-274 -271 -310 -324 -12 -17 -59 -85 -106 -151 -72 -103 -189 -315 -189 -342
0 -5 -5 -14 -11 -20 -15 -15 -61 -122 -105 -243 -42 -115 -79 -193 -104 -215
-18 -16 -217 -52 -227 -41 -6 6 267 1789 276 1798 6 7 215 32 391 47 148 12
414 12 555 1z"/>
<path fill="#ffffff" stroke="none" d="M5005 9095 c-74 -484 -137 -885 -139
-891 -2 -5 -35 -16 -72 -23 -260 -47 -641 -179 -974 -338 -85 -40 -160 -71
-167 -69 -16 6 -54 -10 -113 -48 -24 -16 -65 -38 -90 -49 -25 -11 -47 -23 -50
-27 -3 -4 -21 -15 -40 -24 -49 -24 -84 -44 -167 -98 -40 -26 -85 -54 -100 -63
-120 -68 -268 -163 -299 -192 -14 -13 -27 -23 -30 -23 -2 0 -47 -32 -99 -71
-52 -39 -99 -68 -104 -65 -11 7 -481 942 -481 958 0 35 329 433 515 623 43 45
255 235 340 307 368 308 887 608 1340 773 245 90 473 156 685 199 167 33 174
34 178 16 1 -8 -58 -411 -133 -895z"/>
<path fill="#ffffff" stroke="none" d="M6736 9723 c22 -22 15 -113 -25 -306
-16 -78 -36 -194 -46 -257 -9 -63 -20 -131 -25 -150 -48 -190 -52 -221 -50
-409 0 -102 1 -221 1 -265 0 -54 5 -86 16 -102 23 -36 3 -38 -118 -14 -172 34
-439 59 -699 65 -398 10 -381 4 -361 111 7 37 21 87 32 110 10 24 19 48 19 54
0 23 64 177 90 215 15 22 30 48 33 58 4 10 27 47 52 82 25 35 58 88 73 118 34
66 108 155 221 262 46 44 123 119 170 166 55 55 103 94 133 107 27 11 73 39
104 61 31 22 73 43 93 46 20 4 48 13 63 21 14 8 46 14 71 14 25 0 60 7 78 15
44 19 54 18 75 -2z"/>
<path fill="#ffffff" stroke="none" d="M8530 9291 c458 -307 838 -667 1176
-1116 153 -204 404 -609 404 -654 0 -5 -39 -34 -87 -64 -49 -30 -218 -137
-378 -237 -159 -101 -348 -220 -420 -265 -476 -300 -566 -355 -578 -355 -8 0
-26 24 -42 53 -33 62 -172 262 -229 331 -23 26 -58 69 -80 95 -129 154 -360
383 -521 516 -27 22 -67 56 -90 75 -22 19 -73 59 -113 88 -40 30 -72 59 -72
65 0 7 -34 32 -75 57 -41 25 -75 48 -75 52 0 6 335 469 564 779 23 30 140 191
261 357 121 166 224 302 228 302 4 0 61 -36 127 -79z"/>
<path fill="#ffffff" stroke="none" d="M5955 8141 c77 -11 181 -23 230 -26
435 -30 1166 -327 1472 -598 33 -29 82 -68 111 -87 28 -19 56 -44 63 -57 6
-12 40 -44 74 -72 87 -71 148 -131 169 -167 10 -16 30 -38 45 -49 15 -10 37
-32 49 -49 12 -18 41 -55 64 -83 134 -160 168 -202 188 -243 50 -99 66 -127
96 -170 18 -25 44 -56 58 -69 14 -14 26 -28 26 -32 0 -4 16 -42 35 -83 19 -42
35 -78 35 -81 0 -2 13 -33 29 -68 16 -35 35 -83 42 -108 7 -24 19 -54 27 -66
7 -12 11 -31 7 -42 -4 -13 13 -77 45 -168 29 -81 56 -166 60 -188 5 -22 16
-76 26 -120 26 -122 32 -525 8 -615 -10 -36 -23 -74 -31 -85 -7 -11 -13 -32
-13 -47 0 -15 -4 -29 -9 -32 -4 -3 -11 -22 -14 -42 -3 -20 -16 -60 -27 -88
-31 -73 -127 -141 -245 -173 -44 -12 -150 -56 -222 -93 -42 -21 -80 -37 -85
-34 -4 3 -8 40 -8 82 0 42 -5 93 -10 112 -5 19 -16 63 -24 98 -9 34 -25 80
-36 102 -24 48 -27 151 -5 203 24 57 21 326 -4 392 -17 47 -26 120 -36 315 -7
134 -63 326 -116 402 -11 14 -19 30 -19 35 0 12 -119 180 -151 214 -13 14 -31
34 -40 45 -9 10 -28 30 -43 42 -16 13 -69 62 -119 108 -76 72 -313 244 -335
244 -4 0 -23 14 -42 30 -34 29 -80 55 -240 134 -41 21 -84 42 -95 48 -89 49
-237 120 -270 129 -42 12 -50 15 -127 48 -57 26 -76 27 -58 6 18 -22 5 -20
-177 19 -252 55 -359 68 -553 68 -191 0 -288 -12 -510 -63 -270 -62 -375 -90
-378 -99 -2 -6 -15 -10 -30 -10 -14 0 -86 -22 -159 -50 -73 -27 -145 -50 -159
-50 -13 0 -37 -9 -52 -20 -15 -11 -50 -24 -77 -29 -28 -4 -108 -29 -180 -55
-331 -121 -431 -159 -445 -171 -18 -15 -110 -28 -127 -17 -6 4 -17 19 -23 32
-6 14 -17 36 -25 50 -8 14 -15 37 -15 51 0 15 -7 46 -15 70 -10 27 -13 58 -10
84 4 22 1 69 -5 105 -6 36 -13 173 -16 306 l-6 241 121 72 c442 264 986 443
1566 516 229 29 523 27 740 -4z"/>
<path fill="#ffffff" stroke="none" d="M2479 7035 c1 -12 -24 -45 -60 -80 -78
-77 -138 -154 -180 -233 -51 -95 -65 -120 -77 -135 -18 -21 -74 -139 -83 -172
-4 -16 -22 -66 -39 -110 -18 -44 -35 -98 -39 -120 -7 -41 -38 -125 -74 -205
-11 -25 -25 -70 -32 -100 l-11 -55 -275 270 c-151 148 -275 276 -277 283 -6
22 67 290 128 472 127 380 287 717 494 1039 l60 94 232 -464 c128 -255 233
-473 233 -484z"/>
<path fill="#ffffff" stroke="none" d="M3398 7458 c5 -38 -22 -84 -70 -118
-22 -17 -45 -30 -50 -30 -4 0 -31 -16 -58 -35 -28 -19 -72 -51 -100 -70 -27
-19 -54 -35 -59 -35 -32 0 -293 -217 -333 -277 -14 -21 -52 -65 -84 -99 -32
-33 -71 -80 -85 -105 -29 -48 -59 -155 -59 -211 0 -39 26 -118 64 -193 14 -27
26 -58 26 -67 0 -27 -67 -96 -100 -103 -17 -4 -33 -11 -36 -17 -4 -6 -30 -21
-58 -34 -28 -14 -73 -38 -101 -54 -27 -16 -61 -33 -73 -39 -13 -6 -55 -29 -92
-51 -72 -42 -89 -47 -106 -30 -13 13 5 90 39 163 26 56 44 104 57 152 4 17 27
71 50 120 23 50 58 124 77 165 19 41 50 91 68 110 18 19 50 70 70 113 29 62
58 100 138 185 106 111 139 141 206 181 22 13 50 34 63 45 39 35 112 92 128
100 25 11 51 28 142 89 47 31 89 57 92 57 8 0 64 39 91 64 29 27 96 55 125 53
19 -2 26 -8 28 -29z"/>
<path fill="#ffffff" stroke="none" d="M10228 7290 c254 -594 381 -1126 408
-1706 l7 -140 -84 -22 c-94 -25 -726 -188 -1179 -306 -162 -42 -301 -76 -309
-76 -11 0 -13 16 -6 88 4 48 7 98 8 112 0 60 -24 251 -39 315 -9 39 -19 109
-23 156 -5 72 -12 97 -42 155 -20 38 -42 94 -49 124 -7 30 -18 71 -26 90 -7
19 -18 53 -25 74 -11 36 -31 78 -122 246 -19 36 -37 74 -41 86 -7 22 -40 0
539 364 480 302 533 335 720 455 99 63 187 113 195 112 8 -1 37 -55 68 -127z"/>
<path fill="#ffffff" stroke="none" d="M3377 7154 c23 -23 25 -31 21 -97 l-3
-72 -80 -99 c-55 -68 -98 -111 -137 -135 -31 -20 -81 -53 -111 -73 -30 -21
-80 -47 -111 -58 -31 -12 -69 -32 -84 -44 -36 -30 -133 -51 -162 -36 -26 14
-40 49 -40 103 0 56 62 142 127 175 24 13 63 42 85 64 23 23 57 50 77 62 44
26 161 105 245 166 99 73 135 82 173 44z"/>
<path fill="#ffffff" stroke="none" d="M5993 7074 c108 -16 332 -61 482 -96
85 -20 146 -42 207 -74 14 -8 31 -14 36 -14 10 0 183 -80 327 -151 79 -39 411
-253 446 -288 9 -9 36 -32 60 -51 62 -50 249 -233 249 -245 0 -5 14 -26 31
-45 17 -19 38 -51 46 -70 8 -19 26 -49 39 -67 13 -17 24 -38 24 -45 0 -8 4
-18 9 -23 13 -14 48 -149 59 -230 11 -77 6 -135 -12 -135 -6 1 -45 33 -87 73
-115 109 -140 129 -260 202 -9 6 -37 24 -62 42 -39 28 -190 110 -379 205 -31
15 -72 31 -90 35 -18 3 -44 11 -58 18 -67 33 -185 78 -265 101 -27 8 -68 20
-89 28 -29 10 -45 11 -57 3 -12 -7 -72 -1 -220 21 -112 17 -235 34 -274 37
-256 21 -317 22 -480 15 -99 -5 -197 -12 -217 -16 -31 -5 -38 -4 -38 10 0 20
-11 20 -57 1 -20 -8 -57 -18 -82 -21 -25 -3 -62 -12 -81 -20 -19 -9 -50 -22
-68 -30 -18 -8 -45 -14 -59 -14 -15 0 -54 -9 -87 -19 -123 -38 -162 -44 -193
-28 -18 10 -33 30 -42 54 -7 21 -19 45 -26 53 -8 8 -23 40 -35 70 -12 30 -28
62 -35 70 -8 9 -18 64 -25 133 -22 230 22 307 195 337 28 5 76 18 107 29 32
12 71 21 88 21 16 0 30 4 30 9 0 10 296 83 450 110 136 24 356 26 493 5z"/>
<path fill="#ffffff" stroke="none" d="M3451 6705 c54 -77 64 -129 32 -157
-15 -13 -290 -118 -373 -143 -14 -4 -41 -18 -60 -31 -19 -13 -40 -24 -46 -24
-6 0 -23 -9 -36 -20 -32 -25 -211 -90 -248 -90 -37 0 -76 39 -84 85 -4 22 -14
48 -22 59 -21 30 -17 52 11 74 22 17 31 19 58 10 63 -20 88 -20 145 0 31 11
84 24 117 28 72 8 93 18 180 85 36 28 83 57 103 66 20 8 61 42 92 74 30 32 61
58 69 57 8 -2 36 -34 62 -73z"/>
<path fill="#ffffff" stroke="none" d="M4480 6760 c11 -7 15 -32 16 -107 3
-160 15 -225 50 -270 17 -21 39 -62 48 -90 10 -29 21 -55 26 -58 15 -10 68
-108 85 -160 9 -27 32 -70 51 -94 19 -24 34 -49 34 -55 0 -6 11 -21 24 -33 20
-19 66 -86 163 -234 13 -19 23 -39 23 -43 0 -4 9 -19 19 -32 24 -31 18 -82
-15 -136 -32 -51 -50 -58 -146 -58 -174 1 -234 19 -369 112 -42 29 -90 61
-107 70 -17 9 -38 32 -45 50 -8 18 -31 55 -51 83 -20 27 -36 54 -36 58 0 5
-20 34 -44 65 -24 31 -53 80 -66 107 -12 28 -25 52 -29 55 -9 7 -28 39 -52 85
-36 69 -56 104 -66 117 -6 7 -26 42 -45 78 -48 91 -98 170 -108 170 -4 0 -13
14 -21 32 -13 31 -12 32 35 73 38 34 77 53 189 94 78 28 153 52 167 52 14 0
70 17 125 39 109 41 123 44 145 30z"/>
<path fill="#ffffff" stroke="none" d="M3664 6433 c73 -81 106 -124 142 -187
44 -78 53 -91 76 -126 10 -14 24 -44 32 -67 12 -35 12 -44 0 -61 -14 -20 -100
-56 -114 -47 -4 2 -44 -9 -90 -25 -45 -17 -92 -30 -104 -30 -11 0 -53 -12 -91
-26 -39 -14 -86 -27 -105 -29 -19 -3 -64 -16 -99 -30 -36 -14 -77 -25 -92 -25
-14 0 -43 -7 -62 -15 -20 -8 -50 -15 -67 -15 -17 0 -40 -5 -51 -11 -21 -11
-66 -20 -209 -43 -47 -7 -97 -18 -111 -24 -14 -5 -133 -12 -270 -14 l-244 -3
-70 36 c-57 29 -70 40 -70 60 0 20 10 27 71 49 39 15 92 43 119 63 26 20 56
37 65 37 10 0 48 20 84 45 37 25 73 45 80 45 7 0 33 13 57 30 24 16 49 30 54
30 19 0 170 61 185 75 8 7 58 28 110 46 52 18 106 41 120 51 14 10 64 32 110
48 47 17 96 39 110 49 14 10 90 41 170 70 80 28 154 56 165 61 38 17 73 11 99
-17z"/>
<path fill="#ffffff" stroke="none" d="M1565 6002 c513 -508 1431 -1410 1468
-1441 20 -18 37 -38 37 -45 0 -6 -13 -20 -30 -29 -16 -10 -35 -23 -42 -30 -7
-7 -45 -39 -84 -73 l-71 -61 -349 118 c-445 149 -1191 404 -1226 417 -40 16
-43 56 -43 502 1 404 7 507 50 750 23 127 26 140 33 140 4 0 119 -112 257
-248z"/>
<path fill="#ffffff" stroke="none" d="M5968 6221 c11 -6 -25 -61 -144 -222
-87 -118 -179 -243 -205 -279 -26 -36 -96 -131 -156 -212 -59 -80 -218 -295
-352 -478 -180 -245 -248 -330 -260 -326 -9 2 -61 23 -116 46 -55 23 -161 56
-235 74 -74 18 -135 37 -135 42 1 35 73 505 78 510 2 2 35 -11 73 -30 116 -57
238 -78 374 -64 126 12 157 22 208 72 85 81 97 142 53 264 -17 46 -44 101 -61
122 -16 21 -30 41 -30 45 0 7 -42 56 -72 83 -10 9 -18 22 -18 28 0 7 -15 30
-32 51 -18 22 -42 56 -53 77 l-20 38 24 19 c13 10 38 19 57 19 18 0 56 9 84
20 28 11 64 20 81 20 17 0 39 5 50 11 36 19 262 56 419 67 154 12 372 14 388
3z"/>
<path fill="#ffffff" stroke="none" d="M6297 6190 c71 -10 209 -31 308 -46
178 -26 287 -58 395 -115 19 -11 42 -19 50 -19 8 0 35 -11 59 -25 23 -14 51
-25 61 -25 11 0 22 -5 25 -11 4 -5 32 -22 63 -35 32 -14 71 -33 87 -42 31 -16
59 -30 84 -42 8 -3 16 -11 17 -16 2 -5 -81 -64 -184 -130 -219 -143 -882 -575
-1407 -919 -492 -322 -544 -355 -555 -355 -5 0 -46 29 -90 65 -45 35 -117 86
-162 112 -44 26 -82 53 -85 60 -2 6 53 89 123 185 155 210 284 386 334 453 21
28 158 214 305 415 407 554 372 510 411 510 19 0 91 -9 161 -20z"/>
<path fill="#ffffff" stroke="none" d="M4014 5875 c13 -13 27 -34 31 -46 4
-11 25 -46 46 -77 21 -30 39 -60 39 -67 0 -14 107 -137 172 -197 l51 -47 -11
-73 c-6 -40 -26 -167 -43 -283 -17 -115 -32 -211 -33 -212 -1 -1 -85 -4 -186
-7 -162 -4 -264 -16 -362 -41 -28 -7 -28 -6 -163 270 -74 153 -135 279 -135
281 0 1 -31 67 -70 145 -38 79 -67 146 -62 150 14 14 279 109 303 109 13 0 48
9 77 20 29 11 62 20 75 20 20 0 215 65 226 75 9 10 21 5 45 -20z"/>
<path fill="#ffffff" stroke="none" d="M7606 5728 c16 -13 63 -55 104 -94 41
-39 94 -88 118 -109 23 -20 42 -43 42 -50 0 -7 16 -23 35 -36 39 -26 68 -66
110 -149 27 -53 27 -55 23 -219 -3 -140 -7 -170 -22 -193 -12 -19 -27 -28 -45
-28 -14 0 -46 -7 -70 -16 -37 -12 -93 -14 -360 -10 -394 6 -551 -5 -690 -47
-25 -8 -66 -20 -91 -27 -25 -6 -70 -21 -100 -32 -161 -60 -250 -87 -511 -158
-157 -43 -367 -97 -465 -120 -98 -24 -184 -45 -191 -47 -27 -10 -12 13 20 32
30 17 306 197 1167 760 768 502 866 565 881 565 9 0 29 -10 45 -22z"/>
<path fill="#ffffff" stroke="none" d="M3267 5473 c47 -98 119 -248 160 -333
137 -282 164 -343 156 -351 -4 -4 -52 -26 -106 -49 -106 -44 -283 -136 -293
-151 -3 -5 -12 -9 -21 -9 -15 0 -983 946 -983 961 0 4 69 5 153 2 113 -4 180
-1 262 11 61 9 128 17 150 18 22 0 47 4 56 9 9 4 38 9 65 10 52 2 117 14 174
32 32 10 95 23 128 26 7 0 49 -74 99 -176z"/>
<path fill="#ffffff" stroke="none" d="M10637 5160 c-7 -182 -23 -342 -54
-523 -15 -93 -18 -99 -47 -114 -63 -33 -94 -33 -306 -2 -405 60 -494 67 -905
75 -187 4 -342 8 -344 10 -1 1 8 45 22 96 14 51 28 111 30 133 9 75 21 92 79
110 29 8 211 56 403 106 508 131 759 196 940 244 88 23 166 43 174 44 12 1 13
-28 8 -179z"/>
<path fill="#ffffff" stroke="none" d="M4360 4756 c52 -8 129 -25 170 -36 178
-50 458 -192 605 -308 39 -31 72 -57 74 -59 11 -8 -17 -16 -144 -38 -75 -13
-241 -34 -368 -46 -208 -19 -274 -21 -632 -16 -220 3 -420 8 -445 11 -25 2
-101 7 -170 10 -241 12 -470 29 -470 36 0 3 30 31 68 61 388 319 870 460 1312
385z"/>
<path fill="#ffffff" stroke="none" d="M1810 4570 c665 -227 642 -218 603
-219 -18 -1 -105 6 -195 14 -90 8 -244 21 -343 30 -99 8 -225 20 -280 25 -55
5 -142 12 -192 16 -107 8 -95 -7 -123 156 -26 150 -26 162 3 155 12 -3 249
-82 527 -177z"/>
<path fill="#ffffff" stroke="none" d="M7575 4689 c50 -5 144 -13 210 -18 186
-12 213 -32 262 -196 13 -45 18 -93 18 -190 -1 -144 7 -119 -92 -278 -38 -60
-94 -80 -221 -78 -57 0 -111 5 -122 11 -10 5 -40 10 -67 10 -26 0 -88 12 -138
26 -49 14 -109 29 -132 34 -24 5 -75 20 -115 33 -40 14 -102 32 -138 42 -36
10 -79 24 -97 31 -17 8 -36 14 -41 14 -6 0 -50 13 -99 28 -78 26 -119 38 -278
84 -22 7 -49 17 -60 24 -11 7 -45 17 -75 23 -101 20 -154 38 -165 55 -19 33
40 71 347 223 47 24 117 50 155 59 37 9 84 21 103 27 122 37 542 57 745 36z"/>
<path fill="#ffffff" stroke="none" d="M9470 4500 c276 -15 498 -37 695 -68
104 -17 210 -27 273 -27 61 0 102 -4 102 -10 -1 -30 -32 -139 -44 -150 -47
-47 -190 -163 -250 -204 -76 -51 -228 -112 -387 -155 -53 -14 -99 -26 -102
-26 -3 0 -10 13 -15 29 -19 54 -186 255 -222 266 -9 3 -22 16 -28 29 -11 25
-33 40 -112 76 -25 12 -52 25 -60 30 -8 6 -87 46 -175 91 -88 44 -167 87 -175
95 -13 13 -13 16 0 24 20 13 259 13 500 0z"/>
<path fill="#ffffff" stroke="none" d="M6070 4422 c-42 -28 -100 -89 -100
-105 0 -45 61 -78 190 -101 19 -3 62 -17 95 -31 33 -13 76 -25 96 -25 20 0 58
-7 85 -16 81 -26 117 -35 164 -44 25 -4 77 -20 115 -34 39 -15 93 -34 120 -42
28 -8 59 -20 70 -26 21 -12 96 -33 180 -50 28 -5 77 -19 110 -30 33 -11 90
-27 128 -34 37 -8 100 -21 140 -29 119 -25 226 -36 340 -33 l109 3 12 -30 c7
-17 25 -36 40 -43 14 -6 26 -15 26 -20 0 -4 -102 -22 -227 -40 -1276 -181
-1659 -232 -1893 -252 -69 -6 -145 -13 -170 -15 -135 -15 -429 -34 -520 -34
-58 0 -197 -3 -310 -7 -113 -3 -396 -1 -630 5 -383 10 -534 17 -1082 51 -90 5
-203 12 -253 15 -118 7 -569 45 -960 80 -93 8 -210 18 -260 21 -49 4 -97 10
-106 15 -17 9 -85 183 -147 379 -47 150 -109 387 -102 393 3 2 73 -2 155 -9
1157 -104 1502 -131 2077 -164 98 -5 357 -10 576 -10 543 0 736 17 1252 110
36 6 202 47 370 89 168 43 312 79 320 79 9 1 4 -6 -10 -16z"/>
<path fill="#ffffff" stroke="none" d="M8977 4341 c153 -76 227 -118 287 -161
69 -50 164 -139 187 -178 12 -18 34 -39 49 -47 20 -10 39 -36 60 -82 17 -38
35 -75 40 -83 39 -65 90 -164 108 -210 99 -253 104 -274 75 -296 -25 -19 -186
-18 -238 1 -22 8 -57 14 -77 15 -20 0 -47 4 -60 9 -13 4 -50 17 -83 27 -77 23
-200 78 -210 93 -3 7 -24 22 -44 35 -21 13 -58 41 -84 63 -82 67 -105 83 -122
83 -9 0 -49 15 -88 33 -83 38 -176 62 -297 76 -120 14 -212 29 -235 40 -26 12
-121 41 -133 41 -6 0 -29 12 -52 27 l-42 28 24 20 c13 11 35 29 49 40 14 11
44 47 66 80 56 81 72 94 188 156 55 29 116 63 135 76 19 12 43 23 53 23 26 0
154 67 160 84 3 8 23 26 44 40 63 41 104 35 240 -33z"/>
<path fill="#ffffff" stroke="none" d="M10402 3883 c-84 -250 -133 -371 -238
-583 -105 -214 -168 -324 -286 -506 -204 -313 -453 -611 -719 -862 l-88 -83
-123 39 c-236 77 -457 128 -658 152 -159 19 -594 40 -1045 50 -857 20 -1257
77 -1782 254 -72 24 -139 48 -148 53 -16 10 35 20 320 62 345 51 867 188 1250
326 189 69 215 76 265 71 30 -2 147 -14 260 -25 113 -11 333 -25 490 -32 696
-29 965 21 1421 267 l184 99 95 0 c52 0 150 1 217 3 120 2 123 3 155 31 l33
29 -18 36 c-9 20 -21 36 -26 36 -16 0 -29 30 -71 167 -22 71 -48 148 -58 173
-31 73 -42 114 -34 121 4 4 64 24 134 43 69 20 161 51 205 69 79 34 220 121
283 175 19 17 36 26 38 21 2 -4 -23 -88 -56 -186z"/>
<path fill="#ffffff" stroke="none" d="M8265 3637 c26 -36 64 -45 210 -51 39
-1 80 -8 92 -14 12 -7 40 -12 63 -12 27 0 51 -7 67 -20 14 -11 32 -20 40 -20
30 0 120 -34 151 -58 19 -13 38 -36 43 -51 7 -18 31 -38 82 -65 39 -21 80 -45
89 -53 19 -17 204 -93 225 -93 36 0 0 -25 -134 -92 -240 -121 -400 -172 -638
-203 -244 -33 -768 -18 -1260 35 -104 11 -275 29 -380 41 -254 27 -1108 135
-1810 229 -203 27 -399 52 -433 56 -116 13 -43 24 158 24 216 0 580 15 765 30
66 6 201 17 300 25 99 8 212 19 250 25 39 5 192 26 340 45 248 31 1054 147
1510 215 194 30 252 31 270 7z"/>
<path fill="#ffffff" stroke="none" d="M1875 3445 c406 -35 525 -46 615 -55
111 -11 454 -36 620 -45 63 -3 144 -8 180 -10 193 -14 417 -25 590 -30 232 -7
240 -8 233 -34 -6 -25 -5 -25 222 -55 105 -14 422 -57 705 -96 283 -38 623
-83 755 -100 132 -17 359 -46 505 -65 146 -19 332 -42 413 -51 91 -10 143 -20
134 -25 -36 -21 -281 -102 -444 -148 -442 -124 -1014 -228 -1318 -241 -11 0
-114 -7 -230 -14 -115 -8 -277 -15 -360 -15 -277 -1 -768 40 -1307 108 -336
43 -667 72 -789 70 -58 -1 -110 0 -115 4 -5 3 -41 -3 -79 -13 -39 -11 -78 -20
-87 -20 -19 0 -184 242 -283 415 -72 125 -215 412 -215 431 0 11 10 13 38 9
20 -3 118 -12 217 -20z"/>
<path fill="#ffffff" stroke="none" d="M2709 2524 c168 -14 588 -63 736 -84
96 -14 476 -48 670 -60 199 -12 554 -13 785 0 l175 9 110 -45 c370 -152 788
-259 1183 -303 89 -10 165 -20 168 -23 7 -8 -118 -88 -191 -122 -133 -64 -362
-129 -555 -160 -221 -35 -574 -54 -1001 -56 -305 -1 -656 -18 -819 -41 -103
-14 -302 -63 -386 -94 -38 -15 -108 -47 -156 -72 l-86 -46 -53 33 c-170 105
-484 364 -696 577 -150 150 -413 451 -413 473 0 31 264 38 529 14z"/>
<path fill="#ffffff" stroke="none" d="M7420 1989 c563 -15 794 -32 1035 -76
213 -38 515 -122 515 -143 0 -21 -289 -241 -470 -356 -297 -190 -557 -325
-837 -433 -51 -20 -52 -20 -145 -1 -235 47 -278 67 -383 178 -196 206 -330
267 -830 380 -82 19 -322 58 -485 80 -74 10 -83 6 134 53 187 40 344 92 467
157 96 50 251 154 258 174 2 6 67 8 195 3 105 -3 351 -10 546 -16z"/>
<path fill="#ffffff" stroke="none" d="M5403 1570 c711 -79 1186 -176 1417
-288 73 -36 148 -94 235 -182 102 -103 174 -149 284 -179 41 -11 76 -22 78
-25 14 -14 -346 -111 -601 -161 -335 -66 -474 -79 -886 -79 -315 0 -389 3
-536 22 -567 71 -1108 235 -1589 479 -128 65 -365 200 -365 208 0 10 92 56
169 85 105 38 254 74 391 94 115 17 455 36 700 39 486 7 522 7 703 -13z"/>
</g>
</svg>
