<?xml version="1.0" standalone="no"?>
<!DOCTYPE svg PUBLIC "-//W3C//DTD SVG 20010904//EN"
 "http://www.w3.org/TR/2001/REC-SVG-20010904/DTD/svg10.dtd">
<svg id="dragonfly" version="1.0" xmlns="http://www.w3.org/2000/svg"
 width="612.000000pt" height="792.000000pt" viewBox="0 0 612.000000 792.000000"
 preserveAspectRatio="xMidYMid meet">
<metadata>
Created by potrace 1.15, written by Peter Selinger 2001-2017
</metadata>
<g transform="translate(0.000000,792.000000) scale(0.100000,-0.100000)"
fill="#000000" stroke="none">
<path id="0" fill="#000000" stroke="none" d="M1544 6862 c1 -8 -14 -22 -31 -31 -18
-9 -33 -22 -33 -28 0 -7 -4 -13 -8 -13 -14 0 -43 -70 -29 -70 7 0 5 -5 -5 -10
-10 -6 -15 -21 -14 -40 1 -16 -1 -30 -5 -30 -7 0 -20 -41 -24 -75 -12 -117
-19 -231 -19 -335 l-1 -125 -505 -1 -505 -2 0 -223 c1 -123 4 -343 8 -489 11
-351 19 -765 24 -1205 2 -198 6 -436 9 -530 2 -93 6 -618 8 -1165 l3 -995 319
-2 c175 -1 1166 -4 2202 -5 1650 -3 1884 -5 1892 -18 7 -10 10 -11 10 -2 0 6
7 12 16 12 8 0 12 -4 9 -10 -4 -6 32 -10 100 -10 81 0 110 4 121 15 13 13 15
63 14 343 -1 180 -1 390 0 467 l2 141 133 2 c169 2 254 10 358 33 26 6 51 9
54 5 3 -3 15 1 27 9 11 8 27 15 34 15 12 0 46 32 102 97 10 12 15 38 14 83 0
52 -7 79 -33 133 -18 37 -37 67 -42 67 -5 0 -9 7 -9 15 0 8 -4 15 -8 15 -5 0
-17 18 -27 41 -10 22 -30 47 -44 54 -14 8 -23 14 -19 15 4 0 -12 20 -35 43
-23 24 -64 69 -92 100 -27 32 -56 57 -63 57 -8 0 -27 14 -43 31 -16 17 -29 27
-29 23 0 -5 -5 -1 -11 9 -5 9 -16 17 -22 17 -14 0 -48 36 -41 42 2 3 -8 11
-24 19 -15 8 -31 18 -37 22 -5 4 -39 26 -75 49 -36 22 -67 42 -69 44 -4 3 -12
1807 -11 2435 l0 207 -457 0 c-252 0 -489 1 -528 1 -38 1 -423 2 -854 2 -482
-1 -790 3 -800 9 -9 5 -12 10 -7 10 6 0 0 9 -12 20 -12 12 -22 27 -22 35 0 8
-4 15 -10 15 -5 0 -10 7 -10 16 0 9 -13 30 -30 46 -16 15 -30 31 -30 34 0 2
-10 15 -22 28 -26 26 -79 92 -91 113 -5 7 -24 29 -42 47 -19 19 -31 37 -28 40
4 3 -1 6 -10 6 -17 0 -27 8 -114 87 -66 61 -81 73 -89 73 -3 0 -35 20 -71 45
-35 25 -68 45 -73 45 -6 0 -10 4 -10 8 0 4 -23 16 -50 26 -28 10 -54 24 -58
32 -4 8 -35 17 -68 22 -51 7 -61 6 -60 -6z"/>
<path id="1" fill="#ffffff" stroke="none" d="M1630 6827 c39 -9 60 -19 60 -28 0 -6
4 -7 10 -4 10 6 117 -53 187 -104 24 -17 45 -31 48 -31 2 0 28 -22 57 -50 28
-27 53 -48 55 -46 13 13 292 -305 285 -326 -1 -5 2 -7 7 -4 5 4 18 -7 27 -24
10 -16 22 -30 27 -30 4 0 6 -4 2 -9 -3 -5 -1 -12 4 -16 10 -5 18 -19 60 -105
13 -25 27 -52 32 -60 18 -31 49 -99 49 -110 0 -6 4 -9 9 -6 5 4 24 -29 41 -71
18 -43 45 -104 61 -135 16 -32 27 -58 24 -58 -4 0 -3 -6 2 -12 4 -7 8 -15 9
-18 11 -37 18 -50 25 -50 5 0 8 -3 7 -7 -4 -11 42 -103 51 -103 6 0 8 -9 14
-64 1 -13 6 -24 10 -23 14 3 85 -193 109 -303 5 -25 16 -60 24 -78 9 -18 16
-49 17 -68 1 -19 7 -34 15 -34 6 0 13 -8 14 -17 1 -10 2 -25 3 -33 1 -8 9 -31
17 -50 9 -22 12 -39 6 -47 -5 -7 -5 -14 1 -17 5 -4 10 -14 10 -24 1 -19 8 -67
11 -67 1 0 3 -11 5 -25 2 -14 6 -41 9 -60 17 -119 18 -130 6 -130 -6 0 -9 -4
-6 -8 3 -5 -20 -31 -50 -58 -61 -53 -132 -125 -172 -173 -36 -45 -75 -38 -139
24 -11 11 -33 29 -48 40 -16 11 -34 26 -41 33 -7 6 -18 12 -25 12 -7 0 -19 7
-28 15 -40 38 -97 85 -103 85 -5 0 -8 7 -8 15 0 8 -5 15 -11 15 -6 0 -25 15
-43 33 -18 17 -39 33 -47 35 -8 2 -26 16 -40 32 -14 16 -29 27 -31 24 -3 -3
-14 6 -24 19 -11 12 -27 26 -37 30 -10 4 -16 11 -13 15 5 8 -28 42 -41 42 -3
0 -27 23 -53 50 -26 28 -51 50 -56 50 -5 0 -18 14 -30 30 -11 17 -45 57 -75
89 -67 74 -81 91 -74 91 3 0 -4 9 -15 20 -11 11 -20 29 -20 40 0 11 -3 20 -8
20 -4 0 -23 26 -41 58 -19 31 -38 59 -42 62 -15 10 -118 217 -112 224 3 3 1 6
-5 6 -10 0 -58 127 -54 143 1 4 -2 7 -8 7 -5 0 -7 7 -4 15 4 8 1 15 -6 15 -7
0 -10 7 -6 15 3 8 0 15 -7 15 -7 0 -14 8 -15 18 -2 21 -10 57 -12 57 -1 0 -3
7 -5 15 -2 8 -11 42 -20 75 -39 150 -67 363 -67 520 0 142 23 347 42 370 6 7
13 26 15 41 8 53 11 62 23 76 6 8 10 17 7 20 -3 3 13 24 36 46 41 41 50 44
109 29z"/>
<path id="2" fill="#ffffff" stroke="none" d="M5048 6085 c3 -3 -192 -201 -246 -250
-6 -5 -37 -38 -68 -73 -31 -34 -59 -61 -61 -59 -2 2 -20 -11 -41 -30 -42 -38
-37 -33 -89 -91 l-38 -43 -883 1 c-909 0 -917 1 -904 38 2 6 -1 12 -6 12 -6 0
-13 14 -17 30 -4 17 -17 50 -30 73 -13 23 -33 67 -45 97 -30 80 -64 150 -71
150 -9 0 -49 77 -49 94 0 7 -7 19 -15 26 -29 24 -14 29 83 32 144 4 2475 -2
2480 -7z"/>
<path id="3" fill="#ffffff" stroke="none" d="M1382 6050 c15 -78 30 -171 32 -203 1
-18 5 -37 8 -43 3 -5 4 -17 3 -26 -2 -10 0 -18 5 -18 5 0 7 -8 5 -17 -1 -10 2
-23 7 -30 5 -7 7 -17 3 -23 -3 -5 -1 -10 4 -10 6 0 10 -3 10 -7 -1 -5 0 -10 1
-13 3 -9 11 -45 14 -62 1 -10 5 -21 9 -24 4 -4 7 -15 7 -25 0 -16 -20 -17
-259 -18 l-259 -2 -24 29 c-14 16 -35 33 -47 37 -12 4 -20 9 -18 11 4 5 -72
81 -151 151 -21 18 -44 39 -52 46 -8 8 -58 58 -110 112 -52 54 -95 97 -95 94
0 -2 -18 15 -39 39 l-39 42 489 -2 489 -3 7 -35z"/>
<path id="4" fill="#ffffff" stroke="none" d="M575 5883 c61 -59 134 -127 164 -152
30 -24 68 -60 85 -80 37 -42 61 -66 105 -103 l33 -28 1 -237 2 -238 -42 0
c-23 0 -44 -3 -48 -7 -4 -4 -13 -4 -20 -2 -7 3 -16 0 -20 -5 -3 -6 -10 -9 -15
-6 -10 6 -80 -22 -80 -33 0 -4 -16 -25 -36 -46 l-35 -39 -90 28 c-50 15 -110
27 -134 27 l-43 -1 -2 132 c-1 73 -4 161 -5 196 -2 35 -7 226 -10 425 l-6 361
43 -42 c24 -23 93 -90 153 -150z"/>
<path id="5" fill="#ffffff" stroke="none" d="M5080 4775 l0 -1296 -22 13 c-13 7 -25
13 -28 13 -16 2 -80 39 -80 45 0 5 -54 34 -119 66 -66 32 -118 61 -115 66 3 4
-1 8 -8 8 -19 0 -130 46 -137 58 -3 5 -16 12 -28 16 l-22 7 -1 527 c0 290 -1
685 -2 877 l-1 350 72 71 c39 40 71 70 71 68 0 -1 35 34 78 79 42 45 95 97
117 117 71 63 155 149 155 160 0 5 5 10 10 10 6 0 19 9 30 20 11 11 22 20 25
20 2 0 4 -583 5 -1295z"/>
<path id="6" fill="#ffffff" stroke="none" d="M4351 5390 c-72 -72 -136 -130 -141
-130 -6 0 -8 -4 -5 -10 3 -5 2 -10 -3 -10 -14 0 -72 -52 -72 -65 0 -11 -90
-95 -102 -95 -5 0 -8 -5 -8 -10 0 -15 -52 -59 -68 -60 -8 0 -12 -5 -10 -12 2
-6 -30 -43 -71 -82 -41 -39 -125 -120 -186 -181 -62 -60 -135 -132 -163 -159
l-52 -48 -37 18 c-21 10 -46 17 -55 15 -10 -1 -18 3 -18 8 0 16 -22 13 -60 -6
-18 -9 -59 -17 -90 -17 -46 -2 -65 -8 -94 -29 -20 -16 -36 -35 -36 -43 0 -24
-17 -7 -19 18 -1 28 -8 73 -10 73 -1 0 -4 16 -5 35 -5 52 -14 94 -43 205 -14
55 -28 111 -31 125 -3 14 -9 27 -13 31 -5 3 -18 39 -30 80 -11 40 -25 82 -30
92 -5 10 -7 23 -3 29 4 6 3 8 -3 5 -7 -5 -29 55 -38 103 0 3 -11 24 -23 48
-12 23 -20 42 -17 42 3 0 -2 11 -11 25 -9 14 -13 25 -10 25 4 0 1 10 -6 23
-13 24 -15 29 -17 52 0 8 -9 15 -18 15 -11 0 -14 3 -7 10 12 12 395 16 1168
12 l568 -2 -131 -130z"/>
<path id="7" fill="#ffffff" stroke="none" d="M1505 5496 c9 -8 22 -34 31 -58 14 -41
30 -80 57 -138 6 -14 22 -42 34 -62 13 -21 23 -42 23 -48 0 -13 60 -110 82
-132 16 -16 20 -25 17 -44 0 -3 9 -14 20 -23 11 -10 19 -20 17 -22 -3 -2 11
-26 29 -54 33 -48 38 -69 13 -47 -7 6 -69 27 -137 47 -69 20 -133 41 -143 46
-10 5 -18 8 -18 5 0 -8 -75 16 -81 25 -3 5 -23 10 -44 12 -28 1 -40 -2 -42
-13 -3 -11 7 -16 38 -18 23 -1 47 -6 53 -10 6 -3 21 -8 34 -10 36 -5 295 -90
356 -117 31 -14 61 -34 68 -45 7 -11 18 -20 25 -20 7 0 13 -5 13 -12 0 -17
225 -228 328 -307 25 -20 64 -53 85 -74 45 -46 183 -157 195 -157 10 0 42 -25
100 -78 26 -23 55 -45 65 -48 18 -6 24 -24 7 -24 -5 0 -10 -7 -10 -16 0 -10
-5 -14 -16 -10 -9 3 -12 2 -9 -5 12 -18 -38 -56 -83 -64 -130 -22 -461 0 -597
39 -148 42 -200 58 -215 66 -10 5 -32 12 -50 15 -18 3 -41 10 -52 16 -20 11
-53 20 -75 21 -7 1 -13 5 -13 10 0 5 -4 6 -10 3 -5 -3 -10 -1 -10 6 0 7 -3 10
-6 6 -6 -5 -14 0 -47 29 -7 6 -17 9 -23 7 -6 -2 -50 14 -98 36 -47 22 -108 50
-136 62 -27 12 -50 25 -50 29 0 4 -11 11 -25 14 -13 3 -29 15 -35 26 -6 11
-15 18 -21 15 -5 -4 -12 1 -15 9 -3 9 -11 16 -17 16 -17 0 -147 81 -147 92 0
5 -4 7 -9 3 -6 -3 -15 4 -21 15 -6 11 -27 27 -47 35 -20 8 -33 18 -30 21 4 4
-8 21 -26 39 -57 58 -85 92 -92 114 -3 11 -10 21 -15 21 -11 0 -21 36 -27 101
-5 58 15 119 39 119 6 0 19 10 29 22 11 11 19 18 19 13 0 -4 6 -2 14 4 8 6 18
11 22 10 5 -1 11 0 14 1 6 2 44 9 95 15 65 9 186 11 191 4 2 -4 16 -6 32 -4
15 2 31 0 37 -3 12 -7 41 -13 73 -14 12 0 22 -3 22 -7 0 -11 55 -6 58 5 4 11
-55 24 -85 19 -13 -2 -23 0 -23 5 0 5 -8 9 -17 9 -10 1 -38 3 -63 6 -25 3 -71
7 -102 8 -32 2 -60 5 -62 8 -6 6 -14 448 -9 453 2 2 116 2 253 1 210 -2 252
-5 265 -19z"/>
<path id="8" fill="#ffffff" stroke="none" d="M4500 5068 c1 -238 2 -620 2 -849 1
-229 -2 -421 -6 -428 -6 -9 -11 -9 -22 0 -8 6 -14 8 -14 3 0 -5 -4 -3 -8 3 -4
7 -17 14 -27 16 -26 5 -55 16 -79 29 -11 5 -29 12 -40 14 -37 6 -96 29 -96 37
0 5 -4 6 -10 2 -5 -3 -36 6 -69 20 -33 14 -68 25 -76 25 -9 0 -14 4 -11 9 5 7
-146 58 -239 80 -22 5 -67 16 -100 26 -58 16 -83 22 -135 31 -14 2 -38 7 -55
10 -16 3 -45 7 -64 8 -19 1 -37 8 -39 15 -3 8 0 11 6 7 20 -12 43 7 64 53 11
25 20 59 20 75 0 16 6 42 14 57 19 38 19 133 -1 153 -8 8 -15 19 -15 25 0 6
-6 11 -12 11 -7 0 3 15 22 33 19 18 36 36 37 41 1 4 30 33 64 64 35 32 82 77
104 102 22 24 55 58 74 75 19 16 74 70 123 118 48 48 88 85 88 83 0 -3 11 6
25 20 14 14 25 29 25 34 0 6 4 10 9 10 13 0 111 103 111 117 0 7 4 13 10 13 5
0 34 22 62 49 29 27 64 60 78 73 14 13 38 40 54 61 16 21 31 36 33 33 3 -2 21
13 40 35 19 21 39 39 44 39 4 0 9 -195 9 -432z"/>
<path id="9" fill="#ffffff" stroke="none" d="M470 4931 c0 -4 11 -6 24 -4 14 3 59
-5 100 -17 73 -22 76 -24 76 -54 0 -55 12 -106 25 -106 7 0 15 -10 19 -23 3
-13 17 -36 31 -51 14 -15 25 -30 25 -33 0 -3 17 -21 37 -39 20 -19 34 -34 30
-34 -4 0 3 -11 15 -25 12 -14 28 -25 35 -25 8 0 27 -13 43 -30 16 -16 34 -30
40 -30 7 0 11 -22 10 -57 -1 -32 2 -569 6 -1193 l7 -1136 -48 -52 c-26 -29
-50 -50 -53 -48 -2 3 -23 -16 -45 -41 -105 -115 -142 -151 -152 -146 -5 4 -8
3 -4 0 3 -4 -37 -50 -89 -104 -52 -54 -99 -106 -106 -115 -7 -9 -24 -20 -38
-23 l-26 -7 -1 784 c0 430 -2 856 -3 945 -2 94 1 159 6 156 5 -4 6 0 1 7 -12
19 -12 23 -19 680 -4 322 -9 640 -12 708 l-5 122 35 0 c20 0 36 -4 36 -9z"/>
<path id="10" fill="#ffffff" stroke="none" d="M3407 4521 c12 -11 23 -17 26 -14 11
10 67 -61 69 -87 5 -95 -8 -125 -40 -86 -11 14 -27 26 -35 26 -9 0 -19 5 -22
10 -3 6 -24 10 -47 10 -35 0 -39 2 -32 18 15 32 8 81 -14 105 -27 29 -20 37
33 37 27 0 48 -7 62 -19z"/>
<path id="11" fill="#ffffff" stroke="none" d="M3288 4485 c16 -19 20 -31 13 -43 -4
-9 -6 -23 -4 -29 3 -7 0 -13 -6 -13 -6 0 -10 -3 -9 -7 5 -19 -15 -51 -38 -61
-41 -19 -81 -14 -110 13 -15 14 -24 25 -20 25 3 0 -3 9 -14 20 -12 12 -18 26
-13 33 4 7 8 15 8 19 0 17 47 67 67 71 49 11 102 -1 126 -28z"/>
<path id="12" fill="#ffffff" stroke="none" d="M1051 4404 c13 -7 31 -16 39 -20 8 -4
17 -11 20 -14 4 -6 71 -47 143 -87 40 -23 196 -93 207 -93 5 0 18 -8 28 -17
10 -10 40 -26 67 -36 47 -17 58 -20 95 -29 8 -1 17 -6 20 -10 3 -4 17 -10 30
-12 14 -2 25 -5 25 -6 0 -1 7 -3 15 -5 17 -4 97 -32 120 -42 8 -3 18 -7 23 -8
4 -2 8 -3 10 -5 1 -1 9 -3 17 -5 8 -2 49 -12 90 -24 41 -11 104 -24 140 -27
36 -4 67 -10 70 -14 3 -4 48 -11 100 -15 117 -10 95 -10 220 -1 l105 8 -21
-24 c-12 -12 -29 -33 -39 -45 -10 -12 -22 -20 -25 -18 -4 2 -13 -8 -21 -23 -8
-15 -16 -29 -19 -32 -12 -10 -68 -107 -74 -128 -7 -22 -76 -98 -76 -85 0 5 -5
0 -11 -9 -5 -10 -17 -18 -24 -18 -8 0 -15 -5 -15 -11 0 -7 -43 -53 -97 -103
-53 -50 -103 -99 -112 -109 -34 -40 -159 -163 -180 -177 -11 -8 -21 -17 -21
-21 0 -8 -178 -189 -186 -189 -3 0 -12 -7 -20 -15 -9 -8 -13 -15 -9 -15 7 0
-86 -90 -162 -158 -29 -25 -51 -48 -48 -50 2 -2 -27 -34 -65 -71 -39 -37 -70
-72 -70 -79 0 -7 -5 -12 -10 -12 -12 0 -20 -8 -125 -122 -85 -92 -107 -118
-98 -118 3 0 -3 -10 -14 -22 -26 -29 -34 -64 -23 -93 7 -19 3 -30 -24 -59 -18
-20 -34 -36 -37 -36 -2 0 -4 352 -5 783 0 430 -1 952 -2 1160 -2 208 0 383 4
389 4 7 9 6 14 -2 4 -6 18 -18 31 -26z"/>
<path id="13" fill="#ffffff" stroke="none" d="M3196 4300 l55 0 -7 -48 c-7 -52 13
-108 42 -119 7 -3 14 -10 14 -16 0 -13 -111 -131 -127 -135 -7 -2 -13 -7 -13
-12 0 -17 -62 -80 -73 -73 -5 3 -7 2 -4 -4 8 -13 -52 -75 -66 -66 -5 3 -7 1
-4 -4 4 -6 -4 -18 -17 -27 -13 -8 -51 -42 -83 -74 -60 -61 -148 -134 -158
-133 -7 2 -56 -29 -81 -51 -22 -19 -42 -26 -108 -33 -34 -4 -42 0 -75 33 -28
29 -36 45 -36 72 1 44 52 153 67 144 6 -4 8 -3 5 3 -8 12 17 66 26 57 3 -3 18
12 34 33 52 71 107 137 185 218 42 44 99 104 125 133 27 28 53 52 59 52 5 0
34 25 63 55 l53 55 35 -30 c29 -26 42 -30 89 -30z"/>
<path id="14" fill="#ffffff" stroke="none" d="M3451 4309 c27 -35 28 -62 2 -121 -15
-35 -24 -43 -47 -39 -4 1 -13 -2 -20 -6 -22 -16 -86 2 -86 24 0 8 -4 11 -10 8
-11 -7 -25 40 -22 70 9 71 40 95 116 91 38 -3 53 -9 67 -27z"/>
<path id="15" fill="#ffffff" stroke="none" d="M3368 4090 c1 -2 16 -4 32 -5 17 -1 31
-4 33 -5 1 -1 18 -3 37 -4 19 -1 49 -6 65 -10 17 -5 48 -10 70 -12 22 -3 42
-9 43 -14 2 -6 8 -8 12 -5 5 3 53 -6 107 -21 54 -14 113 -30 131 -34 18 -4 42
-14 55 -22 12 -8 31 -17 42 -20 11 -3 52 -18 90 -33 115 -44 238 -86 264 -90
13 -2 27 -8 30 -13 3 -5 14 -8 24 -6 9 1 17 -2 17 -7 0 -6 5 -7 10 -4 6 3 10
1 10 -5 0 -6 4 -9 9 -6 5 3 20 -3 34 -14 14 -11 30 -20 36 -20 6 0 11 -5 11
-11 0 -5 5 -7 10 -4 6 3 10 1 10 -5 0 -6 4 -9 8 -6 9 6 26 -2 229 -102 73 -36
130 -69 127 -74 -3 -4 1 -8 9 -8 7 0 23 -9 35 -21 12 -11 27 -17 32 -14 6 3
10 1 10 -4 0 -6 3 -11 8 -10 15 2 52 -14 52 -23 0 -5 4 -7 10 -3 5 3 18 -3 29
-14 11 -11 38 -29 59 -40 21 -11 44 -27 51 -35 8 -9 22 -16 32 -16 10 0 20 -8
24 -17 3 -10 31 -36 61 -58 31 -21 69 -52 85 -67 16 -15 32 -27 36 -26 8 3 69
-55 65 -60 -2 -1 22 -28 52 -60 106 -112 124 -133 141 -167 9 -19 20 -35 24
-35 5 0 11 -8 15 -17 3 -10 10 -25 15 -33 20 -31 41 -86 44 -119 7 -60 -65
-171 -111 -171 -6 0 -12 -5 -14 -10 -4 -13 -125 -38 -232 -49 -134 -14 -346
-14 -346 0 0 8 -4 8 -13 1 -21 -18 -303 25 -317 48 -6 10 -134 41 -177 43 -7
0 -13 4 -13 8 0 6 -42 18 -82 22 -10 1 -18 5 -18 10 0 4 -4 5 -10 2 -5 -3 -10
-1 -10 4 0 6 -3 10 -7 10 -5 -1 -10 -1 -13 1 -3 1 -16 4 -30 6 -13 2 -33 10
-45 17 -11 8 -46 24 -78 37 -32 12 -66 30 -75 39 -8 9 -18 16 -21 16 -14 0
-161 97 -169 111 -5 9 -16 16 -26 18 -10 1 -22 9 -27 17 -5 8 -9 11 -9 7 0 -8
-35 18 -54 40 -6 7 -20 21 -30 30 -11 9 -32 29 -47 43 -16 15 -35 29 -44 33
-9 3 -13 11 -10 16 4 6 2 9 -3 8 -12 -4 -112 97 -112 112 0 6 -4 8 -10 5 -5
-3 -10 -1 -10 5 0 14 -25 40 -39 40 -6 0 -11 8 -11 17 0 9 -3 13 -7 9 -8 -8
-93 73 -93 90 0 7 -7 15 -16 18 -9 4 -14 9 -11 12 3 3 -33 43 -79 90 -46 46
-84 88 -84 92 0 5 -37 46 -82 92 -46 46 -82 87 -80 92 1 4 -5 8 -13 8 -8 0
-15 4 -15 9 0 5 -11 19 -25 32 -31 30 -32 57 -2 69 12 5 18 9 14 9 -4 1 10 20
32 42 25 26 44 38 52 34 8 -5 10 -4 5 4 -5 7 7 26 28 47 20 20 36 39 36 42 0
3 18 23 40 43 33 31 62 41 78 29z"/>
<path id="16" fill="#ffffff" stroke="none" d="M3102 3715 c30 -33 76 -83 104 -111 27
-29 59 -65 72 -80 13 -16 51 -59 85 -95 59 -63 184 -209 199 -232 4 -6 10 -9
13 -5 7 6 75 -57 75 -70 0 -5 16 -24 36 -43 37 -35 84 -116 84 -145 0 -9 9
-31 19 -48 19 -30 76 -191 85 -238 2 -12 11 -48 20 -78 9 -30 17 -73 19 -96 2
-23 7 -45 10 -50 10 -17 27 -154 30 -246 1 -32 5 -58 8 -58 3 0 5 -10 3 -22
-1 -13 -3 -23 -4 -23 -1 0 -3 -22 -5 -50 -2 -27 -5 -57 -8 -65 -27 -103 -54
-149 -78 -134 -7 4 -9 3 -6 -3 3 -5 -12 -17 -33 -27 -35 -15 -45 -16 -77 -4
-72 25 -150 74 -159 101 -3 9 -9 17 -13 17 -12 0 -101 88 -101 100 0 5 -6 13
-14 17 -15 9 -41 54 -38 65 1 5 -2 8 -8 8 -5 0 -10 6 -10 13 0 6 -13 26 -28
42 -27 29 -48 63 -100 155 -45 82 -106 185 -112 190 -10 8 -63 124 -63 138 0
6 -5 12 -10 12 -6 0 -7 3 -4 6 3 4 1 16 -5 28 -7 11 -11 25 -10 30 2 4 -3 14
-9 22 -6 8 -9 14 -5 14 4 0 0 13 -8 29 -9 16 -12 31 -9 34 3 4 1 12 -4 19 -6
7 -15 33 -21 58 -24 101 -56 215 -61 220 -16 12 -42 240 -46 395 -3 140 -1
174 11 193 8 12 19 20 24 17 4 -3 23 13 40 35 21 26 36 37 45 33 7 -5 37 -35
67 -68z"/>
<path id="17" fill="#ffffff" stroke="none" d="M2893 3475 c4 -99 14 -220 22 -268 9
-48 13 -92 10 -97 -3 -6 -2 -10 3 -10 5 0 12 -18 16 -39 3 -22 9 -41 14 -43 6
-3 51 -159 56 -198 1 -8 7 -25 14 -36 6 -12 8 -24 5 -28 -3 -3 -2 -6 3 -6 5 0
10 -8 11 -17 1 -10 7 -31 14 -48 7 -16 13 -32 13 -35 5 -20 41 -106 47 -110 4
-3 14 -23 23 -45 9 -21 21 -42 25 -45 16 -9 80 -123 75 -132 -3 -4 0 -8 5 -8
6 0 11 -4 11 -10 0 -5 20 -41 45 -80 25 -39 45 -74 45 -79 0 -5 9 -15 19 -22
11 -8 22 -24 26 -36 l6 -22 -1153 0 c-634 1 -1171 5 -1193 9 -22 4 -34 8 -27
9 6 0 12 5 12 11 0 15 33 50 42 44 4 -3 8 0 8 5 0 7 22 9 58 6 51 -3 62 -1 85
21 14 13 30 24 36 24 5 0 11 5 13 11 2 5 11 11 20 13 10 1 56 41 103 89 47 48
89 87 93 87 4 0 14 9 22 20 8 11 19 20 25 20 5 0 26 19 45 42 19 22 54 59 78
82 55 53 147 145 193 193 49 52 87 82 94 75 3 -3 5 2 5 12 0 9 3 15 8 13 4 -3
16 7 27 20 48 60 142 153 155 153 7 0 11 3 8 6 -3 3 10 22 31 42 20 21 53 58
74 82 20 24 37 41 37 36 0 -4 7 -1 15 8 8 8 15 19 15 25 0 6 3 10 8 9 14 -3
42 14 36 23 -3 5 2 9 10 9 9 0 16 7 16 15 0 8 8 15 17 15 9 0 13 3 10 7 -4 3
11 23 32 45 22 21 36 38 33 38 -4 0 7 12 23 28 16 15 31 25 34 24 2 -2 7 0 10
5 15 20 50 44 71 48 13 3 26 9 29 13 3 5 17 13 31 17 14 4 31 16 38 26 7 11
20 19 28 19 8 0 14 4 14 9 0 5 13 14 29 21 16 6 41 25 57 41 15 16 28 28 29
26 1 -1 5 -83 8 -182z"/>
<path id="18" fill="#ffffff" stroke="none" d="M2427 3588 c-2 -7 5 -21 15 -30 11 -9
19 -18 18 -20 -1 -2 3 -14 9 -28 5 -14 10 -22 10 -17 1 4 15 0 31 -8 17 -9 36
-13 43 -8 8 4 7 1 -2 -10 -7 -9 -19 -17 -25 -17 -11 0 -46 -34 -46 -45 0 -5
-38 -46 -102 -112 -59 -60 -86 -83 -98 -83 -5 0 -10 -4 -10 -8 0 -5 -19 -30
-43 -55 -65 -71 -117 -63 -162 24 -27 52 -14 79 89 183 51 52 97 92 100 89 3
-4 6 1 6 10 0 10 4 16 8 15 5 -2 23 12 41 30 18 17 36 32 40 32 4 0 14 11 21
25 7 14 19 25 27 25 7 0 13 5 13 10 0 6 5 10 11 10 6 0 9 -6 6 -12z"/>
<path id="19" fill="#ffffff" stroke="none" d="M2029 3175 c2 -10 9 -25 17 -33 8 -7
12 -18 9 -23 -4 -5 -2 -9 4 -9 5 0 17 -8 26 -17 10 -9 27 -18 39 -19 11 -1 22
-3 23 -3 1 -1 -152 -162 -185 -193 -72 -70 -182 -180 -203 -205 -21 -24 -33
-30 -60 -28 -19 2 -36 4 -39 5 -3 1 -8 2 -12 1 -13 -2 -57 95 -58 126 0 15
317 333 325 325 3 -3 5 0 5 7 0 7 5 9 10 6 6 -3 10 -2 10 3 0 16 64 82 75 78
6 -1 12 -11 14 -21z"/>
<path id="20" fill="#ffffff" stroke="none" d="M3872 2916 c37 -36 87 -76 112 -91 25
-15 46 -30 46 -33 0 -4 23 -18 51 -32 28 -14 61 -34 73 -46 11 -12 37 -28 56
-37 133 -60 203 -86 211 -82 5 4 9 2 9 -3 0 -8 55 -26 72 -24 3 1 6 -20 6 -46
0 -26 1 -49 2 -52 1 -3 3 -92 5 -197 2 -141 0 -193 -8 -193 -7 0 -6 -4 3 -10
28 -18 -14 -21 -271 -18 l-254 3 -1 45 c-2 66 -15 234 -20 241 -2 3 -6 21 -9
40 -20 120 -73 337 -101 414 -8 22 -24 67 -35 99 -10 33 -24 65 -30 73 -9 10
-8 13 3 13 7 0 44 -29 80 -64z"/>
<path id="21" fill="#ffffff" stroke="none" d="M1630 2637 c17 -15 38 -27 46 -27 10 0
5 -9 -13 -28 -15 -16 -29 -27 -31 -26 -5 3 -42 -35 -42 -43 0 -5 -19 -24 -42
-43 -23 -19 -63 -55 -89 -80 -25 -25 -56 -52 -68 -60 -11 -8 -21 -18 -21 -23
0 -11 -61 -67 -73 -67 -4 0 -15 -6 -23 -12 -55 -47 -78 -58 -120 -58 -37 0
-64 18 -64 43 0 19 32 77 43 77 5 0 6 4 3 9 -3 5 10 25 28 45 19 20 33 36 31
36 -3 0 22 27 54 61 33 34 64 58 70 55 6 -4 9 -1 5 7 -2 7 7 22 21 33 14 10
25 22 25 26 0 15 102 108 112 102 7 -4 8 -2 4 5 -5 7 8 27 31 51 l38 39 22
-48 c11 -26 35 -60 53 -74z"/>
<path id="22" fill="#ffffff" stroke="none" d="M4573 2537 c4 3 13 0 22 -7 8 -7 15 -9
15 -5 0 4 7 2 15 -5 8 -6 19 -9 25 -5 5 3 17 -1 26 -9 9 -9 19 -14 24 -11 5 3
11 1 15 -4 3 -6 12 -8 20 -4 8 3 15 1 15 -5 0 -6 9 -8 20 -5 11 3 20 1 20 -3
0 -5 10 -9 23 -10 12 0 38 -4 57 -8 19 -4 74 -12 123 -18 l87 -12 1 -345 c0
-190 1 -399 2 -463 l2 -117 -22 21 c-12 12 -20 25 -17 29 3 5 -3 9 -13 9 -15
0 -100 81 -149 141 -6 8 -41 40 -78 72 -36 32 -66 65 -66 73 0 8 -4 13 -9 10
-4 -3 -28 19 -52 49 -24 30 -47 55 -52 55 -4 0 -27 18 -51 40 l-44 40 0 248
c0 136 2 251 5 255 3 4 10 3 17 -2 7 -6 16 -8 19 -4z"/>
<path id="23" fill="#ffffff" stroke="none" d="M3398 2034 c23 -4 42 -10 42 -15 0 -4
12 -21 28 -37 15 -16 33 -38 41 -50 8 -12 18 -19 22 -17 4 3 12 -9 19 -25 7
-16 16 -28 20 -25 5 3 15 -2 23 -10 9 -8 18 -15 21 -15 3 0 17 -10 31 -22 27
-23 109 -58 136 -58 10 0 20 -11 24 -27 9 -37 16 -184 9 -208 -5 -21 -61 -22
-2805 -16 l-556 1 123 123 c67 67 128 127 136 133 7 6 51 51 98 100 47 49 109
111 139 138 l54 48 1176 -6 c647 -4 1195 -9 1219 -12z"/>
<path id="24" fill="#ffffff" stroke="none" d="M4564 1982 c27 -26 91 -90 143 -143 51
-53 111 -109 133 -124 22 -15 38 -31 35 -35 -3 -4 20 -31 50 -59 30 -29 55
-57 55 -62 0 -6 4 -8 8 -5 4 2 26 -11 47 -29 l40 -34 -555 6 c-711 7 -680 6
-680 18 0 78 -9 224 -14 236 -5 11 4 20 34 34 23 10 50 30 61 43 19 25 44 100
54 164 5 35 8 37 48 40 23 2 143 2 266 0 l225 -3 50 -47z"/>
</g>
</svg>
