<svg xmlns="http://www.w3.org/2000/svg" width="612" height="792" viewBox="0 0 612 792" version="1.1">
	<text x="0" y="50" font-family="Verdana" font-size="35" fill="blue">Produced with NPM-Potrace</text>
	<path d="M 154.392 105.817 C 154.451 106.612, 153.048 107.992, 151.273 108.882 C 149.498 109.772, 148.035 111.063, 148.023 111.750 C 148.010 112.438, 147.633 113, 147.185 113 C 145.762 113, 142.857 119.996, 144.266 120.030 C 144.975 120.048, 144.797 120.471, 143.849 121.025 C 142.802 121.636, 142.274 123.087, 142.407 124.994 C 142.521 126.647, 142.300 128, 141.916 128 C 141.182 128, 139.877 132.092, 139.523 135.500 C 138.307 147.205, 137.644 158.626, 137.579 169 L 137.500 181.500 87 181.640 L 36.500 181.781 36.536 204.140 C 36.555 216.438, 36.922 238.425, 37.350 253 C 38.381 288.103, 39.186 329.457, 39.696 373.500 C 39.925 393.300, 40.325 417.150, 40.585 426.500 C 40.845 435.850, 41.198 488.275, 41.371 543 L 41.684 642.500 73.592 642.716 C 91.141 642.835, 190.234 643.069, 293.798 643.236 C 458.781 643.501, 482.213 643.722, 483.033 645.019 C 483.663 646.015, 483.974 646.091, 483.985 645.250 C 483.993 644.563, 484.702 644, 485.559 644 C 486.416 644, 486.840 644.450, 486.500 645 C 486.103 645.643, 489.680 646, 496.512 646 C 504.639 646, 507.497 645.646, 508.646 644.497 C 509.931 643.212, 510.122 638.230, 509.960 610.247 C 509.856 592.236, 509.858 571.179, 509.965 563.454 L 510.160 549.408 523.492 549.226 C 540.352 548.996, 548.938 548.188, 559.304 545.855 C 561.946 545.261, 564.368 545.034, 564.685 545.352 C 565.003 545.670, 566.204 545.270, 567.354 544.465 C 568.504 543.659, 570.072 543, 570.839 543 C 572.045 543, 575.377 539.812, 581 533.281 C 582.025 532.091, 582.474 529.473, 582.417 525.019 C 582.350 519.806, 581.678 517.148, 579.062 511.750 C 577.263 508.038, 575.388 505, 574.895 505 C 574.403 505, 574 504.325, 574 503.500 C 574 502.675, 573.618 502, 573.152 502 C 572.685 502, 571.479 500.172, 570.472 497.938 C 569.464 495.703, 567.483 493.246, 566.070 492.478 C 564.656 491.709, 563.811 491.062, 564.192 491.040 C 564.573 491.018, 562.998 489.045, 560.692 486.655 C 558.386 484.265, 554.251 479.765, 551.502 476.655 C 548.753 473.545, 545.896 471, 545.153 471 C 544.410 471, 542.497 469.602, 540.901 467.894 C 539.306 466.186, 537.986 465.174, 537.970 465.644 C 537.953 466.115, 537.481 465.712, 536.920 464.750 C 536.359 463.788, 535.348 463, 534.673 463 C 533.339 463, 529.901 459.432, 530.581 458.753 C 530.810 458.524, 529.760 457.698, 528.248 456.918 C 526.737 456.138, 525.050 455.146, 524.500 454.714 C 523.950 454.281, 520.575 452.078, 517 449.818 C 513.425 447.557, 510.315 445.551, 510.089 445.359 C 509.738 445.062, 508.917 264.716, 508.979 201.868 L 509 181.236 463.250 181.219 C 438.087 181.210, 414.350 181.134, 410.500 181.050 C 406.650 180.967, 368.238 180.916, 325.140 180.937 C 276.947 180.961, 246.148 180.607, 245.140 180.018 C 244.238 179.492, 243.922 179.047, 244.439 179.030 C 244.955 179.014, 244.392 178.082, 243.189 176.961 C 241.985 175.840, 241 174.265, 241 173.461 C 241 172.657, 240.550 172, 240 172 C 239.450 172, 239 171.261, 239 170.358 C 239 169.455, 237.650 167.426, 236 165.850 C 234.350 164.273, 233 162.741, 233 162.446 C 233 162.151, 231.988 160.874, 230.750 159.608 C 228.182 156.982, 222.900 150.413, 221.680 148.328 C 221.228 147.557, 219.346 145.412, 217.496 143.563 C 215.647 141.713, 214.403 139.930, 214.733 139.600 C 215.063 139.270, 214.599 139, 213.702 139 C 212.012 139, 211.017 138.237, 202.310 130.256 C 195.688 124.187, 194.235 123, 193.432 123 C 193.073 123, 189.882 120.975, 186.341 118.500 C 182.801 116.025, 179.476 114, 178.952 114 C 178.428 114, 178 113.639, 178 113.198 C 178 112.756, 175.746 111.585, 172.992 110.594 C 170.237 109.604, 167.636 108.172, 167.211 107.413 C 166.783 106.648, 163.726 105.661, 160.361 105.201 C 155.324 104.512, 154.302 104.617, 154.392 105.817 M 152.063 112.172 C 149.802 114.434, 148.183 116.516, 148.467 116.800 C 148.751 117.084, 148.444 117.965, 147.785 118.759 C 146.582 120.209, 146.318 121.090, 145.507 126.357 C 145.266 127.928, 144.601 129.776, 144.030 130.464 C 142.107 132.781, 139.769 153.284, 139.806 167.500 C 139.847 183.222, 142.596 204.493, 146.525 219.500 C 147.389 222.800, 148.265 226.175, 148.471 227 C 148.678 227.825, 148.916 228.500, 149 228.500 C 149.213 228.500, 149.989 232.136, 150.228 234.250 C 150.337 235.213, 150.991 236, 151.681 236 C 152.387 236, 152.685 236.657, 152.362 237.500 C 152.045 238.326, 152.332 239, 153 239 C 153.668 239, 153.955 239.674, 153.638 240.500 C 153.322 241.325, 153.499 242, 154.031 242 C 154.564 242, 154.907 242.338, 154.793 242.750 C 154.359 244.319, 159.214 257, 160.248 257 C 160.845 257, 161.048 257.285, 160.700 257.634 C 160.057 258.276, 170.395 278.966, 171.855 279.960 C 172.292 280.257, 174.183 283.087, 176.058 286.250 C 177.933 289.413, 179.812 292, 180.234 292 C 180.655 292, 181 292.900, 181 294 C 181 295.100, 181.900 296.900, 183 298 C 184.100 299.100, 184.757 300, 184.461 300 C 183.776 300, 185.183 301.713, 191.918 309.077 C 194.898 312.335, 198.273 316.343, 199.418 317.983 C 200.563 319.623, 201.912 320.973, 202.415 320.983 C 202.919 320.992, 205.432 323.250, 208 326 C 210.568 328.750, 212.964 331, 213.323 331 C 214.613 331, 217.887 334.374, 217.385 335.185 C 217.104 335.641, 217.689 336.325, 218.687 336.704 C 219.684 337.083, 221.339 338.454, 222.364 339.750 C 223.389 341.045, 224.465 341.868, 224.755 341.578 C 225.045 341.289, 226.456 342.367, 227.891 343.974 C 229.326 345.582, 231.142 347.032, 231.927 347.198 C 232.712 347.364, 234.812 348.962, 236.594 350.750 C 238.376 352.538, 240.321 354, 240.917 354 C 241.512 354, 242 354.675, 242 355.500 C 242 356.325, 242.338 357.010, 242.750 357.023 C 243.430 357.044, 249.089 361.681, 253.084 365.490 C 253.955 366.320, 255.225 367, 255.905 367 C 256.586 367, 257.711 367.563, 258.406 368.250 C 259.101 368.938, 260.938 370.400, 262.487 371.500 C 264.037 372.600, 266.224 374.400, 267.348 375.500 C 273.707 381.722, 277.550 382.400, 281.237 377.950 C 285.235 373.124, 292.337 365.924, 298.365 360.586 C 301.418 357.883, 303.682 355.295, 303.398 354.836 C 303.114 354.376, 303.406 354, 304.045 354 C 305.178 354, 305.120 352.864, 303.374 341 C 303.091 339.075, 302.711 336.375, 302.529 335 C 302.347 333.625, 302.116 332.500, 302.016 332.500 C 301.740 332.500, 300.960 327.738, 300.914 325.770 C 300.891 324.818, 300.430 323.765, 299.888 323.431 C 299.289 323.060, 299.259 322.367, 299.812 321.661 C 300.379 320.938, 300.147 319.181, 299.198 317 C 298.360 315.075, 297.599 312.825, 297.508 312 C 297.417 311.175, 297.265 309.712, 297.171 308.750 C 297.077 307.788, 296.438 306.998, 295.750 306.996 C 295.027 306.993, 294.426 305.541, 294.325 303.555 C 294.229 301.666, 293.475 298.630, 292.650 296.810 C 291.825 294.989, 290.706 291.475, 290.164 289 C 287.757 278.011, 280.738 258.378, 279.318 258.667 C 278.868 258.758, 278.396 257.746, 278.268 256.417 C 277.741 250.928, 277.539 250, 276.875 250 C 276.026 250, 271.445 240.802, 271.769 239.750 C 271.896 239.338, 271.602 239, 271.117 239 C 270.380 239, 269.724 237.688, 268.619 234 C 268.537 233.725, 268.112 232.938, 267.676 232.250 C 267.239 231.563, 267.140 231, 267.455 231 C 267.771 231, 266.728 228.412, 265.137 225.250 C 263.547 222.088, 260.798 216.012, 259.029 211.749 C 257.260 207.486, 255.405 204.250, 254.906 204.558 C 254.408 204.866, 254 204.617, 254 204.004 C 254 202.936, 250.946 196.131, 249.062 193 C 248.565 192.175, 247.152 189.475, 245.921 187 C 241.650 178.411, 240.868 177.037, 239.920 176.451 C 239.396 176.127, 239.226 175.443, 239.543 174.931 C 239.859 174.419, 239.738 174, 239.275 174 C 238.811 174, 237.629 172.642, 236.649 170.982 C 235.668 169.323, 234.435 168.231, 233.908 168.557 C 233.381 168.882, 233.074 168.731, 233.225 168.221 C 233.857 166.088, 206.017 134.316, 204.684 135.649 C 204.519 135.814, 202.037 133.711, 199.168 130.975 C 196.300 128.239, 193.735 126, 193.468 126 C 193.201 126, 191.074 124.610, 188.741 122.912 C 181.652 117.750, 171.035 111.860, 169.988 112.508 C 169.444 112.843, 169 112.672, 169 112.126 C 169 110.877, 164.988 109.435, 158.838 108.475 C 156.757 108.150, 155.278 108.957, 152.063 112.172 M 256.750 182.786 C 247.053 183.071, 245.636 183.623, 248.500 186 C 249.325 186.685, 250 187.851, 250 188.592 C 250 190.301, 253.981 198, 254.865 198 C 255.628 198, 258.979 205.009, 262.036 213 C 263.193 216.025, 265.195 220.400, 266.485 222.723 C 267.774 225.046, 269.129 228.309, 269.494 229.973 C 269.860 231.638, 270.611 233, 271.163 233 C 271.715 233, 271.981 233.558, 271.753 234.241 C 270.519 237.944, 271.316 237.978, 362.168 238.023 L 450.500 238.067 454.317 233.783 C 459.461 228.010, 459.026 228.455, 463.232 224.663 C 465.285 222.812, 467.131 221.465, 467.336 221.669 C 467.540 221.873, 470.262 219.219, 473.384 215.770 C 476.507 212.322, 479.560 209.050, 480.169 208.500 C 485.624 203.577, 505.103 183.770, 504.794 183.460 C 504.329 182.996, 271.192 182.362, 256.750 182.786 M 43.584 187.225 C 45.709 189.576, 47.459 191.303, 47.473 191.062 C 47.488 190.822, 51.775 195.059, 57 200.479 C 62.225 205.899, 67.175 210.937, 68 211.676 C 68.825 212.414, 71.144 214.476, 73.153 216.259 C 81.088 223.299, 88.741 230.926, 88.307 231.360 C 88.055 231.611, 88.858 232.137, 90.090 232.529 C 91.323 232.920, 93.436 234.553, 94.787 236.159 L 97.243 239.077 123.121 238.949 C 147.017 238.831, 149 238.687, 149 237.077 C 149 236.118, 148.691 235.024, 148.313 234.646 C 147.935 234.268, 147.516 233.181, 147.381 232.230 C 147.134 230.492, 146.322 226.932, 145.958 226 C 145.851 225.725, 145.816 225.162, 145.882 224.750 C 145.947 224.338, 145.523 224, 144.941 224 C 144.359 224, 144.172 223.530, 144.527 222.956 C 144.882 222.382, 144.741 221.370, 144.215 220.706 C 143.688 220.043, 143.384 218.713, 143.540 217.750 C 143.696 216.787, 143.453 216, 143 216 C 142.547 216, 142.304 215.213, 142.459 214.250 C 142.614 213.287, 142.495 212.077, 142.194 211.560 C 141.893 211.043, 141.546 209.109, 141.423 207.262 C 141.211 204.102, 139.733 194.838, 138.189 187 L 137.500 183.500 88.611 183.225 L 39.722 182.950 43.584 187.225 M 38.493 220.616 C 38.833 240.480, 39.266 259.605, 39.455 263.116 C 39.644 266.627, 39.889 275.445, 40 282.711 L 40.202 295.923 44.528 295.836 C 46.908 295.788, 52.923 296.997, 57.895 298.522 L 66.934 301.295 70.444 297.398 C 72.374 295.254, 73.964 293.169, 73.977 292.763 C 74.009 291.728, 81.035 288.904, 82.037 289.523 C 82.491 289.803, 83.163 289.545, 83.532 288.948 C 83.901 288.352, 84.788 288.088, 85.503 288.363 C 86.219 288.638, 87.112 288.556, 87.488 288.181 C 87.863 287.806, 90.045 287.498, 92.335 287.496 L 96.500 287.492 96.325 263.722 L 96.151 239.952 92.903 237.226 C 88.509 233.538, 86.073 231.136, 82.393 226.863 C 80.684 224.879, 76.859 221.275, 73.893 218.854 C 70.927 216.433, 63.550 209.595, 57.500 203.659 C 51.450 197.722, 44.559 190.983, 42.187 188.683 L 37.874 184.500 38.493 220.616 M 505 187 C 503.900 188.100, 502.550 189, 502 189 C 501.450 189, 501 189.455, 501 190.012 C 501 191.050, 492.593 199.733, 485.486 206.035 C 483.294 207.979, 478.012 213.238, 473.750 217.722 C 469.488 222.205, 466 225.730, 466 225.554 C 466 225.379, 462.793 228.445, 458.873 232.367 L 451.746 239.500 451.836 274.500 C 451.886 293.750, 451.958 333.212, 451.997 362.193 L 452.067 414.887 454.284 415.578 C 455.503 415.958, 456.780 416.704, 457.121 417.235 C 457.839 418.351, 468.859 422.988, 470.809 422.995 C 471.529 422.998, 471.891 423.367, 471.614 423.816 C 471.336 424.265, 476.485 427.229, 483.055 430.403 C 489.625 433.577, 495 436.533, 495 436.973 C 495 437.642, 501.402 441.263, 503 441.497 C 503.275 441.538, 504.513 442.134, 505.752 442.822 L 508.004 444.072 507.953 314.536 C 507.925 243.291, 507.699 185, 507.451 185 C 507.203 185, 506.100 185.900, 505 187 M 305.035 239.765 C 287.407 239.924, 275.174 240.426, 274.585 241.015 C 273.938 241.662, 274.184 242, 275.300 242 C 276.235 242, 277.056 242.675, 277.125 243.500 C 277.319 245.834, 277.484 246.344, 278.821 248.750 C 279.508 249.988, 279.778 251, 279.420 251 C 279.063 251, 279.507 252.125, 280.408 253.500 C 281.309 254.875, 281.802 256, 281.503 256 C 281.204 256, 281.961 257.913, 283.184 260.250 C 284.408 262.587, 285.450 264.725, 285.500 265 C 286.373 269.823, 288.581 275.759, 289.331 275.296 C 289.869 274.963, 289.999 275.192, 289.621 275.805 C 289.242 276.417, 289.356 277.724, 289.874 278.709 C 290.392 279.694, 291.762 283.851, 292.917 287.946 C 294.072 292.042, 295.396 295.642, 295.860 295.946 C 296.323 296.251, 296.940 297.625, 297.230 299 C 297.521 300.375, 298.919 306, 300.337 311.500 C 303.208 322.632, 304.075 326.844, 304.555 332 C 304.735 333.925, 304.966 335.500, 305.069 335.500 C 305.321 335.500, 305.972 339.973, 306.125 342.768 C 306.264 345.290, 308 346.996, 308 344.610 C 308 343.780, 309.624 341.863, 311.608 340.349 C 314.489 338.153, 316.374 337.567, 320.952 337.450 C 324.106 337.369, 328.176 336.560, 329.997 335.651 C 333.806 333.751, 336 333.536, 336 335.063 C 336 335.647, 336.788 336.006, 337.750 335.860 C 338.712 335.714, 341.192 336.415, 343.261 337.416 L 347.021 339.238 352.182 334.369 C 355.020 331.691, 362.345 324.550, 368.460 318.500 C 374.574 312.450, 382.958 304.307, 387.090 300.405 C 391.223 296.503, 394.430 292.791, 394.218 292.155 C 394.007 291.520, 394.433 290.986, 395.167 290.968 C 396.839 290.929, 402 286.457, 402 285.048 C 402 284.472, 402.340 284, 402.757 284 C 403.975 284, 413.012 275.599, 413.006 274.473 C 412.999 273.245, 418.797 268, 420.162 268 C 420.688 268, 420.840 267.550, 420.500 267 C 420.160 266.450, 420.363 266, 420.951 266 C 421.540 266, 427.922 260.157, 435.135 253.016 L 448.250 240.033 391.375 239.766 C 360.094 239.620, 321.241 239.619, 305.035 239.765 M 98.745 240.589 C 98.202 241.131, 99.008 285.341, 99.571 285.904 C 99.846 286.179, 102.642 286.519, 105.785 286.659 C 108.928 286.799, 113.525 287.159, 116 287.460 C 118.475 287.760, 121.287 288.033, 122.250 288.065 C 123.213 288.098, 124 288.517, 124 288.996 C 124 289.475, 125.013 289.695, 126.250 289.484 C 129.348 288.956, 135.165 290.291, 134.800 291.445 C 134.451 292.544, 129 293, 129 291.930 C 129 291.535, 127.987 291.186, 126.750 291.155 C 123.648 291.076, 120.654 290.520, 119.482 289.807 C 118.942 289.477, 117.264 289.346, 115.754 289.515 C 114.244 289.685, 112.812 289.505, 112.573 289.117 C 112.103 288.358, 100.046 288.576, 93.500 289.462 C 88.428 290.149, 84.642 290.776, 84 291.035 C 83.725 291.146, 83.115 291.168, 82.645 291.083 C 82.174 290.999, 81.162 291.451, 80.395 292.087 C 79.628 292.724, 79 292.896, 79 292.469 C 79 292.043, 78.160 292.663, 77.133 293.847 C 76.106 295.031, 74.767 296, 74.158 296 C 71.764 296, 69.807 302.088, 70.342 307.873 C 70.949 314.437, 71.901 318, 73.049 318 C 73.498 318, 74.170 318.959, 74.542 320.131 C 75.232 322.305, 77.981 325.709, 83.717 331.491 C 85.486 333.274, 86.654 335.012, 86.313 335.354 C 85.972 335.695, 87.321 336.654, 89.310 337.485 C 91.300 338.317, 93.417 339.910, 94.014 341.026 C 94.612 342.143, 95.528 342.792, 96.050 342.469 C 96.573 342.146, 97 342.307, 97 342.826 C 97 343.883, 110.010 352, 111.703 352 C 112.299 352, 113.056 352.704, 113.386 353.563 C 113.716 354.423, 114.416 354.861, 114.943 354.535 C 115.469 354.210, 116.385 354.851, 116.979 355.960 C 117.572 357.069, 119.170 358.255, 120.529 358.597 C 121.888 358.938, 123 359.563, 123 359.985 C 123 360.408, 125.254 361.723, 128.010 362.909 C 130.765 364.094, 136.902 366.866, 141.648 369.069 C 146.395 371.272, 150.774 372.909, 151.380 372.707 C 151.986 372.505, 153.033 372.825, 153.706 373.420 C 156.997 376.324, 157.834 376.833, 158.393 376.273 C 158.727 375.940, 159 376.218, 159 376.892 C 159 377.566, 159.450 377.840, 160 377.500 C 160.550 377.160, 161 377.284, 161 377.774 C 161 378.265, 161.563 378.706, 162.250 378.753 C 164.541 378.911, 167.848 379.849, 169.797 380.892 C 170.857 381.459, 173.198 382.183, 175 382.500 C 176.802 382.817, 179.046 383.489, 179.988 383.993 C 181.535 384.821, 186.741 386.431, 201.500 390.646 C 215.135 394.539, 248.186 396.653, 261.230 394.467 C 265.666 393.723, 270.657 389.873, 269.537 388.059 C 269.153 387.439, 269.519 387.262, 270.448 387.618 C 271.454 388.004, 272 387.648, 272 386.607 C 272 385.723, 272.450 385, 273 385 C 274.679 385, 274.113 383.171, 272.250 382.576 C 271.288 382.268, 268.398 380.100, 265.828 377.758 C 260.005 372.451, 256.831 370, 255.781 370 C 254.636 370, 240.836 358.927, 236.257 354.333 C 234.155 352.225, 230.343 348.887, 227.784 346.916 C 217.501 338.992, 195 317.898, 195 316.182 C 195 315.532, 194.433 315, 193.741 315 C 193.048 315, 191.913 314.090, 191.218 312.977 C 190.523 311.865, 187.469 309.855, 184.431 308.512 C 178.259 305.783, 152.432 297.265, 148.824 296.769 C 147.546 296.593, 146.006 296.139, 145.403 295.760 C 144.799 295.381, 142.426 294.942, 140.129 294.785 C 137.037 294.574, 136.034 294.111, 136.265 293 C 136.489 291.923, 137.677 291.568, 140.474 291.742 C 142.618 291.875, 144.625 292.387, 144.936 292.880 C 145.536 293.835, 153 296.153, 153 295.384 C 153 295.134, 153.816 295.366, 154.812 295.900 C 155.809 296.433, 162.220 298.511, 169.059 300.517 C 175.899 302.524, 182.069 304.642, 182.771 305.225 C 185.337 307.355, 184.807 305.326, 181.529 300.473 C 179.682 297.738, 178.349 295.321, 178.567 295.102 C 178.785 294.882, 178.042 293.904, 176.916 292.927 C 175.790 291.951, 174.898 290.892, 174.934 290.576 C 175.152 288.672, 174.814 287.814, 173.223 286.223 C 171.007 284.007, 165 274.322, 165 272.965 C 165 272.412, 163.977 270.282, 162.727 268.230 C 161.477 266.179, 159.933 263.375, 159.295 262 C 156.627 256.249, 154.965 252.254, 153.555 248.208 C 150.892 240.565, 151.875 240.821, 124.012 240.515 C 110.306 240.364, 98.936 240.397, 98.745 240.589 M 444.697 245.914 C 442.752 248.066, 440.962 249.629, 440.720 249.387 C 440.477 249.144, 438.987 250.645, 437.408 252.723 C 435.829 254.800, 433.403 257.549, 432.018 258.830 C 430.633 260.112, 427.135 263.374, 424.244 266.080 C 421.354 268.786, 418.541 271, 417.994 271 C 417.447 271, 417 271.571, 417 272.268 C 417 273.679, 407.191 284, 405.850 284 C 405.383 284, 405 284.430, 405 284.955 C 405 285.480, 403.875 287.034, 402.500 288.409 C 401.125 289.784, 400 290.690, 400 290.421 C 400 290.153, 396.026 293.886, 391.169 298.717 C 386.313 303.548, 380.800 308.860, 378.919 310.522 C 377.039 312.184, 373.688 315.559, 371.473 318.022 C 369.258 320.485, 364.611 325.049, 361.146 328.165 C 357.681 331.281, 354.769 334.191, 354.673 334.631 C 354.578 335.071, 352.925 336.897, 351 338.689 C 349.075 340.480, 348.063 341.958, 348.750 341.973 C 349.438 341.988, 350 342.482, 350 343.071 C 350 343.661, 350.675 344.818, 351.500 345.643 C 353.453 347.596, 353.492 357.148, 351.562 360.880 C 350.771 362.409, 350.160 364.975, 350.204 366.580 C 350.248 368.186, 349.333 371.584, 348.171 374.132 C 346.076 378.724, 343.782 380.602, 341.780 379.364 C 341.200 379.005, 340.940 379.320, 341.192 380.077 C 341.441 380.823, 343.187 381.516, 345.072 381.618 C 346.957 381.720, 349.850 382.075, 351.500 382.406 C 353.150 382.737, 355.625 383.197, 357 383.429 C 362.211 384.306, 364.676 384.870, 370.500 386.518 C 373.800 387.452, 378.300 388.634, 380.500 389.145 C 389.765 391.296, 404.895 396.361, 404.408 397.149 C 404.119 397.617, 404.597 398, 405.471 398 C 406.345 398, 409.767 399.139, 413.075 400.531 C 416.383 401.924, 419.519 402.797, 420.045 402.472 C 420.570 402.148, 421 402.248, 421 402.696 C 421 403.537, 426.895 405.841, 430.595 406.447 C 431.748 406.636, 433.548 407.254, 434.595 407.822 C 437.002 409.126, 439.943 410.194, 442.457 410.675 C 443.533 410.882, 444.763 411.602, 445.191 412.275 C 445.619 412.949, 445.976 413.107, 445.985 412.628 C 445.993 412.148, 446.635 412.282, 447.411 412.926 C 448.491 413.823, 448.996 413.815, 449.566 412.893 C 449.976 412.230, 450.272 392.971, 450.224 370.094 C 450.176 347.217, 450.089 309.038, 450.030 285.250 C 449.971 261.462, 449.542 242, 449.078 242 C 448.613 242, 446.642 243.761, 444.697 245.914 M 40.416 310.250 C 40.708 316.988, 41.238 348.825, 41.593 381 C 42.318 446.687, 42.329 447.106, 43.478 448.965 C 43.953 449.733, 43.921 450.069, 43.405 449.750 C 42.875 449.422, 42.616 455.889, 42.781 465.345 C 42.935 474.230, 43.084 516.752, 43.112 559.838 L 43.163 638.176 45.787 637.517 C 47.230 637.155, 48.946 636.103, 49.600 635.179 C 50.254 634.256, 55.023 629.099, 60.197 623.719 C 65.372 618.340, 69.357 613.655, 69.053 613.309 C 68.749 612.963, 68.971 612.946, 69.546 613.273 C 70.518 613.824, 74.229 610.249, 84.650 598.724 C 86.933 596.200, 89 594.333, 89.243 594.576 C 89.486 594.820, 91.852 592.666, 94.500 589.791 L 99.315 584.565 98.592 471.032 C 98.194 408.590, 97.922 354.913, 97.987 351.750 C 98.060 348.207, 97.688 346, 97.019 346 C 96.421 346, 94.613 344.650, 93 343 C 91.387 341.350, 89.458 340, 88.714 340 C 87.970 340, 86.382 338.875, 85.187 337.500 C 83.991 336.125, 83.323 335, 83.702 335 C 84.081 335, 82.728 333.477, 80.695 331.615 C 78.663 329.753, 77 327.977, 77 327.667 C 77 327.357, 75.864 325.877, 74.476 324.379 C 73.088 322.881, 71.689 320.608, 71.367 319.328 C 71.046 318.048, 70.216 317, 69.522 317 C 68.231 317, 67.031 311.931, 67.011 306.396 C 67 303.397, 66.743 303.215, 59.427 301.043 C 55.261 299.807, 50.761 299.004, 49.427 299.259 C 48.092 299.514, 47 299.335, 47 298.861 C 47 298.388, 45.399 298, 43.442 298 L 39.885 298 40.416 310.250 M 329.658 338.676 C 329.286 339.048, 329.965 340.398, 331.166 341.677 C 333.415 344.071, 334.079 349.002, 332.589 352.250 C 331.896 353.761, 332.340 354, 335.834 354 C 338.060 354, 340.160 354.450, 340.500 355 C 340.840 355.550, 341.814 356, 342.665 356 C 343.516 356, 345.122 357.157, 346.235 358.571 C 349.352 362.534, 350.729 359.511, 350.153 349.973 C 349.999 347.427, 344.379 340.288, 343.343 341.323 C 343.037 341.629, 341.850 341.007, 340.705 339.940 C 338.653 338.028, 331.163 337.171, 329.658 338.676 M 316.226 340.661 C 314.211 341.090, 309.525 346.076, 309.485 347.834 C 309.476 348.200, 309.122 349.046, 308.698 349.714 C 308.244 350.428, 308.765 351.765, 309.964 352.964 C 311.084 354.084, 311.709 355, 311.354 355 C 310.999 355, 311.922 356.125, 313.405 357.500 C 316.343 360.223, 320.344 360.712, 324.434 358.848 C 326.734 357.800, 328.694 354.625, 328.198 352.750 C 328.089 352.337, 328.487 352, 329.083 352 C 329.679 352, 329.965 351.438, 329.718 350.750 C 329.472 350.063, 329.661 348.739, 330.138 347.810 C 331.567 345.028, 327.284 340.945, 322.498 340.527 C 320.299 340.334, 317.477 340.395, 316.226 340.661 M 100.595 348.847 C 100.234 349.430, 100.037 366.916, 100.157 387.704 C 100.277 408.492, 100.403 460.712, 100.438 503.750 C 100.472 546.787, 100.693 582, 100.929 582 C 101.165 582, 102.829 580.394, 104.628 578.430 C 107.308 575.504, 107.738 574.442, 107.014 572.538 C 105.881 569.556, 106.737 566.095, 109.312 563.250 C 110.432 562.013, 111.050 561, 110.684 561 C 109.813 561, 112 558.363, 120.500 549.167 C 131.028 537.776, 131.823 537, 132.955 537 C 133.530 537, 134 536.455, 134 535.790 C 134 535.124, 137.129 531.578, 140.953 527.910 C 144.778 524.241, 147.710 521.043, 147.469 520.803 C 147.229 520.562, 149.387 518.289, 152.266 515.751 C 159.928 508.997, 169.186 500, 168.474 500 C 168.135 500, 168.532 499.325, 169.357 498.500 C 170.182 497.675, 171.111 497, 171.422 497 C 172.226 497, 190 478.936, 190 478.119 C 190 477.746, 190.962 476.780, 192.138 475.971 C 194.161 474.579, 206.673 462.289, 210.089 458.338 C 210.963 457.327, 216.025 452.400, 221.339 447.389 C 226.652 442.378, 231 437.765, 231 437.139 C 231 436.513, 231.653 436, 232.450 436 C 233.248 436, 234.359 435.212, 234.920 434.250 C 235.481 433.288, 235.953 432.846, 235.970 433.268 C 236.024 434.647, 242.862 427.011, 243.570 424.780 C 244.232 422.695, 249.813 413.032, 250.951 412 C 251.255 411.725, 252.133 410.278, 252.902 408.784 C 253.672 407.290, 254.603 406.255, 254.972 406.483 C 255.341 406.711, 256.459 405.908, 257.457 404.699 C 258.455 403.489, 260.222 401.446, 261.385 400.158 L 263.500 397.815 253 398.564 C 240.529 399.454, 242.689 399.457, 231 398.530 C 225.775 398.115, 221.275 397.443, 221 397.037 C 220.725 396.630, 217.555 396.003, 213.955 395.642 C 210.356 395.281, 204.056 394.045, 199.955 392.894 C 195.855 391.742, 191.825 390.655, 191 390.477 C 190.175 390.299, 189.387 390.062, 189.250 389.952 C 189.113 389.841, 188.662 389.655, 188.250 389.539 C 187.838 389.422, 186.825 389.045, 186 388.699 C 183.664 387.721, 175.667 384.940, 174 384.526 C 173.175 384.321, 172.500 384.085, 172.500 384.002 C 172.500 383.919, 171.395 383.648, 170.043 383.400 C 168.692 383.152, 167.342 382.623, 167.043 382.225 C 166.745 381.826, 165.825 381.345, 165 381.155 C 161.316 380.308, 160.213 379.974, 155.542 378.289 C 152.816 377.305, 149.778 375.712, 148.792 374.750 C 147.807 373.788, 146.541 373, 145.980 373 C 144.945 373, 129.336 366.011, 125.297 363.739 C 118.064 359.671, 111.432 355.636, 111 355.042 C 110.725 354.664, 109.825 354.032, 109 353.638 C 105.472 351.953, 102.679 350.099, 101.990 348.984 C 101.485 348.167, 101.042 348.123, 100.595 348.847 M 301.906 361.505 C 298.968 364.527, 296.119 367, 295.574 367 C 295.029 367, 292.396 369.363, 289.724 372.250 C 287.051 375.137, 281.408 381.116, 277.182 385.536 C 269.434 393.642, 263.863 400.197, 258.676 407.312 C 257.123 409.443, 255.593 410.926, 255.275 410.608 C 254.391 409.724, 251.920 415.062, 252.660 416.259 C 253.030 416.857, 252.832 417.014, 252.199 416.623 C 250.666 415.676, 245.605 426.585, 245.528 431 C 245.481 433.729, 246.273 435.319, 249.125 438.220 C 252.353 441.502, 253.237 441.887, 256.641 441.499 C 263.170 440.755, 265.233 440.125, 267.407 438.212 C 269.930 435.991, 274.758 432.934, 275.548 433.056 C 276.538 433.209, 285.272 425.868, 291.338 419.785 C 294.549 416.565, 298.258 413.222, 299.580 412.356 C 300.901 411.490, 301.692 410.311, 301.337 409.736 C 300.982 409.161, 301.161 408.981, 301.736 409.337 C 303.069 410.160, 309.136 404.029, 308.310 402.692 C 307.969 402.142, 308.165 401.984, 308.745 402.342 C 309.793 402.990, 316 396.741, 316 395.039 C 316 394.548, 316.563 394.001, 317.250 393.823 C 318.916 393.392, 330 381.607, 330 380.267 C 330 379.688, 329.349 378.964, 328.552 378.658 C 325.682 377.557, 323.742 372, 324.427 366.841 L 325.069 362 319.569 362 C 314.886 362, 313.563 361.555, 310.658 359.005 L 307.247 356.009 301.906 361.505 M 331.321 359.195 C 329.164 360.232, 327.329 363.636, 326.845 367.500 C 326.468 370.509, 327.924 375.165, 329.029 374.482 C 329.563 374.152, 330 374.531, 330 375.324 C 330 377.496, 336.424 379.284, 338.645 377.731 C 339.274 377.290, 340.174 376.999, 340.645 377.083 C 342.884 377.485, 343.818 376.718, 345.312 373.250 C 347.874 367.306, 347.834 364.642, 345.129 361.125 C 343.726 359.301, 342.166 358.680, 338.401 358.449 C 335.706 358.284, 332.520 358.620, 331.321 359.195 M 328.990 385.895 C 326.796 387.942, 325 389.883, 325 390.208 C 325 390.534, 323.391 392.409, 321.425 394.375 C 319.313 396.487, 318.149 398.432, 318.580 399.129 C 319.055 399.898, 318.877 400.042, 318.069 399.542 C 317.283 399.057, 315.379 400.284, 312.877 402.888 C 310.704 405.150, 309.280 407.029, 309.713 407.063 C 310.146 407.098, 309.488 407.534, 308.250 408.031 C 305.313 409.212, 305.419 411.916, 308.517 414.855 C 309.883 416.150, 311 417.613, 311 418.105 C 311 418.597, 311.675 419, 312.500 419 C 313.325 419, 313.887 419.366, 313.750 419.813 C 313.613 420.260, 317.212 424.385, 321.750 428.978 C 326.288 433.572, 330 437.712, 330 438.179 C 330 438.646, 333.784 442.813, 338.410 447.438 C 343.035 452.063, 346.570 456.096, 346.266 456.400 C 345.962 456.704, 346.453 457.237, 347.357 457.583 C 348.261 457.930, 349 458.747, 349 459.399 C 349 461.053, 357.467 469.199, 358.311 468.356 C 358.690 467.977, 359 468.417, 359 469.333 C 359 470.250, 359.482 471, 360.071 471 C 361.483 471, 364 473.555, 364 474.988 C 364 475.609, 364.450 475.840, 365 475.500 C 365.550 475.160, 366 475.372, 366 475.971 C 366 477.491, 376.009 487.561, 377.186 487.225 C 377.715 487.074, 377.862 487.415, 377.511 487.982 C 377.160 488.550, 377.599 489.293, 378.485 489.633 C 379.372 489.973, 381.339 491.432, 382.857 492.876 C 384.374 494.319, 386.490 496.256, 387.558 497.180 C 388.626 498.103, 390.007 499.453, 390.627 500.180 C 392.531 502.409, 395.999 505.023, 396.015 504.240 C 396.024 503.833, 396.438 504.143, 396.935 504.930 C 397.433 505.716, 398.630 506.475, 399.595 506.617 C 400.560 506.759, 401.728 507.550, 402.190 508.376 C 402.966 509.762, 417.730 519.500, 419.056 519.500 C 419.379 519.500, 420.364 520.221, 421.246 521.103 C 422.128 521.985, 425.471 523.755, 428.675 525.036 C 431.879 526.318, 435.415 527.947, 436.534 528.656 C 437.652 529.366, 439.677 530.150, 441.034 530.399 C 442.390 530.648, 443.725 530.938, 444 531.044 C 444.275 531.150, 444.837 531.184, 445.250 531.118 C 445.663 531.053, 446 531.477, 446 532.059 C 446 532.641, 446.450 532.840, 447 532.500 C 447.550 532.160, 448 532.262, 448 532.727 C 448 533.191, 448.788 533.650, 449.750 533.745 C 453.754 534.142, 458 535.275, 458 535.947 C 458 536.343, 458.563 536.691, 459.250 536.720 C 463.583 536.905, 476.386 540.007, 477.015 541.024 C 478.445 543.338, 506.606 547.571, 508.747 545.795 C 509.630 545.063, 510 545.101, 510 545.926 C 510 547.279, 531.163 547.263, 544.630 545.900 C 555.299 544.820, 567.412 542.263, 567.833 541.002 C 568.016 540.451, 568.622 540, 569.179 540 C 573.792 540, 580.991 528.950, 580.338 522.873 C 579.986 519.601, 577.926 514.060, 575.923 511 C 575.384 510.175, 574.678 508.712, 574.354 507.750 C 574.031 506.788, 573.390 506, 572.930 506 C 572.470 506, 571.355 504.442, 570.451 502.538 C 568.828 499.119, 567.026 496.974, 556.375 485.782 C 553.382 482.638, 551.040 479.938, 551.171 479.782 C 551.618 479.253, 545.503 473.532, 544.743 473.768 C 544.327 473.898, 542.672 472.748, 541.065 471.212 C 539.458 469.677, 535.655 466.638, 532.614 464.460 C 529.574 462.282, 526.811 459.712, 526.475 458.750 C 526.140 457.788, 525.051 457, 524.055 457 C 523.059 457, 521.657 456.292, 520.939 455.427 C 520.221 454.562, 517.898 452.968, 515.775 451.885 C 513.653 450.803, 511.019 449.019, 509.922 447.922 C 508.825 446.825, 507.493 446.195, 506.964 446.523 C 506.434 446.850, 506 446.694, 506 446.176 C 506 445.272, 502.310 443.667, 500.750 443.892 C 500.337 443.951, 500 443.523, 500 442.941 C 500 442.359, 499.556 442.156, 499.013 442.492 C 498.470 442.828, 497.035 442.179, 495.824 441.051 C 494.614 439.923, 493.006 439, 492.252 439 C 491.499 439, 491.115 438.624, 491.399 438.164 C 491.683 437.704, 485.972 434.396, 478.708 430.812 C 458.419 420.803, 456.729 420.049, 455.834 420.602 C 455.375 420.886, 455 420.615, 455 420 C 455 419.385, 454.550 419.160, 454 419.500 C 453.450 419.840, 453 419.641, 453 419.059 C 453 418.477, 452.508 418, 451.908 418 C 451.307 418, 449.679 417.106, 448.290 416.014 C 446.901 414.921, 445.368 414.273, 444.882 414.573 C 444.397 414.873, 444 414.615, 444 414 C 444 413.385, 443.550 413.160, 443 413.500 C 442.450 413.840, 442 413.681, 442 413.148 C 442 412.614, 441.212 412.298, 440.250 412.447 C 439.288 412.595, 438.228 412.298, 437.897 411.786 C 437.565 411.275, 436.215 410.691, 434.897 410.489 C 432.335 410.096, 419.959 405.874, 408.500 401.483 C 404.650 400.007, 400.600 398.546, 399.500 398.236 C 398.400 397.925, 396.498 397.025, 395.273 396.235 C 394.047 395.446, 391.572 394.446, 389.773 394.015 C 387.973 393.583, 382.096 392.037, 376.713 390.579 C 371.331 389.121, 366.531 388.172, 366.049 388.470 C 365.566 388.768, 365.020 388.569, 364.835 388.026 C 364.651 387.484, 362.700 386.855, 360.500 386.628 C 358.300 386.401, 355.150 385.861, 353.500 385.428 C 351.850 384.994, 348.925 384.544, 347 384.427 C 345.075 384.310, 343.387 384.110, 343.250 383.982 C 343.113 383.854, 341.650 383.637, 340 383.500 C 338.350 383.363, 336.887 383.159, 336.750 383.048 C 335.162 381.768, 332.284 382.824, 328.990 385.895 M 298.998 417.003 C 297.252 419.207, 295.434 420.768, 294.956 420.473 C 294.479 420.178, 293.412 420.967, 292.587 422.227 C 291.352 424.111, 291.166 427.534, 291.536 441.509 C 291.947 457.030, 294.549 479.783, 296.051 481 C 296.630 481.469, 299.815 492.905, 302.178 503 C 302.757 505.475, 303.693 508.073, 304.258 508.774 C 304.823 509.475, 305.014 510.320, 304.682 510.651 C 304.351 510.982, 304.748 512.547, 305.566 514.127 C 306.383 515.707, 306.760 517, 306.403 517 C 306.047 517, 306.276 517.628, 306.913 518.395 C 307.549 519.162, 307.959 520.174, 307.823 520.645 C 307.686 521.115, 308.105 522.453, 308.752 523.619 C 309.400 524.784, 309.645 526.021, 309.298 526.369 C 308.951 526.716, 309.117 527, 309.667 527 C 310.217 527, 310.679 527.563, 310.694 528.250 C 310.724 529.596, 316.019 541.173, 316.983 542 C 317.576 542.509, 323.690 552.842, 328.225 561 C 333.363 570.244, 335.513 573.580, 338.215 576.500 C 339.742 578.150, 340.993 580.063, 340.995 580.750 C 340.998 581.438, 341.450 582, 342 582 C 342.550 582, 342.904 582.337, 342.788 582.750 C 342.464 583.893, 345.117 588.397, 346.646 589.300 C 347.391 589.740, 348 590.520, 348 591.035 C 348 592.153, 356.947 601, 358.078 601 C 358.511 601, 359.122 601.788, 359.437 602.750 C 360.293 605.369, 368.055 610.312, 375.259 612.825 C 378.532 613.966, 379.530 613.911, 382.962 612.396 C 385.131 611.440, 386.632 610.214, 386.298 609.674 C 385.950 609.111, 386.207 609.010, 386.899 609.437 C 389.285 610.912, 391.991 606.273, 394.738 596 C 394.959 595.175, 395.290 592.250, 395.475 589.500 C 395.659 586.750, 395.891 584.500, 395.989 584.500 C 396.086 584.500, 396.279 583.487, 396.416 582.250 C 396.553 581.013, 396.403 580, 396.083 580 C 395.762 580, 395.407 577.412, 395.293 574.250 C 394.959 564.976, 393.280 551.261, 392.280 549.643 C 391.959 549.125, 391.535 546.856, 391.337 544.601 C 391.139 542.345, 390.259 538.025, 389.382 535 C 388.505 531.975, 387.594 528.444, 387.357 527.153 C 386.499 522.484, 380.804 506.427, 378.924 503.382 C 377.866 501.667, 377 499.515, 377 498.599 C 377 495.722, 372.329 487.645, 368.589 484.054 C 366.615 482.158, 365 480.261, 365 479.837 C 365 478.548, 358.178 472.156, 357.512 472.821 C 357.171 473.163, 356.578 472.939, 356.196 472.323 C 354.739 469.981, 342.239 455.358, 336.315 449.068 C 332.914 445.455, 329.089 441.212, 327.815 439.638 C 326.542 438.064, 323.279 434.464, 320.564 431.638 C 317.849 428.812, 313.192 423.800, 310.215 420.500 C 307.238 417.200, 304.211 414.162, 303.487 413.748 C 302.619 413.253, 301.089 414.362, 298.998 417.003 M 285.560 428.938 C 284.023 430.542, 281.468 432.392, 279.883 433.049 C 278.297 433.705, 277 434.638, 277 435.121 C 277 435.605, 276.351 436, 275.557 436 C 274.763 436, 273.525 436.835, 272.807 437.857 C 272.088 438.878, 270.375 440.063, 269 440.491 C 267.625 440.919, 266.242 441.669, 265.927 442.158 C 265.611 442.647, 264.312 443.247, 263.040 443.492 C 260.918 443.901, 257.382 446.295, 255.888 448.335 C 255.552 448.795, 255.091 449.020, 254.864 448.835 C 254.637 448.651, 253.117 449.738, 251.486 451.250 C 249.855 452.762, 248.818 454, 249.182 454 C 249.545 454, 248.081 455.727, 245.927 457.839 C 243.773 459.950, 242.308 461.975, 242.672 462.339 C 243.036 462.702, 242.583 463, 241.667 463 C 240.750 463, 240 463.675, 240 464.500 C 240 465.325, 239.298 466, 238.441 466 C 237.584 466, 237.131 466.403, 237.435 466.895 C 237.979 467.775, 235.220 469.470, 233.750 469.159 C 233.338 469.071, 233 469.482, 233 470.071 C 233 470.661, 232.325 471.818, 231.500 472.643 C 230.675 473.468, 230 473.791, 230 473.361 C 230 472.931, 228.313 474.573, 226.250 477.009 C 224.188 479.445, 220.859 483.111, 218.853 485.156 C 216.847 487.200, 215.460 489.127, 215.770 489.437 C 216.080 489.746, 215.718 490, 214.966 490 C 213.712 490, 204.278 499.316, 199.500 505.272 C 198.400 506.643, 197.162 507.567, 196.750 507.324 C 196.338 507.081, 196 507.659, 196 508.608 C 196 509.557, 195.753 510.087, 195.452 509.785 C 194.791 509.124, 191.041 512.142, 186.122 517.294 C 181.497 522.139, 172.304 531.323, 166.788 536.609 C 164.429 538.869, 160.925 542.577, 159 544.849 C 157.075 547.121, 155.037 548.985, 154.471 548.990 C 153.905 548.996, 152.793 549.900, 152 551 C 151.207 552.100, 150.227 553, 149.822 553 C 149.416 553, 145.224 556.914, 140.504 561.697 C 135.785 566.480, 131.162 570.506, 130.230 570.642 C 129.299 570.779, 128.378 571.366, 128.185 571.946 C 127.992 572.525, 127.401 573, 126.873 573 C 126.345 573, 124.729 574.098, 123.282 575.440 C 120.970 577.583, 119.943 577.827, 114.825 577.450 C 111.156 577.180, 109 577.409, 109 578.070 C 109 578.646, 108.630 578.890, 108.178 578.610 C 107.259 578.042, 104 581.475, 104 583.011 C 104 583.555, 103.438 584.052, 102.750 584.115 C 102.063 584.178, 103.300 584.578, 105.500 585.003 C 107.700 585.428, 161.389 585.815, 224.809 585.863 L 340.119 585.950 339.466 583.725 C 339.107 582.501, 337.956 580.883, 336.907 580.128 C 335.858 579.373, 335 578.366, 335 577.888 C 335 577.411, 332.975 573.861, 330.500 570 C 328.025 566.139, 326 562.534, 326 561.990 C 326 561.445, 325.523 561, 324.941 561 C 324.359 561, 324.111 560.630, 324.391 560.177 C 324.909 559.338, 318.468 547.939, 316.925 546.965 C 316.459 546.671, 315.335 544.646, 314.426 542.465 C 313.518 540.284, 312.465 538.275, 312.086 538 C 311.535 537.600, 307.930 529.047, 307.450 527 C 307.385 526.725, 306.773 525.150, 306.090 523.500 C 305.407 521.850, 304.786 519.712, 304.711 518.750 C 304.636 517.788, 304.145 517, 303.621 517 C 303.096 517, 302.951 516.716, 303.298 516.369 C 303.645 516.021, 303.411 514.784, 302.776 513.619 C 302.142 512.453, 301.534 510.825, 301.425 510 C 300.916 506.149, 296.435 490.463, 295.759 490.166 C 295.340 489.983, 294.715 488.070, 294.371 485.916 C 294.026 483.762, 293.325 482, 292.813 482 C 292.301 482, 292.151 481.564, 292.480 481.032 C 292.809 480.499, 292.377 476.112, 291.519 471.282 C 290.661 466.452, 289.682 454.400, 289.344 444.500 C 289.006 434.600, 288.645 426.392, 288.542 426.260 C 288.439 426.129, 287.097 427.333, 285.560 428.938 M 241 433 C 241 433.550, 240.401 434, 239.669 434 C 238.937 434, 237.736 435.125, 237 436.500 C 236.264 437.875, 235.323 439, 234.908 439 C 234.493 439, 232.686 440.462, 230.891 442.250 C 229.096 444.038, 227.262 445.387, 226.814 445.250 C 226.366 445.113, 226 445.750, 226 446.667 C 226 447.583, 225.728 448.061, 225.395 447.728 C 225.062 447.396, 220.546 451.395, 215.359 456.616 C 205.070 466.972, 203.751 469.684, 206.456 474.915 C 210.963 483.631, 216.207 484.409, 222.710 477.327 C 225.069 474.757, 227 472.282, 227 471.827 C 227 471.372, 227.466 471, 228.036 471 C 229.153 471, 231.854 468.691, 237.754 462.691 C 244.190 456.146, 248 451.982, 248 451.493 C 248 450.442, 251.524 447, 252.600 447 C 253.235 447, 254.373 446.239, 255.128 445.308 C 255.998 444.235, 256.054 443.884, 255.279 444.349 C 254.608 444.752, 252.696 444.377, 251.029 443.515 C 249.363 442.654, 247.971 442.298, 247.937 442.724 C 247.902 443.151, 247.425 442.375, 246.876 441 C 246.328 439.625, 245.936 438.353, 246.005 438.174 C 246.075 437.995, 245.272 437.095, 244.222 436.174 C 243.172 435.253, 242.505 433.938, 242.740 433.250 C 242.975 432.563, 242.679 432, 242.083 432 C 241.488 432, 241 432.450, 241 433 M 197.250 475.621 C 195.463 477.582, 194 479.621, 194 480.152 C 194 480.683, 193.550 480.840, 193 480.500 C 192.450 480.160, 192 480.434, 192 481.108 C 192 481.782, 191.759 482.092, 191.464 481.797 C 190.710 481.043, 158.997 512.787, 159.015 514.278 C 159.053 517.397, 163.480 527.067, 164.780 526.872 C 165.176 526.812, 165.725 526.867, 166 526.995 C 166.275 527.122, 168.027 527.338, 169.893 527.476 C 172.598 527.675, 173.816 527.113, 175.893 524.707 C 178.049 522.210, 189.011 511.158, 196.249 504.185 C 199.453 501.098, 214.841 485.001, 214.669 484.917 C 214.576 484.871, 213.534 484.724, 212.353 484.591 C 211.173 484.458, 209.453 483.596, 208.532 482.675 C 207.611 481.754, 206.413 481, 205.870 481 C 205.326 481, 205.138 480.586, 205.450 480.081 C 205.763 479.575, 205.388 478.531, 204.617 477.760 C 203.846 476.989, 203.055 475.528, 202.858 474.512 C 202.278 471.519, 200.707 471.829, 197.250 475.621 M 378.869 495.342 C 379.481 496.080, 380.865 499.342, 381.945 502.592 C 383.025 505.841, 384.570 510.320, 385.378 512.544 C 388.156 520.185, 393.477 541.917, 395.509 553.916 C 395.827 555.795, 396.248 557.595, 396.445 557.916 C 396.863 558.596, 398.218 575.420, 398.385 582 L 398.500 586.500 423.945 586.782 C 449.587 587.066, 453.846 586.779, 450.972 584.962 C 450.137 584.434, 450 584.024, 450.656 584.015 C 451.501 584.004, 451.720 578.836, 451.471 564.750 C 451.284 554.163, 451.063 545.275, 450.979 545 C 450.896 544.725, 450.828 542.375, 450.828 539.779 C 450.829 537.182, 450.530 535.104, 450.164 535.162 C 448.456 535.433, 443 533.646, 443 532.816 C 443 532.302, 442.584 532.139, 442.076 532.453 C 441.278 532.946, 434.349 530.258, 421 524.277 C 419.075 523.414, 416.538 521.761, 415.362 520.604 C 414.186 519.447, 410.930 517.375, 408.127 516 C 405.324 514.625, 403.024 513.205, 403.016 512.845 C 403.007 512.485, 400.948 510.987, 398.439 509.517 C 395.931 508.047, 390.887 503.954, 387.231 500.422 C 383.575 496.890, 379.947 494, 379.169 494 C 378.100 494, 378.026 494.327, 378.869 495.342 M 151.674 520.028 C 149.406 522.352, 148.146 524.427, 148.579 525.128 C 149.021 525.844, 148.880 526.044, 148.220 525.636 C 147.200 525.006, 137 534.255, 137 535.810 C 137 536.204, 135.856 537.384, 134.459 538.434 C 133.057 539.486, 132.155 540.961, 132.447 541.723 C 132.759 542.536, 132.537 542.832, 131.906 542.442 C 131.317 542.078, 128.186 544.530, 124.949 547.890 C 121.711 551.251, 119.243 554, 119.464 554 C 119.685 554, 118.328 555.630, 116.449 557.622 C 114.570 559.615, 113.277 561.640, 113.576 562.122 C 113.874 562.605, 113.754 563.003, 113.309 563.006 C 112.237 563.015, 109 568.758, 109 570.652 C 109 573.184, 111.691 575, 115.442 575 C 119.589 575, 121.858 573.911, 127.423 569.250 C 128.244 568.563, 129.272 567.993, 129.708 567.984 C 130.880 567.960, 137 562.383, 137 561.339 C 137 560.845, 137.955 559.780, 139.122 558.971 C 140.289 558.162, 143.359 555.475, 145.944 553 C 148.529 550.525, 152.514 546.925, 154.800 545 C 157.085 543.075, 158.965 541.163, 158.977 540.750 C 159.004 539.874, 162.675 536.058, 163.167 536.395 C 163.350 536.521, 164.756 535.359, 166.291 533.812 C 168.141 531.947, 168.588 531, 167.617 531 C 165.005 531, 159.868 525.784, 157.657 520.888 L 155.500 516.109 151.674 520.028 M 453.698 537.701 C 453.434 538.141, 453.224 549.631, 453.232 563.236 L 453.246 587.972 457.601 591.986 C 459.996 594.194, 462.308 596, 462.738 596 C 463.169 596, 465.488 598.465, 467.892 601.478 C 470.296 604.490, 472.654 606.714, 473.132 606.419 C 473.609 606.123, 474 606.554, 474 607.376 C 474 608.198, 476.990 611.487, 480.644 614.685 C 484.298 617.883, 487.785 621.115, 488.394 621.867 C 493.314 627.945, 501.807 636, 503.294 636 C 504.297 636, 504.880 636.385, 504.590 636.855 C 504.299 637.325, 505.060 638.648, 506.281 639.794 L 508.500 641.880 508.325 630.190 C 508.229 623.760, 508.117 602.942, 508.075 583.926 L 508 549.351 499.250 548.238 C 494.438 547.626, 488.925 546.793, 487 546.387 C 485.075 545.981, 482.488 545.615, 481.250 545.574 C 480.012 545.533, 479 545.110, 479 544.633 C 479 544.157, 478.100 544.002, 477 544.290 C 475.900 544.577, 475 544.357, 475 543.799 C 475 543.242, 474.339 543.040, 473.532 543.349 C 472.725 543.659, 471.794 543.475, 471.463 542.940 C 471.132 542.405, 470.479 542.204, 470.012 542.493 C 469.544 542.782, 468.453 542.311, 467.588 541.445 C 466.723 540.580, 465.542 540.165, 464.964 540.522 C 464.386 540.880, 463.257 540.628, 462.456 539.964 C 461.655 539.299, 461 539.090, 461 539.500 C 461 539.910, 460.314 539.676, 459.476 538.980 C 458.638 538.284, 457.666 538, 457.318 538.349 C 456.969 538.697, 456.120 538.515, 455.431 537.943 C 454.742 537.371, 453.962 537.262, 453.698 537.701 M 94.914 591.626 C 91.936 594.289, 85.675 600.485, 81 605.395 C 76.325 610.305, 71.893 614.812, 71.150 615.411 C 70.408 616.010, 64.289 622.013, 57.552 628.750 L 45.304 641 100.902 641.115 C 375.268 641.681, 380.858 641.648, 381.422 639.500 C 382.064 637.052, 381.384 622.378, 380.457 618.684 C 380.068 617.136, 379.088 616, 378.142 615.999 C 375.350 615.998, 367.193 612.528, 364.523 610.207 C 363.127 608.993, 361.731 608, 361.421 608 C 361.111 608, 360.178 607.321, 359.348 606.491 C 358.518 605.661, 357.477 605.205, 357.035 605.478 C 356.594 605.751, 355.678 604.636, 355 603 C 354.322 601.364, 353.452 600.221, 353.066 600.459 C 352.680 600.698, 351.720 599.951, 350.932 598.800 C 350.144 597.648, 348.263 595.407, 346.750 593.819 C 345.238 592.230, 344 590.548, 344 590.079 C 344 589.610, 342.087 588.959, 339.750 588.632 C 337.413 588.305, 282.586 587.755, 217.914 587.411 L 100.328 586.784 94.914 591.626 M 402.285 588.806 C 398.267 589.097, 398.043 589.285, 397.504 592.806 C 396.522 599.211, 394.043 606.676, 392.058 609.199 C 391.006 610.536, 388.294 612.466, 386.031 613.486 C 382.983 614.860, 382.090 615.751, 382.587 616.921 C 383.101 618.134, 383.972 632.693, 383.997 640.500 C 384.001 641.669, 380.936 641.588, 452 642.311 L 507.500 642.877 503.538 639.510 C 501.359 637.659, 499.221 636.363, 498.788 636.631 C 498.355 636.899, 498 636.667, 498 636.116 C 498 635.564, 495.534 632.781, 492.519 629.930 C 489.505 627.079, 487.247 624.409, 487.502 623.997 C 487.757 623.585, 486.174 622.006, 483.984 620.489 C 481.795 618.972, 475.797 613.404, 470.656 608.115 C 465.515 602.827, 459.078 596.379, 456.351 593.787 L 451.393 589.075 428.946 588.787 C 416.601 588.629, 404.603 588.638, 402.285 588.806 " stroke="none" fill="black" fill-rule="evenodd"/>
</svg>