<?xml version="1.0" standalone="no"?>
<!DOCTYPE svg PUBLIC "-//W3C//DTD SVG 20010904//EN"
 "http://www.w3.org/TR/2001/REC-SVG-20010904/DTD/svg10.dtd">
<svg id="hummingbird" version="1.0" xmlns="http://www.w3.org/2000/svg"
 width="432.000000pt" height="432.000000pt" viewBox="0 0 432.000000 432.000000"
 preserveAspectRatio="xMidYMid meet">
<metadata>
Created by potrace 1.15, written by Peter Selinger 2001-2017
</metadata>
<g transform="translate(0.000000,432.000000) scale(0.100000,-0.100000)"
fill="#000000" stroke="none">
<path id="0" fill="#000000" stroke="none" d="M0 2160 l0 -2160 2160 0 2160 0 0 2160
0 2160 -2160 0 -2160 0 0 -2160z"/>
<path id="1" fill="#ffffff" stroke="none" d="M145 4245 c1 -27 0 -55 -2 -60 -2 -6
-29 -10 -61 -10 l-57 0 -3 63 -3 63 63 -3 63 -3 0 -50z"/>
<path id="2" fill="#ffffff" stroke="none" d="M4154 4243 c-1 -32 -2 -60 -3 -63 0 -3
-896 -5 -1991 -5 -1763 0 -1990 2 -1991 15 -1 8 -2 36 -3 63 l-2 47 1996 0
1996 0 -2 -57z"/>
<path id="3" fill="#ffffff" stroke="none" d="M4298 4238 l-3 -63 -60 0 -60 0 0 63 0
62 63 0 63 0 -3 -62z"/>
<path id="4" fill="#ffffff" stroke="none" d="M141 4145 c4 -29 5 -3932 1 -3942 -3
-9 -25 -13 -63 -13 l-59 0 0 1978 c0 1088 2 1981 4 1983 9 9 116 4 117 -6z"/>
<path id="5" fill="#ffffff" stroke="none" d="M347 4114 c48 -55 55 -65 207 -306 38
-58 77 -116 87 -127 10 -11 19 -23 19 -27 0 -4 29 -36 65 -72 36 -35 72 -77
80 -93 15 -28 15 -29 -9 -19 -75 28 -338 190 -402 248 -11 9 -49 39 -84 67
-36 27 -83 66 -105 87 l-41 38 2 123 c1 67 2 122 3 123 1 0 33 0 72 -1 70 -1
72 -2 106 -41z"/>
<path id="6" fill="#ffffff" stroke="none" d="M2710 4151 c2 0 -7 -8 -20 -18 -42 -27
-90 -75 -146 -145 -56 -69 -185 -264 -219 -331 -26 -49 -88 -112 -134 -133
-129 -60 -256 -173 -396 -352 -1 -2 -27 6 -56 17 -45 18 -252 69 -339 85 -175
31 -372 113 -520 215 -159 109 -189 143 -361 413 -61 95 -124 189 -140 209
-16 20 -29 39 -29 40 0 4 2347 3 2360 0z"/>
<path id="7" fill="#ffffff" stroke="none" d="M3830 4149 c0 -3 -18 -13 -40 -23 -57
-25 -167 -137 -228 -231 -28 -44 -57 -88 -64 -98 -13 -18 -16 -18 -94 2 -122
31 -279 42 -407 27 -61 -7 -212 -43 -261 -62 -12 -5 -17 -4 -13 3 3 5 9 25 12
44 33 188 43 257 40 297 l-3 47 529 0 c291 0 529 -3 529 -6z"/>
<path id="8" fill="#ffffff" stroke="none" d="M4151 4150 c3 -14 5 -976 2 -982 -2 -4
-26 36 -53 88 -117 226 -295 392 -524 489 l-66 28 27 46 c39 68 126 181 170
222 51 47 123 89 178 103 45 11 264 17 266 6z"/>
<path id="9" fill="#ffffff" stroke="none" d="M4298 2172 l2 -1982 -60 0 c-41 0 -60
4 -61 13 -3 24 -5 3942 -3 3947 1 3 29 5 61 5 l58 0 3 -1983z"/>
<path id="10" fill="#ffffff" stroke="none" d="M2754 4056 c-2 -28 -11 -85 -19 -126
-44 -228 -75 -430 -76 -495 -1 -62 6 -94 40 -192 39 -113 73 -266 66 -301 -2
-9 -4 -29 -4 -45 l-1 -27 -59 40 c-66 45 -148 81 -228 100 -46 10 -53 16 -63
45 -14 43 -11 192 6 287 20 116 21 120 48 224 62 232 148 416 249 531 37 42
48 31 41 -41z"/>
<path id="11" fill="#ffffff" stroke="none" d="M2695 4102 c-24 -17 -76 -93 -114 -167
-90 -174 -159 -404 -196 -655 -8 -50 -5 -196 3 -225 l9 -31 -71 -1 c-43 0
-112 -12 -172 -27 l-99 -27 -28 31 c-31 35 -31 37 14 169 34 98 67 155 159
271 71 90 121 165 172 257 32 59 118 188 171 258 43 57 139 155 152 155 7 0 7
-3 0 -8z"/>
<path id="12" fill="#ffffff" stroke="none" d="M226 3825 c192 -162 499 -364 589 -387
20 -5 132 -174 123 -184 -10 -9 -150 27 -246 62 -125 46 -299 132 -364 180
-33 24 -57 53 -69 80 -10 23 -26 47 -35 55 -36 29 -57 92 -59 172 l-2 78 26
-23 c14 -13 30 -27 37 -33z"/>
<path id="13" fill="#ffffff" stroke="none" d="M3242 3806 c65 -6 121 -16 200 -37 l37
-10 -35 -77 c-123 -266 -261 -717 -361 -1169 l-18 -82 -27 26 c-15 14 -33 42
-39 62 -29 91 -105 215 -174 284 l-44 45 1 73 c2 108 -8 159 -58 309 -44 133
-55 208 -40 290 2 14 10 57 16 97 6 39 13 80 15 90 2 10 4 21 4 24 1 7 112 42
171 55 58 13 63 14 115 20 28 3 51 7 52 8 3 3 99 -1 185 -8z"/>
<path id="14" fill="#ffffff" stroke="none" d="M3608 3709 c130 -60 269 -170 365 -291
46 -58 113 -172 152 -258 l29 -65 1 -365 c1 -389 3 -371 -51 -487 -62 -131
-201 -300 -314 -381 l-45 -33 -18 62 c-10 33 -16 64 -13 67 3 3 24 -1 46 -8
29 -10 44 -10 51 -3 12 12 1 25 -61 66 -26 17 -35 30 -36 52 -1 52 37 103 80
107 12 1 30 3 41 4 11 1 28 2 39 3 35 2 -2 28 -41 29 -117 4 -214 3 -263 -2
-72 -9 -199 -43 -227 -62 -12 -8 -28 -14 -35 -14 -16 1 -231 286 -224 298 3 5
8 22 11 39 2 17 17 80 31 139 14 60 27 116 29 125 2 9 18 69 35 135 97 362
179 604 271 802 44 94 35 92 147 41z"/>
<path id="15" fill="#ffffff" stroke="none" d="M199 3629 c18 -22 35 -55 37 -72 20
-143 69 -233 184 -339 44 -40 80 -76 80 -81 0 -4 10 -27 21 -52 23 -48 99
-132 164 -180 55 -41 60 -46 79 -83 36 -70 111 -136 221 -193 37 -19 57 -38
81 -79 42 -72 92 -114 162 -136 l59 -19 -32 -50 c-61 -96 -119 -281 -124 -398
-1 -24 -10 -19 -276 193 -38 30 -75 60 -81 65 -6 6 -44 39 -85 75 -271 238
-448 459 -505 630 -16 49 -18 94 -19 408 0 193 0 352 1 352 0 0 15 -18 33 -41z"/>
<path id="16" fill="#ffffff" stroke="none" d="M2240 3527 c0 -2 -11 -17 -25 -33 -46
-53 -132 -178 -158 -229 -14 -27 -36 -86 -49 -130 -12 -44 -23 -82 -25 -84 -1
-2 -26 14 -55 35 -29 22 -65 46 -80 53 -16 8 -28 19 -28 25 1 16 63 88 153
178 50 50 111 98 170 133 96 56 97 57 97 52z"/>
<path id="17" fill="#ffffff" stroke="none" d="M485 3384 c182 -90 347 -145 442 -149
29 0 39 -10 86 -78 30 -43 66 -91 81 -107 31 -36 22 -44 -48 -41 -169 5 -455
90 -537 158 -137 113 -205 200 -233 294 -9 29 -16 54 -16 56 0 2 28 -16 63
-40 34 -24 107 -66 162 -93z"/>
<path id="18" fill="#ffffff" stroke="none" d="M955 3418 c144 -86 256 -124 560 -192
202 -45 180 -38 271 -80 142 -66 258 -171 300 -273 21 -49 21 -130 1 -170 -60
-116 -223 -186 -354 -154 -229 58 -510 321 -773 726 -74 115 -80 124 -114 183
l-26 44 33 -21 c17 -12 63 -40 102 -63z"/>
<path id="19" fill="#ffffff" stroke="none" d="M575 3100 c30 -21 300 -93 395 -105 58
-8 150 -8 157 -1 4 3 16 -8 28 -24 12 -17 46 -56 75 -87 66 -71 61 -75 -88
-76 -38 0 -185 12 -209 18 -13 3 -31 7 -41 9 -107 24 -174 61 -258 143 -55 52
-104 116 -104 135 0 8 28 0 45 -12z"/>
<path id="20" fill="#ffffff" stroke="none" d="M2439 2996 c85 -12 196 -61 277 -122
114 -87 224 -235 258 -348 12 -40 12 -44 -8 -60 -20 -16 -22 -16 -31 1 -5 10
-37 45 -71 79 -35 34 -66 76 -73 96 -16 48 -59 68 -96 44 -14 -9 -30 -14 -35
-11 -29 18 -189 70 -279 90 -72 17 -128 23 -182 22 -42 -1 -76 0 -73 4 6 10
-25 109 -42 135 -15 21 -13 23 34 38 112 38 212 48 321 32z"/>
<path id="21" fill="#ffffff" stroke="none" d="M261 2713 c101 -149 281 -337 499 -523
14 -12 34 -29 45 -38 11 -10 58 -46 105 -82 47 -35 87 -67 90 -70 9 -11 101
-79 113 -83 7 -2 12 -42 13 -118 2 -172 18 -316 59 -534 9 -44 17 -91 20 -105
3 -14 7 -36 10 -50 14 -70 28 -230 19 -230 -7 0 -243 156 -424 280 -339 234
-550 369 -610 390 l-35 12 0 664 0 663 32 -64 c17 -35 46 -86 64 -112z"/>
<path id="22" fill="#ffffff" stroke="none" d="M898 2811 c129 -24 346 -31 382 -11 14
8 29 -1 76 -45 33 -31 74 -65 91 -78 18 -12 33 -25 33 -29 0 -23 -132 -43
-286 -43 -110 0 -111 0 -196 42 -90 45 -179 116 -203 164 -21 39 -20 40 21 23
19 -8 56 -19 82 -23z"/>
<path id="23" fill="#ffffff" stroke="none" d="M2325 2755 c96 -17 138 -28 230 -61
103 -37 116 -45 106 -61 -10 -19 -2 -59 14 -73 21 -17 73 -15 94 4 15 14 24
15 39 7 28 -15 112 -110 112 -128 0 -7 -24 -38 -54 -68 l-54 -53 -22 23 c-11
12 -44 35 -73 51 -106 58 -232 33 -291 -58 l-18 -28 -87 47 c-113 60 -179 103
-258 166 l-64 51 34 31 c39 34 87 106 87 130 0 36 79 43 205 20z"/>
<path id="24" fill="#ffffff" stroke="none" d="M2740 2670 c31 -17 42 -45 28 -75 -10
-22 -17 -26 -47 -23 -45 4 -58 39 -29 81 22 31 22 31 48 17z"/>
<path id="25" fill="#ffffff" stroke="none" d="M1557 2604 c25 -15 70 -37 100 -49 l55
-23 -24 -22 c-31 -30 -108 -65 -188 -86 -166 -44 -325 0 -402 111 -15 22 -27
42 -28 45 0 3 55 5 122 5 142 1 223 10 270 30 44 19 43 19 95 -11z"/>
<path id="26" fill="#ffffff" stroke="none" d="M2020 2532 c21 -22 158 -122 165 -122
4 0 19 -8 33 -19 15 -10 62 -36 105 -58 l78 -40 -40 -16 c-21 -9 -67 -44 -101
-78 l-62 -62 -58 16 c-103 29 -181 82 -320 219 -26 25 -66 59 -89 73 -23 15
-41 29 -41 31 0 2 10 14 22 26 19 19 32 22 88 20 44 -1 81 4 115 17 53 20 79
18 105 -7z"/>
<path id="27" fill="#ffffff" stroke="none" d="M1727 2423 c26 -20 73 -61 103 -91 109
-109 184 -159 290 -193 30 -10 54 -22 52 -28 -4 -20 -264 -365 -316 -420 -28
-30 -96 -84 -152 -121 -155 -103 -264 -182 -264 -193 0 -6 -3 -8 -6 -5 -8 8
-118 -95 -167 -157 l-40 -50 7 135 c3 74 8 153 11 175 8 53 43 264 49 290 3
11 11 49 19 85 54 235 137 423 229 521 42 44 102 87 125 88 6 1 33 -15 60 -36z"/>
<path id="28" fill="#ffffff" stroke="none" d="M3046 2418 c23 -24 54 -61 70 -83 16
-22 31 -42 34 -45 3 -3 45 -57 92 -120 48 -63 97 -126 110 -140 52 -56 52 -56
14 -78 l-35 -21 -64 63 c-35 35 -144 117 -243 182 -98 65 -182 122 -188 126
-11 7 140 158 159 158 6 0 29 -19 51 -42z"/>
<path id="29" fill="#ffffff" stroke="none" d="M1526 2385 c-33 -33 -78 -99 -105 -155
-45 -91 -114 -298 -135 -406 -2 -10 -11 -53 -19 -94 -9 -41 -19 -97 -22 -125
-4 -27 -8 -57 -10 -65 -2 -8 -7 -46 -11 -85 -4 -38 -8 -81 -9 -95 -2 -14 -3
-40 -4 -59 -2 -55 -9 -33 -26 79 -9 58 -18 116 -21 130 -6 40 -16 188 -18 273
-5 216 47 439 130 558 25 37 29 39 83 40 31 0 79 7 106 14 81 21 90 19 61 -10z"/>
<path id="30" fill="#ffffff" stroke="none" d="M2671 2394 c25 -9 60 -28 78 -43 l32
-26 -88 0 c-87 -1 -166 -8 -232 -21 -31 -6 -32 -5 -22 12 48 83 135 112 232
78z"/>
<path id="31" fill="#ffffff" stroke="none" d="M2899 2236 l103 -69 -6 -36 c-3 -20 -8
-45 -10 -56 -3 -11 -23 -105 -45 -208 -23 -104 -43 -192 -46 -197 -9 -14 -215
67 -306 120 -118 70 -223 164 -315 282 -52 67 -51 72 23 136 49 44 106 68 183
78 25 3 63 10 85 14 22 4 83 6 135 6 l95 -1 104 -69z"/>
<path id="32" fill="#ffffff" stroke="none" d="M4154 1873 c-1 -371 -2 -412 -19 -453
-24 -58 -63 -115 -113 -163 l-39 -38 -18 28 c-10 15 -28 39 -41 53 -12 14 -29
52 -38 85 -8 33 -42 141 -74 240 -43 131 -56 182 -48 190 6 5 27 22 46 36 52
39 141 127 187 184 47 59 118 175 135 221 6 18 14 31 17 29 4 -2 6 -187 5
-412z"/>
<path id="33" fill="#ffffff" stroke="none" d="M3750 2173 c-33 -23 -48 -43 -55 -75
-4 -16 -9 -28 -11 -28 -3 0 -21 12 -40 27 -26 20 -48 27 -82 27 -58 1 -92 -22
-125 -86 l-25 -47 -38 46 c-59 70 -59 70 -16 92 77 39 173 57 317 60 96 1 99
0 75 -16z"/>
<path id="34" fill="#ffffff" stroke="none" d="M3111 2094 l79 -55 -30 -44 c-17 -24
-39 -64 -50 -89 -23 -55 -50 -180 -50 -234 l0 -39 -62 9 c-35 6 -67 13 -71 18
-5 4 10 95 33 201 23 107 43 203 46 214 11 59 16 75 21 75 3 0 41 -25 84 -56z"/>
<path id="35" fill="#ffffff" stroke="none" d="M2239 2080 c4 -3 17 -18 30 -35 79
-103 201 -209 326 -282 55 -33 254 -113 279 -113 20 0 21 7 -14 -151 -81 -364
-92 -408 -107 -410 -40 -6 -76 -3 -117 9 -27 8 -57 15 -65 17 -82 16 -422 179
-676 322 -210 119 -196 103 -126 151 71 50 141 126 234 252 209 283 209 283
220 264 6 -11 13 -21 16 -24z"/>
<path id="36" fill="#ffffff" stroke="none" d="M3603 2096 c18 -7 55 -34 83 -60 29
-25 56 -46 62 -46 5 0 16 -8 23 -17 12 -15 12 -16 -1 -8 -8 5 -22 11 -30 13
-54 11 -74 13 -157 17 -51 3 -104 0 -118 -5 -31 -12 -32 -1 -4 49 22 39 62 70
92 71 10 0 32 -6 50 -14z"/>
<path id="37" fill="#ffffff" stroke="none" d="M3265 1969 c53 -57 55 -47 -27 -130
-43 -44 -61 -99 -60 -186 0 -45 -4 -65 -15 -75 -9 -7 -26 -35 -39 -61 -19 -42
-23 -46 -29 -28 -11 37 -14 224 -4 280 6 30 19 78 30 106 20 55 76 145 89 145
4 0 29 -23 55 -51z"/>
<path id="38" fill="#ffffff" stroke="none" d="M3606 1950 c-33 -40 -40 -68 -33 -140
5 -59 5 -59 -17 -45 -39 26 -157 64 -218 71 -32 4 -58 10 -58 14 0 12 66 67
103 86 53 28 108 41 181 43 l68 2 -26 -31z"/>
<path id="39" fill="#ffffff" stroke="none" d="M3699 1913 c7 -25 26 -89 43 -142 18
-53 32 -98 33 -101 1 -3 22 -70 47 -150 59 -183 62 -200 44 -225 -15 -20 -16
-19 -46 14 -64 69 -143 215 -192 354 -25 72 -32 109 -33 169 0 67 3 79 24 102
14 14 34 26 47 26 17 0 24 -9 33 -47z"/>
<path id="40" fill="#ffffff" stroke="none" d="M3453 1787 c106 -39 131 -60 157 -136
12 -36 43 -108 70 -158 26 -51 45 -93 43 -93 -2 0 -35 27 -73 59 -168 145
-252 192 -334 185 -28 -2 -64 -9 -79 -16 -33 -13 -47 0 -42 36 2 12 6 42 10
67 3 26 15 56 27 69 19 20 28 22 87 17 36 -3 96 -17 134 -30z"/>
<path id="41" fill="#ffffff" stroke="none" d="M3029 1618 c17 -1 31 -7 32 -13 0 -5 2
-17 3 -25 2 -8 6 -44 10 -80 7 -64 20 -100 34 -100 5 0 13 26 20 58 29 140
176 209 298 142 60 -34 213 -151 285 -220 166 -157 204 -204 177 -222 -7 -5
-54 -29 -104 -53 -108 -52 -290 -116 -547 -191 -319 -93 -440 -138 -526 -195
-32 -22 -34 -22 -29 -4 3 11 22 74 41 140 42 145 82 304 141 567 24 109 47
201 50 207 4 5 21 5 45 0 21 -5 52 -10 70 -11z"/>
<path id="42" fill="#ffffff" stroke="none" d="M324 1460 c44 -28 194 -126 331 -219
138 -93 326 -221 419 -283 l168 -113 -5 -135 c-3 -74 -8 -151 -11 -170 -3 -19
-8 -51 -11 -70 -10 -63 -37 -161 -60 -218 l-23 -57 -484 0 -483 0 -1 665 c0
366 1 668 3 672 6 12 66 -16 157 -72z"/>
<path id="43" fill="#ffffff" stroke="none" d="M1714 1451 c65 -207 87 -321 88 -466 1
-153 -38 -266 -121 -354 -37 -38 -109 -91 -125 -91 -2 0 7 26 20 58 23 58 27
74 44 184 8 55 6 317 -5 538 -6 109 3 159 33 187 14 13 29 23 33 23 4 0 19
-36 33 -79z"/>
<path id="44" fill="#ffffff" stroke="none" d="M1770 1484 c200 -115 263 -149 445
-238 157 -77 313 -143 359 -152 10 -2 34 -8 52 -14 18 -6 55 -12 83 -13 59 -2
59 18 -1 -187 -21 -74 -41 -142 -43 -150 -23 -96 -137 -359 -179 -415 -21 -27
-31 -32 -74 -34 -118 -5 -361 94 -660 269 l-73 42 34 42 c93 113 126 269 103
481 -9 80 -49 244 -79 328 -13 37 -22 67 -18 67 3 0 26 -12 51 -26z"/>
<path id="45" fill="#ffffff" stroke="none" d="M1597 1353 c8 -532 7 -585 -15 -668
-29 -105 -64 -173 -117 -226 -41 -42 -112 -92 -103 -73 64 134 76 170 95 271
10 53 10 319 -1 433 -16 175 -16 234 0 265 12 24 114 111 134 114 3 1 6 -52 7
-116z"/>
<path id="46" fill="#ffffff" stroke="none" d="M4155 795 l0 -605 -82 0 c-88 0 -92 3
-69 48 30 60 70 194 80 267 19 145 21 194 11 300 -12 122 -68 337 -98 373 -8
10 3 27 44 69 78 82 78 82 94 119 8 19 15 34 17 34 2 0 3 -272 3 -605z"/>
<path id="47" fill="#ffffff" stroke="none" d="M1426 1257 c0 -45 4 -109 8 -142 4 -33
9 -137 11 -231 3 -141 0 -187 -16 -260 -28 -133 -86 -244 -171 -326 -38 -38
-73 -68 -78 -68 -5 0 -5 12 0 28 5 15 16 50 24 78 18 58 33 132 44 214 10 77
9 412 -2 490 -12 89 -11 97 19 140 23 33 147 160 157 160 1 0 3 -37 4 -83z"/>
<path id="48" fill="#ffffff" stroke="none" d="M3947 1236 c14 -27 14 -31 -3 -43 -16
-12 -20 -11 -31 4 -7 10 -16 23 -21 28 -20 24 -22 35 -10 54 12 19 13 19 31 3
11 -9 26 -30 34 -46z"/>
<path id="49" fill="#ffffff" stroke="none" d="M3987 1153 c60 -140 83 -251 88 -426 5
-175 -28 -349 -95 -489 -19 -41 -26 -48 -51 -48 l-29 0 30 59 c44 87 69 164
86 271 23 139 19 323 -9 440 -13 53 -32 112 -50 153 -17 41 -18 50 -6 58 21
13 23 12 36 -18z"/>
<path id="50" fill="#ffffff" stroke="none" d="M3962 1045 c14 -45 26 -94 43 -190 6
-33 6 -235 1 -275 -19 -136 -38 -205 -82 -300 -47 -100 41 -90 -790 -90 l-732
0 52 53 c37 38 69 87 109 169 31 64 57 120 57 126 0 23 44 105 70 130 47 45
58 53 125 83 59 26 197 76 235 84 47 10 463 140 564 176 65 23 159 63 210 88
l91 47 15 -26 c8 -14 22 -47 32 -75z"/>
<path id="51" fill="#ffffff" stroke="none" d="M1745 530 c3 0 24 -12 47 -26 79 -50
333 -173 423 -204 50 -17 120 -34 158 -37 66 -6 67 -6 50 -25 -44 -49 -34 -48
-669 -48 l-597 0 44 31 c24 18 64 52 89 77 25 25 67 57 93 72 47 25 137 105
137 121 0 9 68 47 84 47 5 0 12 4 15 10 19 28 45 30 83 6 21 -13 40 -24 43
-24z"/>
<path id="52" fill="#ffffff" stroke="none" d="M141 158 c1 -7 2 -41 3 -75 l1 -61 -60
1 -60 2 -3 73 -3 72 61 0 c41 0 60 -4 61 -12z"/>
<path id="53" fill="#ffffff" stroke="none" d="M4155 95 l0 -70 -1995 -3 -1995 -2 1
72 c1 40 2 74 3 76 0 1 898 1 1994 0 l1992 -3 0 -70z"/>
<path id="54" fill="#ffffff" stroke="none" d="M4300 95 l0 -75 -63 0 -63 0 2 73 c1
39 2 73 3 75 1 1 28 2 61 2 l60 0 0 -75z"/>
</g>
</svg>
