<?xml version="1.0" standalone="no"?>
<!DOCTYPE svg PUBLIC "-//W3C//DTD SVG 20010904//EN"
 "http://www.w3.org/TR/2001/REC-SVG-20010904/DTD/svg10.dtd">
<svg id="pattern" version="1.0" xmlns="http://www.w3.org/2000/svg"
 width="612.000000pt" height="792.000000pt" viewBox="0 0 612.000000 792.000000"
 preserveAspectRatio="xMidYMid meet">
<metadata>
Created by potrace 1.15, written by Peter Selinger 2001-2017
</metadata>
<g transform="translate(0.000000,792.000000) scale(0.100000,-0.100000)"
fill="#000000" stroke="none">
<path id="0" fill="#000000" stroke="none" d="M2880 6954 c-19 -2 -84 -9 -145 -15
-790 -79 -1559 -512 -2032 -1143 -66 -89 -192 -282 -229 -351 -6 -11 -27 -51
-48 -88 -123 -228 -238 -575 -298 -900 -21 -114 -23 -146 -21 -467 3 -374 11
-477 48 -645 94 -417 272 -819 504 -1135 153 -209 365 -431 554 -583 191 -152
311 -230 496 -322 391 -194 742 -288 1180 -317 631 -41 1297 138 1824 489 263
176 521 423 730 701 340 452 535 971 588 1562 20 227 -3 634 -45 785 -7 28
-24 95 -36 150 -60 266 -192 592 -338 835 -124 205 -345 486 -488 620 -465
437 -1071 724 -1704 806 -110 15 -467 26 -540 18z"/>
<path id="1" fill="#ffffff" stroke="none" d="M3365 6889 c211 -20 620 -117 668 -157
24 -21 22 -29 -23 -158 -56 -157 -75 -200 -94 -207 -9 -4 -78 11 -154 33 -184
52 -317 77 -502 91 -85 7 -161 17 -168 22 -9 7 -12 53 -10 191 3 178 3 181 27
192 24 12 65 11 256 -7z"/>
<path id="2" fill="#ffffff" stroke="none" d="M3040 6881 c15 -29 13 -354 -2 -369 -7
-7 -41 -12 -83 -12 -165 0 -443 -46 -644 -107 -63 -18 -123 -33 -134 -31 -16
2 -33 37 -83 168 -35 91 -63 168 -64 172 -1 18 60 40 290 104 197 55 431 91
612 93 87 1 98 -1 108 -18z"/>
<path id="3" fill="#ffffff" stroke="none" d="M4345 6605 c232 -113 410 -227 585
-373 94 -78 200 -183 195 -192 -2 -4 -33 -13 -67 -20 -66 -13 -82 -17 -243
-70 -64 -21 -109 -31 -125 -27 -14 3 -65 37 -115 74 -159 119 -364 237 -529
304 -94 38 -94 38 -25 224 33 88 67 165 75 172 21 16 47 6 249 -92z"/>
<path id="4" fill="#ffffff" stroke="none" d="M2002 6673 c27 -31 127 -316 118 -334
-5 -9 -31 -24 -57 -34 -90 -33 -318 -156 -431 -233 -171 -116 -156 -109 -194
-93 -106 42 -222 79 -283 90 -92 17 -105 21 -105 32 0 5 51 52 113 105 186
160 455 330 687 435 118 54 130 56 152 32z"/>
<path id="5" fill="#ffffff" stroke="none" d="M3013 6474 c13 -4 7 -23 -27 -102 -88
-198 -156 -476 -156 -633 0 -43 -4 -79 -8 -79 -4 0 -28 21 -52 46 -68 70 -219
180 -293 213 -37 17 -107 40 -158 52 -83 21 -98 22 -173 11 -106 -16 -220 -70
-304 -146 -34 -31 -67 -56 -71 -56 -16 0 -251 162 -251 172 0 14 15 26 155
120 331 221 756 365 1173 397 152 12 149 12 165 5z"/>
<path id="6" fill="#ffffff" stroke="none" d="M3275 6466 c298 -18 718 -144 995 -301
118 -66 264 -164 340 -228 42 -35 35 -52 -36 -83 -31 -13 -80 -40 -110 -59
-30 -19 -59 -35 -64 -35 -6 0 -29 17 -53 38 -69 63 -139 106 -221 136 -74 27
-84 28 -194 23 -103 -5 -205 -25 -277 -53 -35 -14 -188 -104 -253 -150 -35
-24 -69 -44 -76 -44 -9 0 -16 20 -20 58 -26 226 -99 480 -188 655 -10 21 -16
41 -14 46 3 5 23 7 43 5 21 -2 79 -5 128 -8z"/>
<path id="7" fill="#ffffff" stroke="none" d="M3173 6225 c51 -134 86 -282 108 -462
l13 -102 -28 -38 c-101 -138 -148 -233 -193 -392 l-18 -65 -24 85 c-29 103
-85 225 -137 299 l-38 55 1 120 c1 66 8 152 16 190 36 162 48 212 63 265 18
64 79 210 108 259 l19 33 30 -58 c17 -33 52 -117 80 -189z"/>
<path id="8" fill="#ffffff" stroke="none" d="M1198 6035 c198 -52 395 -154 519 -269
l33 -30 -24 -40 c-42 -74 -60 -145 -60 -242 l-1 -90 -48 14 c-72 21 -179 12
-249 -20 l-56 -26 -20 21 c-81 87 -184 341 -232 576 -29 138 -30 135 32 127
28 -4 76 -14 106 -21z"/>
<path id="9" fill="#ffffff" stroke="none" d="M1015 6018 c44 -198 57 -252 75 -302
11 -33 20 -69 20 -82 0 -13 -34 -67 -78 -126 -43 -57 -106 -147 -141 -202 -62
-96 -186 -344 -211 -419 -6 -20 -19 -41 -28 -46 -19 -9 -311 91 -323 111 -31
49 148 428 320 678 127 185 317 410 347 410 7 0 16 -10 19 -22z"/>
<path id="10" fill="#ffffff" stroke="none" d="M5125 5918 c-35 -150 -135 -371 -226
-503 -83 -120 -68 -112 -141 -82 -79 33 -162 48 -230 41 l-53 -5 -1 103 c-1
102 -5 116 -51 215 -15 31 -14 34 8 52 52 43 218 127 323 164 186 64 322 103
372 106 l22 1 -23 -92z"/>
<path id="11" fill="#ffffff" stroke="none" d="M5267 5898 c158 -186 295 -393 406
-613 56 -111 66 -154 40 -177 -33 -28 -286 -129 -311 -123 -16 4 -36 33 -73
106 -62 124 -128 232 -225 366 -41 56 -74 107 -74 115 0 7 20 62 46 121 25 60
57 151 72 203 14 52 29 94 33 94 4 0 43 -41 86 -92z"/>
<path id="12" fill="#ffffff" stroke="none" d="M2331 5944 c109 -31 186 -69 274 -135
91 -69 145 -114 145 -122 0 -3 -17 -1 -37 4 -188 43 -391 -52 -538 -251 -171
-231 -299 -274 -422 -140 -48 52 -62 89 -62 166 -2 119 46 222 148 324 146
145 326 202 492 154z"/>
<path id="13" fill="#ffffff" stroke="none" d="M4120 5908 c121 -40 223 -126 273 -231
45 -93 52 -121 52 -207 0 -100 -19 -141 -98 -208 -112 -96 -247 -54 -359 112
-85 125 -172 227 -223 260 -126 84 -287 98 -405 36 l-25 -13 25 28 c50 54 257
180 347 209 148 49 294 54 413 14z"/>
<path id="14" fill="#ffffff" stroke="none" d="M3665 5656 c33 -15 77 -39 97 -53 39
-27 117 -118 188 -219 98 -141 177 -198 273 -197 l58 0 -64 -66 c-36 -36 -153
-155 -262 -263 l-197 -198 -67 0 c-37 0 -116 5 -176 11 -93 9 -118 8 -177 -6
-37 -9 -72 -14 -77 -11 -5 3 -12 18 -16 33 -16 67 -89 236 -125 292 -49 76
-52 122 -15 265 45 180 136 332 231 385 116 66 221 74 329 27z"/>
<path id="15" fill="#ffffff" stroke="none" d="M2678 5669 c126 -28 139 -38 219 -170
64 -105 113 -241 138 -382 11 -63 10 -75 -3 -97 -60 -94 -106 -187 -133 -269
-18 -53 -36 -99 -42 -103 -5 -3 -33 1 -61 9 -58 18 -175 21 -291 9 -135 -14
-133 -15 -356 216 -107 112 -219 229 -248 261 l-54 57 47 0 c95 0 173 56 285
204 115 153 210 225 341 260 68 18 98 19 158 5z"/>
<path id="16" fill="#ffffff" stroke="none" d="M1173 5499 c16 -34 42 -82 58 -107 16
-25 29 -55 29 -66 0 -11 -27 -46 -63 -81 -75 -73 -118 -132 -149 -206 -19 -46
-22 -73 -22 -184 -1 -108 3 -143 23 -210 40 -137 108 -248 231 -377 43 -45 76
-86 74 -90 -3 -4 -35 -8 -72 -8 -197 0 -469 -68 -662 -165 -38 -19 -74 -35
-80 -35 -25 0 -7 256 31 445 76 375 213 699 412 980 87 122 134 175 150 169 7
-2 25 -32 40 -65z"/>
<path id="17" fill="#ffffff" stroke="none" d="M5083 5447 c193 -258 356 -616 431
-947 35 -151 75 -498 60 -521 -4 -6 -10 -6 -18 0 -25 21 -223 93 -370 135
-136 39 -196 51 -348 71 -27 3 -48 11 -48 17 0 5 28 40 63 76 120 127 180 237
211 387 45 218 -4 411 -139 549 -36 36 -65 71 -65 77 0 6 13 29 28 52 16 23
48 74 71 114 28 47 47 70 56 67 8 -3 38 -38 68 -77z"/>
<path id="18" fill="#ffffff" stroke="none" d="M1596 5355 c120 -35 204 -126 204 -219
0 -62 -27 -123 -68 -158 -17 -14 -64 -38 -104 -53 -315 -115 -441 -257 -409
-460 5 -36 17 -80 25 -97 26 -51 11 -43 -36 19 -127 166 -189 383 -158 551 32
177 175 342 354 408 72 27 124 29 192 9z"/>
<path id="19" fill="#ffffff" stroke="none" d="M4722 5311 c109 -49 222 -151 268 -240
78 -155 80 -360 4 -544 -15 -36 -36 -76 -48 -90 -12 -14 -26 -34 -33 -44 -10
-15 -12 -2 -12 70 -1 75 -6 100 -31 161 -45 107 -103 160 -261 235 -172 82
-232 143 -250 251 -16 96 42 197 129 225 66 21 156 12 234 -24z"/>
<path id="20" fill="#ffffff" stroke="none" d="M4330 5119 c0 -54 32 -118 89 -177 38
-39 78 -65 193 -121 164 -79 190 -103 235 -213 36 -89 35 -194 -3 -278 -45
-100 -191 -222 -367 -305 -76 -37 -140 -56 -248 -74 l-67 -11 -68 42 c-87 52
-205 110 -264 128 -59 18 -71 33 -59 73 5 18 9 125 8 239 0 116 4 215 10 225
18 34 521 524 531 518 5 -3 10 -24 10 -46z"/>
<path id="21" fill="#ffffff" stroke="none" d="M2046 4953 c267 -277 283 -296 295
-335 5 -19 7 -100 3 -198 -6 -150 -5 -170 14 -222 23 -65 22 -66 -48 -91 -72
-25 -179 -71 -260 -112 -74 -37 -75 -37 -170 -32 -102 6 -178 28 -257 73 -93
54 -192 124 -251 179 -52 48 -64 67 -97 150 -34 86 -37 101 -33 167 6 91 28
138 93 203 56 57 146 107 283 158 51 19 108 47 126 61 49 37 82 111 85 189 1
9 5 17 9 17 5 0 98 -93 208 -207z"/>
<path id="22" fill="#ffffff" stroke="none" d="M5756 5072 c41 -27 137 -345 183 -602
35 -197 53 -457 35 -504 -5 -14 -31 -16 -184 -16 -201 0 -190 -5 -190 83 0
183 -61 505 -141 741 -42 126 -48 151 -37 163 15 14 295 142 313 142 6 1 15
-3 21 -7z"/>
<path id="23" fill="#ffffff" stroke="none" d="M3094 4977 c52 -68 127 -264 145 -377
15 -93 13 -256 -4 -346 -8 -42 -17 -79 -19 -82 -3 -2 -22 3 -43 13 -69 33
-156 29 -249 -11 -7 -3 -18 20 -28 55 -51 183 -19 448 79 643 34 68 78 138 87
138 4 0 18 -15 32 -33z"/>
<path id="24" fill="#ffffff" stroke="none" d="M439 4874 c203 -71 210 -76 185 -150
-52 -155 -96 -392 -114 -614 -7 -74 -15 -138 -19 -143 -4 -4 -81 -6 -171 -5
l-164 3 -10 34 c-7 23 -6 86 2 190 16 212 53 421 107 606 27 91 47 127 68 120
7 -2 59 -20 116 -41z"/>
<path id="25" fill="#ffffff" stroke="none" d="M2553 4640 c121 14 200 8 262 -19 l43
-19 -5 -133 c-4 -87 -1 -155 7 -194 7 -33 15 -75 17 -93 l5 -33 -53 8 c-73 11
-304 8 -356 -4 -37 -9 -44 -8 -61 11 -48 53 -49 61 -38 376 0 19 -3 51 -7 71
l-8 37 43 -10 c30 -7 75 -6 151 2z"/>
<path id="26" fill="#ffffff" stroke="none" d="M3695 4634 l60 -6 4 -193 c4 -264 -9
-300 -106 -284 -69 11 -281 11 -344 -1 -29 -6 -57 -6 -61 -2 -5 5 -1 42 8 83
10 50 16 123 15 226 0 168 -3 161 68 184 26 9 242 4 356 -7z"/>
<path id="27" fill="#ffffff" stroke="none" d="M3188 4143 c28 -17 59 -48 77 -77 27
-44 30 -58 30 -125 -1 -119 -48 -188 -154 -226 -158 -55 -319 71 -309 240 2
35 12 77 24 100 61 116 219 158 332 88z"/>
<path id="28" fill="#ffffff" stroke="none" d="M5030 4131 c93 -21 113 -27 255 -70
146 -45 302 -119 284 -135 -79 -68 -371 -167 -597 -201 -164 -24 -174 -23
-277 41 -114 71 -197 109 -296 137 -92 27 -102 34 -63 42 93 20 252 101 349
178 l50 39 100 -5 c55 -3 143 -15 195 -26z"/>
<path id="29" fill="#ffffff" stroke="none" d="M1487 4093 c76 -55 164 -104 225 -125
20 -7 37 -17 36 -23 0 -5 -34 -20 -75 -32 -94 -28 -164 -60 -267 -122 l-81
-49 -90 9 c-92 10 -232 37 -340 66 -63 17 -249 89 -299 115 l-28 15 33 21 c66
40 236 106 359 137 105 27 248 44 355 42 l100 -2 72 -52z"/>
<path id="30" fill="#ffffff" stroke="none" d="M2842 4125 c15 -6 14 -12 -10 -56 -48
-93 -37 -216 26 -290 21 -25 23 -32 11 -40 -8 -5 -23 -9 -34 -9 -11 -1 -51 -4
-89 -9 -158 -17 -344 16 -531 96 -80 34 -205 109 -205 123 0 6 130 70 215 105
84 35 172 64 225 74 30 6 64 13 75 15 29 7 297 -1 317 -9z"/>
<path id="31" fill="#ffffff" stroke="none" d="M3585 4130 c141 -12 250 -40 350 -90
95 -47 175 -97 175 -109 0 -31 -259 -148 -404 -181 -84 -20 -115 -22 -215 -17
-111 6 -186 20 -204 37 -5 4 2 27 14 51 36 67 34 177 -4 243 -15 27 -26 50
-25 51 7 6 117 23 158 24 25 0 95 -4 155 -9z"/>
<path id="32" fill="#ffffff" stroke="none" d="M489 3926 c5 -6 15 -76 21 -155 19
-252 61 -460 139 -682 22 -61 37 -117 35 -124 -8 -20 -281 -137 -304 -130 -41
13 -155 376 -199 635 -24 140 -44 349 -39 410 l3 45 65 5 c133 10 269 9 279
-4z"/>
<path id="33" fill="#ffffff" stroke="none" d="M2054 3872 c51 -32 132 -73 180 -91 48
-19 91 -42 96 -52 7 -12 5 -29 -5 -53 -25 -58 -28 -143 -11 -255 26 -173 52
-130 -256 -438 -150 -150 -275 -273 -278 -273 -3 0 -4 18 -2 39 12 129 -92
239 -302 320 -156 60 -231 133 -257 248 -26 113 25 290 109 382 50 54 198 142
297 175 97 33 200 53 278 55 55 1 65 -3 151 -57z"/>
<path id="34" fill="#ffffff" stroke="none" d="M630 3889 c137 -64 476 -159 571 -159
15 0 40 -5 55 -11 l28 -10 -59 -52 c-130 -115 -239 -298 -256 -429 -25 -198
54 -426 208 -601 18 -20 33 -43 33 -51 0 -18 -120 -206 -132 -206 -12 0 -123
152 -179 247 -150 254 -261 532 -318 797 -27 122 -51 327 -51 428 0 93 2 94
100 47z"/>
<path id="35" fill="#ffffff" stroke="none" d="M4335 3893 c208 -50 372 -146 466 -273
74 -100 106 -248 75 -352 -32 -110 -123 -184 -301 -243 -93 -31 -138 -59 -187
-113 -52 -58 -59 -76 -65 -163 l-6 -78 -221 227 c-343 351 -316 317 -316 394
0 34 5 112 11 172 10 96 9 119 -5 171 -27 96 -27 97 29 117 108 40 221 92 278
128 56 36 63 38 121 33 33 -3 88 -12 121 -20z"/>
<path id="36" fill="#ffffff" stroke="none" d="M5964 3904 c40 -39 -10 -441 -91 -729
-44 -156 -67 -215 -87 -215 -26 0 -309 109 -318 122 -4 7 -5 20 -2 28 20 47
84 299 98 380 19 115 36 283 36 354 0 29 5 57 12 64 8 8 61 12 174 12 134 0
165 -3 178 -16z"/>
<path id="37" fill="#ffffff" stroke="none" d="M5574 3813 c-32 -512 -201 -990 -483
-1370 -61 -83 -88 -113 -100 -113 -4 0 -20 24 -36 53 -15 28 -38 66 -51 84
-32 43 -32 95 0 117 97 63 199 227 224 361 42 219 18 342 -98 509 -27 39 -81
103 -119 141 -39 39 -71 75 -71 81 0 7 31 14 78 18 168 14 415 82 567 156 44
21 83 39 87 39 3 1 4 -34 2 -76z"/>
<path id="38" fill="#ffffff" stroke="none" d="M3365 3720 c28 -6 116 -10 197 -8 132
2 148 1 167 -16 36 -33 44 -88 35 -241 -4 -77 -8 -162 -7 -188 2 -42 -1 -48
-15 -42 -9 4 -100 10 -202 14 -159 7 -192 11 -238 31 l-53 23 5 119 c3 65 0
159 -6 208 -5 50 -7 97 -4 106 7 17 10 17 121 -6z"/>
<path id="39" fill="#ffffff" stroke="none" d="M2460 3708 c39 -15 267 -21 350 -10 41
6 78 8 82 4 3 -4 -3 -41 -13 -82 -14 -55 -19 -106 -19 -190 1 -63 1 -121 1
-127 -1 -7 -24 -24 -52 -38 -43 -23 -63 -26 -147 -26 -53 0 -139 5 -189 11
-51 6 -96 9 -101 6 -12 -7 -46 261 -40 324 2 30 14 77 26 103 23 51 29 53 102
25z"/>
<path id="40" fill="#ffffff" stroke="none" d="M3027 3678 c42 -10 61 -9 110 5 32 8
62 12 66 8 18 -18 27 -91 28 -217 1 -180 -33 -321 -118 -497 -18 -37 -33 -71
-33 -75 0 -4 -8 -17 -18 -30 l-18 -23 -37 78 c-70 149 -103 267 -117 412 -11
112 1 251 26 319 14 37 20 43 38 37 11 -3 44 -11 73 -17z"/>
<path id="41" fill="#ffffff" stroke="none" d="M1225 3583 c-30 -74 -45 -184 -35 -249
24 -148 112 -232 323 -309 74 -27 167 -94 204 -149 28 -40 33 -57 33 -104 0
-142 -111 -232 -284 -232 -172 0 -305 98 -400 292 -49 100 -67 174 -73 303 -5
106 -4 113 26 191 35 91 104 196 176 267 27 26 49 47 50 47 2 0 -8 -26 -20
-57z"/>
<path id="42" fill="#ffffff" stroke="none" d="M4914 3556 c179 -188 237 -367 190
-594 -55 -266 -260 -452 -500 -454 -87 0 -146 23 -195 77 -41 44 -57 85 -58
145 -2 132 67 207 253 274 147 53 210 95 263 179 65 102 58 278 -15 407 -22
38 -23 43 -7 31 11 -8 42 -38 69 -65z"/>
<path id="43" fill="#ffffff" stroke="none" d="M2880 3208 c32 -124 64 -213 110 -307
50 -103 50 -103 40 -161 -45 -247 -233 -541 -385 -601 -89 -35 -228 -34 -305
2 -116 54 -195 143 -235 264 -30 91 -51 129 -92 166 -54 50 -101 71 -174 78
l-70 6 280 279 c153 154 287 284 296 289 11 6 69 5 162 -3 158 -14 257 -9 300
14 47 26 61 20 73 -26z"/>
<path id="44" fill="#ffffff" stroke="none" d="M3322 3235 c28 -8 111 -16 200 -19 255
-8 221 10 481 -259 123 -128 249 -259 280 -293 l57 -61 -49 5 c-120 11 -200
-52 -292 -233 -82 -160 -95 -175 -182 -220 -73 -36 -85 -40 -177 -43 -71 -3
-119 1 -169 13 -65 16 -71 20 -118 78 -47 59 -123 172 -123 181 0 3 -13 27
-28 53 -43 73 -108 240 -123 315 l-12 67 40 88 c59 128 92 208 114 280 22 70
25 72 101 48z"/>
<path id="45" fill="#ffffff" stroke="none" d="M5618 2989 c89 -32 147 -59 152 -70 14
-25 -8 -85 -95 -264 -109 -222 -287 -477 -488 -700 -64 -70 -77 -68 -96 22 -8
32 -28 111 -47 176 -19 65 -34 122 -34 126 0 4 38 58 84 120 81 109 178 264
229 366 23 47 97 219 110 258 9 26 29 22 185 -34z"/>
<path id="46" fill="#ffffff" stroke="none" d="M789 2763 c78 -154 151 -273 234 -381
l40 -53 -26 -77 c-35 -101 -55 -180 -63 -247 -10 -79 -14 -77 -124 51 -153
177 -289 376 -385 566 -67 131 -75 157 -51 177 20 17 258 120 278 120 13 1 40
-43 97 -156z"/>
<path id="47" fill="#ffffff" stroke="none" d="M3084 2648 c32 -92 84 -205 127 -275
l41 -68 -6 -100 c-4 -55 -10 -125 -16 -155 -5 -30 -16 -97 -25 -148 -23 -137
-131 -452 -155 -452 -9 0 -12 6 -55 130 -74 213 -125 432 -143 613 l-8 79 39
60 c62 96 112 196 142 286 16 45 31 82 34 82 4 0 15 -24 25 -52z"/>
<path id="48" fill="#ffffff" stroke="none" d="M1926 2595 c66 -31 107 -81 140 -170
45 -120 64 -152 122 -211 38 -38 82 -69 132 -93 70 -33 81 -36 170 -35 52 0
108 6 124 13 53 21 39 3 -36 -46 -91 -61 -191 -106 -285 -127 -87 -19 -278
-23 -330 -5 -61 20 -195 104 -245 154 -90 88 -141 242 -116 345 14 55 59 130
90 150 93 58 151 64 234 25z"/>
<path id="49" fill="#ffffff" stroke="none" d="M4345 2569 c73 -20 147 -90 165 -155
43 -152 -68 -359 -234 -439 -108 -52 -191 -68 -321 -62 -139 6 -242 34 -365
98 -92 48 -166 98 -127 85 10 -3 59 -9 110 -12 69 -5 108 -3 154 10 142 36
198 84 278 238 84 161 124 212 187 237 32 13 105 13 153 0z"/>
<path id="50" fill="#ffffff" stroke="none" d="M1340 2535 c60 -17 186 -20 238 -6 17
5 32 7 32 3 0 -4 -9 -32 -21 -62 -31 -80 -23 -193 19 -277 l31 -61 -53 -35
c-152 -101 -437 -194 -575 -188 -23 1 -23 2 -17 74 7 71 31 173 59 253 48 135
181 332 217 320 8 -2 40 -12 70 -21z"/>
<path id="51" fill="#ffffff" stroke="none" d="M4863 2482 c87 -114 147 -261 196 -478
l29 -126 -52 7 c-45 6 -187 44 -346 91 -60 18 -185 78 -211 100 -15 13 -13 21
19 82 32 60 37 77 40 157 3 60 -1 103 -10 130 l-14 40 96 1 c70 1 109 6 150
22 30 11 57 21 60 21 3 1 22 -21 43 -47z"/>
<path id="52" fill="#ffffff" stroke="none" d="M3345 2175 c112 -146 318 -254 542
-286 178 -25 423 40 513 136 13 14 32 25 43 25 35 0 167 -71 167 -89 -1 -31
-274 -218 -451 -307 -96 -48 -324 -136 -419 -162 -199 -54 -450 -92 -607 -92
l-72 0 34 76 c39 85 96 255 120 359 22 96 55 311 55 363 0 27 4 42 13 42 6 -1
34 -30 62 -65z"/>
<path id="53" fill="#ffffff" stroke="none" d="M2824 2208 c3 -13 10 -61 16 -108 17
-126 82 -387 135 -535 25 -71 47 -137 48 -145 3 -24 -208 -16 -385 15 -394 67
-767 228 -1074 462 -101 78 -114 102 -62 124 18 7 53 26 77 41 25 15 53 28 63
28 11 0 40 -20 66 -44 60 -55 203 -139 264 -154 26 -7 93 -12 150 -12 235 0
471 109 628 290 29 33 56 60 61 60 5 0 11 -10 13 -22z"/>
<path id="54" fill="#ffffff" stroke="none" d="M1537 1881 c147 -111 359 -233 548
-316 32 -14 62 -31 66 -37 7 -11 -75 -262 -94 -285 -15 -21 -50 -15 -136 22
-218 93 -446 227 -626 368 -122 95 -255 216 -255 231 0 8 41 21 108 35 59 13
134 33 167 46 37 14 72 21 90 18 17 -3 76 -40 132 -82z"/>
<path id="55" fill="#ffffff" stroke="none" d="M4825 1910 c50 -15 117 -33 150 -39 81
-17 95 -21 95 -30 0 -14 -167 -157 -285 -245 -118 -89 -265 -180 -385 -241
-125 -63 -303 -136 -317 -131 -29 11 -119 259 -110 298 5 19 19 30 54 43 82
30 291 142 392 210 132 88 141 95 186 130 66 52 66 52 220 5z"/>
<path id="56" fill="#ffffff" stroke="none" d="M2305 1485 c159 -54 398 -96 622 -111
62 -4 103 -11 106 -18 2 -6 3 -75 3 -154 -1 -120 -4 -146 -17 -155 -22 -17
-241 -4 -408 23 -202 33 -474 103 -516 133 -17 13 -16 19 25 128 66 175 68
179 90 179 11 0 54 -11 95 -25z"/>
<path id="57" fill="#ffffff" stroke="none" d="M3926 1502 c18 -12 105 -252 102 -280
-3 -29 -20 -36 -188 -82 -116 -31 -274 -63 -390 -79 -111 -16 -348 -31 -365
-25 -23 9 -26 36 -23 189 l3 140 155 11 c189 14 397 51 545 98 115 36 143 40
161 28z"/>
<path id="58" fill="#ffffff" stroke="none" d="M3033 1013 c-7 -2 -19 -2 -25 0 -7 3
-2 5 12 5 14 0 19 -2 13 -5z"/>
</g>
</svg>
