<?xml version="1.0" standalone="no"?>
<!DOCTYPE svg PUBLIC "-//W3C//DTD SVG 20010904//EN"
 "http://www.w3.org/TR/2001/REC-SVG-20010904/DTD/svg10.dtd">
<svg id="tree" version="1.0" xmlns="http://www.w3.org/2000/svg"
 width="542.000000pt" height="540.000000pt" viewBox="0 0 542.000000 540.000000"
 preserveAspectRatio="xMidYMid meet">
<metadata>
Created by potrace 1.15, written by Peter Selinger 2001-2017
</metadata>
<g transform="translate(0.000000,540.000000) scale(0.100000,-0.100000)"
fill="#000000" stroke="none">
<path id="0" fill="#000000" stroke="none" d="M4917 5344 c-2 -2 -1046 -11 -2102 -20
-412 -3 -777 -7 -810 -9 -33 -2 -402 -4 -820 -6 -418 -1 -818 -4 -888 -7
l-128 -4 6 -666 c3 -367 7 -797 10 -957 3 -159 7 -769 11 -1355 6 -1103 11
-1776 13 -1964 l1 -108 222 6 c123 3 666 8 1208 11 542 3 1093 7 1225 10 132
3 722 8 1310 11 589 3 1076 8 1084 10 12 4 13 117 8 767 -4 419 -10 1320 -13
2002 -4 682 -8 1247 -10 1255 -1 8 -3 244 -3 524 l-1 508 -161 -3 c-88 -2
-161 -5 -162 -5z"/>
<path id="1" fill="#ffffff" stroke="none" d="M5195 5278 c-1 -24 -3 -66 -4 -95 l-1
-51 -132 -96 c-73 -53 -138 -100 -145 -106 -34 -28 -146 -95 -209 -124 -129
-61 -398 -146 -492 -155 -48 -5 -120 -17 -160 -26 l-72 -17 -26 -54 c-14 -30
-50 -85 -81 -122 -108 -132 -116 -160 -117 -437 -1 -175 13 -146 -154 -323
-117 -124 -151 -175 -182 -269 -22 -64 -32 -73 -82 -73 -29 0 -30 1 -24 38 3
20 8 60 11 87 4 28 7 275 7 548 1 495 1 498 22 509 58 31 168 122 195 162 24
35 41 48 71 56 22 5 59 15 82 21 42 11 121 57 174 101 106 88 226 249 269 360
l32 83 94 6 c52 4 236 7 408 8 173 1 317 4 320 6 2 3 48 5 101 5 l98 0 -3 -42z"/>
<path id="2" fill="#ffffff" stroke="none" d="M3605 5203 c-8 -121 -29 -168 -101
-229 -48 -41 -63 -65 -130 -203 -52 -108 -77 -171 -81 -206 -5 -51 -42 -155
-55 -155 -5 0 -8 4 -8 10 0 27 -63 135 -131 227 -42 56 -100 140 -129 187
l-51 86 24 32 c44 59 54 91 60 188 3 52 10 107 16 122 12 32 10 31 379 36
l214 3 -7 -98z"/>
<path id="3" fill="#ffffff" stroke="none" d="M4100 5221 c-27 -77 -79 -157 -147
-231 -18 -19 -33 -38 -33 -42 0 -14 -146 -121 -190 -140 -25 -11 -67 -24 -93
-29 -56 -10 -87 -32 -128 -89 -27 -37 -153 -139 -172 -140 -16 0 0 38 93 235
43 90 64 121 116 172 81 79 95 113 102 241 l5 102 238 0 238 0 -29 -79z"/>
<path id="4" fill="#ffffff" stroke="none" d="M2276 5218 c-24 -260 -36 -335 -78
-466 -29 -91 -31 -107 -32 -264 0 -93 -2 -168 -3 -168 -8 0 -144 78 -173 99
-61 45 -280 271 -299 309 -10 20 -26 78 -34 129 -17 96 -40 168 -101 315 -20
48 -36 92 -36 97 0 12 88 15 479 19 l283 2 -6 -72z"/>
<path id="5" fill="#ffffff" stroke="none" d="M2965 5258 c-3 -18 -9 -73 -11 -122 -5
-120 -24 -152 -139 -239 -140 -106 -238 -173 -334 -230 -48 -29 -120 -81 -159
-116 -39 -35 -81 -71 -93 -79 l-22 -15 6 105 c4 77 14 133 36 204 31 102 54
234 67 384 4 47 8 92 10 100 1 8 3 21 3 28 1 9 72 12 322 12 l322 0 -8 -32z"/>
<path id="6" fill="#ffffff" stroke="none" d="M447 5228 c42 -27 82 -56 90 -64 35
-35 113 -79 284 -162 158 -77 205 -95 334 -127 131 -33 192 -52 345 -110 28
-10 86 -21 132 -24 4 -1 15 -18 25 -38 10 -21 79 -99 155 -174 111 -110 155
-147 233 -192 52 -31 103 -58 113 -61 11 -4 24 -28 34 -63 10 -31 16 -58 15
-59 -1 -2 -41 8 -87 22 -71 21 -119 26 -300 34 -118 5 -224 12 -235 14 -17 4
-291 46 -300 46 -2 0 -38 30 -81 66 -183 152 -295 200 -559 239 -55 8 -161 28
-235 45 -74 16 -152 32 -172 36 l-38 6 0 310 0 309 86 -2 c85 -2 87 -2 161
-51z"/>
<path id="7" fill="#ffffff" stroke="none" d="M1484 5228 c10 -29 33 -86 51 -126 31
-66 64 -181 80 -276 l6 -39 -44 6 c-25 4 -78 19 -118 36 -41 16 -126 43 -189
61 -63 17 -155 43 -205 56 -111 31 -422 185 -499 248 -31 25 -65 50 -76 56
-11 6 -20 15 -20 20 0 6 185 10 498 10 l497 0 19 -52z"/>
<path id="8" fill="#ffffff" stroke="none" d="M5194 5024 c3 -26 6 -147 6 -270 l0
-222 -42 -7 c-53 -9 -126 -44 -181 -88 -59 -47 -183 -87 -315 -101 l-42 -4 2
196 3 195 68 28 c77 32 210 117 371 237 60 45 113 82 116 82 4 0 10 -21 14
-46z"/>
<path id="9" fill="#ffffff" stroke="none" d="M2946 4794 c32 -53 88 -132 122 -176
97 -123 156 -268 151 -376 -3 -71 -29 -170 -71 -264 -36 -83 -122 -227 -146
-245 -19 -16 -76 -15 -118 0 -36 14 -208 133 -320 222 -126 100 -194 144 -248
159 l-51 15 -24 76 c-13 42 -26 105 -28 139 l-6 63 39 29 c22 15 71 56 109 89
39 33 113 86 165 118 53 31 154 99 225 152 72 52 133 95 136 95 3 0 32 -43 65
-96z"/>
<path id="10" fill="#ffffff" stroke="none" d="M4571 4593 c0 -60 2 -146 5 -193 3 -71
0 -96 -19 -149 -21 -60 -26 -66 -78 -95 -30 -17 -91 -63 -135 -103 -43 -40
-101 -87 -129 -104 -27 -17 -64 -43 -80 -58 -100 -87 -230 -150 -353 -171 -35
-6 -71 -14 -80 -18 -9 -3 3 16 27 44 23 27 49 60 56 74 8 16 14 94 18 226 4
151 9 211 21 239 14 34 64 102 104 144 7 7 29 42 49 76 32 56 41 65 77 74 78
20 147 31 194 31 29 1 95 18 172 45 69 24 131 44 138 44 9 1 12 -27 13 -106z"/>
<path id="11" fill="#ffffff" stroke="none" d="M450 4567 c41 -9 122 -24 180 -32 124
-19 294 -67 367 -102 48 -24 218 -157 254 -199 9 -10 35 -66 59 -124 23 -58
51 -119 61 -136 l19 -31 -45 -6 c-77 -11 -297 -104 -384 -163 -81 -54 -99 -61
-117 -45 -5 4 -72 34 -149 65 -77 32 -177 77 -221 101 -45 24 -124 58 -175 74
l-94 31 1 302 c1 167 2 306 3 309 0 4 38 -1 84 -11 45 -10 116 -25 157 -33z"/>
<path id="12" fill="#ffffff" stroke="none" d="M5202 4138 c3 -194 5 -354 4 -355 -1
-1 -30 5 -66 12 -78 16 -292 35 -395 35 -106 0 -299 -41 -361 -77 -55 -32
-131 -59 -140 -50 -4 3 -2 28 4 54 6 26 16 79 23 116 13 67 14 68 92 139 44
39 104 87 135 105 63 38 81 59 103 123 16 45 16 45 74 52 81 11 223 47 267 70
21 10 52 30 70 46 51 42 117 72 179 81 3 1 9 -158 11 -351z"/>
<path id="13" fill="#ffffff" stroke="none" d="M3287 3880 c-4 -337 -9 -476 -20 -535
-8 -45 -15 -150 -16 -241 -2 -157 -1 -162 28 -236 l31 -76 9 -316 c6 -200 6
-340 0 -379 -14 -91 -97 -324 -138 -386 -41 -63 -155 -179 -219 -223 -44 -30
-141 -73 -148 -65 -2 2 9 34 26 71 39 86 53 130 81 250 22 98 22 102 11 435
-36 1023 -38 1046 -102 1180 -53 110 -107 197 -183 291 -33 41 -80 105 -104
142 -24 36 -86 109 -138 161 -83 83 -109 117 -90 117 23 0 106 -52 162 -102
37 -33 102 -83 143 -111 41 -27 104 -71 140 -97 107 -79 186 -102 245 -74 62
29 202 278 239 425 9 36 16 102 16 147 0 44 6 94 13 109 l12 28 3 -30 c2 -17
2 -235 -1 -485z"/>
<path id="14" fill="#ffffff" stroke="none" d="M1430 4205 c118 -21 249 -33 425 -39
142 -5 181 -11 323 -52 47 -14 58 -23 105 -87 30 -40 78 -92 107 -117 29 -25
77 -81 105 -125 29 -44 83 -118 121 -165 85 -106 178 -265 204 -349 34 -108
29 -112 -53 -35 -76 73 -143 111 -242 139 -97 27 -195 68 -195 81 0 33 -96
197 -142 244 -53 52 -171 125 -260 161 -116 46 -289 81 -410 83 -83 1 -88 2
-99 26 -34 75 -99 231 -99 240 0 13 8 13 110 -5z"/>
<path id="15" fill="#ffffff" stroke="none" d="M279 3930 c34 -11 126 -51 204 -89 78
-38 163 -77 189 -85 26 -9 75 -29 109 -44 l62 -28 -32 -33 c-45 -46 -76 -98
-117 -197 -28 -68 -37 -105 -41 -174 l-6 -88 -218 111 -219 112 0 267 c0 148
2 268 4 268 2 0 31 -9 65 -20z"/>
<path id="16" fill="#ffffff" stroke="none" d="M1585 3895 c281 -31 519 -137 613 -274
34 -49 82 -147 82 -167 0 -4 -75 -4 -167 -1 l-166 6 -46 45 c-46 44 -113 83
-182 105 -30 10 -40 21 -63 72 -18 37 -56 89 -102 138 -69 74 -81 97 -45 87 9
-3 43 -8 76 -11z"/>
<path id="17" fill="#ffffff" stroke="none" d="M1497 3821 c44 -44 88 -97 97 -118 9
-21 21 -46 26 -55 6 -10 10 -20 10 -22 0 -16 -531 42 -667 72 l-33 7 48 33
c70 47 297 142 372 155 60 10 67 7 147 -72z"/>
<path id="18" fill="#ffffff" stroke="none" d="M4224 3868 c-16 -96 -80 -333 -119
-440 -32 -90 -51 -128 -71 -143 -14 -11 -45 -38 -67 -61 -23 -23 -71 -63 -107
-89 -159 -118 -304 -259 -350 -340 -55 -99 -122 -195 -135 -195 -9 0 -14 32
-17 109 -5 93 -10 117 -34 167 -28 58 -29 62 -28 221 1 182 4 193 63 193 49 0
82 35 111 120 25 74 50 115 112 183 41 45 48 49 133 68 256 55 305 78 463 211
43 36 53 35 46 -4z"/>
<path id="19" fill="#ffffff" stroke="none" d="M5001 3770 c46 -6 112 -15 147 -22 l62
-12 0 -321 0 -322 -82 -6 c-46 -3 -110 -14 -143 -23 -41 -11 -101 -17 -190
-17 -120 -1 -138 2 -225 31 -85 27 -218 62 -350 91 -25 6 -82 16 -128 22 -46
6 -82 15 -80 20 2 4 19 18 38 31 44 30 67 77 127 260 l48 147 50 11 c27 6 78
27 112 46 95 53 261 84 414 78 64 -2 154 -9 200 -14z"/>
<path id="20" fill="#ffffff" stroke="none" d="M979 3650 c29 -5 55 -10 56 -10 1 0 5
-41 7 -92 5 -88 8 -96 69 -217 55 -109 75 -137 142 -204 43 -42 96 -89 118
-104 22 -14 38 -27 36 -29 -2 -2 -28 1 -58 7 -29 5 -121 20 -204 33 -170 27
-244 45 -330 79 -117 47 -114 44 -117 101 -5 85 10 156 54 260 47 110 122 202
156 192 9 -3 41 -10 71 -16z"/>
<path id="21" fill="#ffffff" stroke="none" d="M1245 3609 c44 -5 90 -12 102 -14 12
-2 91 -7 175 -11 115 -5 167 -12 208 -27 106 -39 165 -89 200 -172 12 -27 28
-63 36 -80 7 -16 40 -96 72 -176 l58 -146 -248 -18 c-292 -21 -285 -22 -434
81 -125 86 -187 157 -255 289 -62 120 -83 194 -73 257 7 40 7 40 43 34 20 -4
72 -11 116 -17z"/>
<path id="22" fill="#ffffff" stroke="none" d="M2289 3401 c8 -6 15 -38 18 -95 5 -76
3 -95 -22 -168 -32 -95 -66 -175 -87 -201 -13 -18 -16 -15 -46 40 -17 33 -47
100 -66 149 -19 49 -49 123 -66 164 -18 41 -36 85 -41 98 l-9 22 153 0 c83 0
158 -4 166 -9z"/>
<path id="23" fill="#ffffff" stroke="none" d="M2672 3265 c24 -15 73 -57 109 -93 l67
-65 6 -96 c12 -190 18 -441 11 -441 -4 0 -30 22 -58 49 -95 89 -138 120 -238
171 -96 47 -220 91 -301 105 -39 6 -45 13 -29 31 17 17 68 128 91 199 18 54
23 92 23 165 l0 95 138 -46 c76 -25 158 -59 181 -74z"/>
<path id="24" fill="#ffffff" stroke="none" d="M369 3286 c299 -152 288 -145 301 -196
20 -81 63 -153 140 -234 192 -201 373 -268 735 -270 179 -1 207 4 306 55 l41
20 51 -39 c55 -42 81 -63 156 -125 72 -60 157 -102 271 -137 58 -18 134 -41
170 -52 36 -11 85 -30 110 -42 72 -35 224 -127 232 -139 14 -23 19 -195 8
-282 -24 -198 -107 -408 -201 -507 -116 -123 -416 -248 -714 -298 -162 -27
-177 -28 -325 -19 -181 11 -280 37 -475 124 -66 29 -171 68 -233 86 l-113 32
-192 -12 c-106 -7 -239 -19 -297 -26 -57 -8 -105 -13 -107 -12 -1 2 -5 320 -8
707 -3 388 -7 870 -11 1073 -3 202 -2 367 2 367 4 0 73 -33 153 -74z"/>
<path id="25" fill="#ffffff" stroke="none" d="M4170 3134 c132 -26 282 -65 395 -101
108 -34 112 -35 245 -31 74 3 144 8 155 13 31 11 -43 -57 -199 -186 -285 -234
-344 -267 -585 -319 -377 -82 -546 -150 -676 -271 -61 -56 -81 -70 -103 -67
l-27 3 -6 180 c-6 175 -6 180 15 195 30 21 74 68 88 95 100 181 119 206 241
312 55 49 112 98 126 111 14 13 49 39 76 58 48 34 52 35 115 29 36 -3 99 -13
140 -21z"/>
<path id="26" fill="#ffffff" stroke="none" d="M736 3100 c12 -12 166 -66 228 -80 27
-6 111 -20 185 -30 75 -11 163 -25 196 -31 33 -6 76 -9 95 -6 41 4 124 -30
185 -77 22 -17 42 -33 45 -36 3 -3 44 -37 93 -74 48 -37 85 -71 82 -76 -9 -15
-140 -59 -187 -63 -52 -4 -300 8 -363 18 -135 21 -252 71 -357 152 -117 90
-175 160 -207 246 -11 32 -21 60 -21 62 0 8 16 5 26 -5z"/>
<path id="27" fill="#ffffff" stroke="none" d="M5210 2712 l0 -339 -142 -7 c-79 -3
-215 -16 -303 -29 -204 -28 -408 -29 -510 -3 -38 10 -106 37 -150 59 l-80 40
135 27 c74 15 163 37 197 49 60 20 213 104 257 141 11 10 53 44 91 76 39 33
103 86 144 119 41 33 106 90 146 127 72 67 86 73 173 77 l42 1 0 -338z"/>
<path id="28" fill="#ffffff" stroke="none" d="M2139 2918 c12 -19 10 -24 -20 -52 -68
-62 -135 -114 -176 -134 l-41 -21 -59 47 c-104 83 -127 101 -161 125 l-32 24
82 6 c46 4 128 10 183 13 55 4 102 8 104 10 2 2 27 4 55 4 42 0 54 -4 65 -22z"/>
<path id="29" fill="#ffffff" stroke="none" d="M2382 2820 c102 -34 258 -110 302 -147
17 -14 68 -59 114 -100 l82 -75 0 -158 0 -158 -92 55 c-130 78 -181 100 -337
144 -75 22 -167 55 -206 74 -70 35 -295 206 -295 225 0 5 17 18 38 29 20 11
71 50 112 86 l75 66 60 -6 c33 -3 99 -19 147 -35z"/>
<path id="30" fill="#ffffff" stroke="none" d="M4058 2369 c143 -68 153 -71 252 -90
114 -21 213 -19 420 11 200 28 471 45 480 30 4 -7 8 -355 9 -773 l2 -760 -123
8 c-237 17 -333 13 -428 -17 -113 -36 -248 -60 -340 -62 -72 -1 -78 1 -150 44
-41 25 -84 50 -95 55 -70 38 -212 140 -268 194 -75 71 -133 149 -265 356
l-122 190 0 205 c0 113 -5 232 -11 265 -17 93 -16 100 8 103 11 2 55 34 97 72
83 76 123 99 273 159 157 62 150 62 261 10z"/>
<path id="31" fill="#ffffff" stroke="none" d="M3387 1789 l6 -225 -66 -53 c-39 -30
-118 -116 -191 -205 -143 -174 -249 -279 -321 -317 -114 -60 -329 -89 -661
-89 -195 0 -235 3 -341 24 -66 14 -136 32 -154 40 -32 15 -29 15 66 10 212
-12 551 71 775 189 63 33 125 66 138 73 12 6 47 38 77 71 45 50 61 61 105 71
103 24 170 65 280 174 41 40 92 99 113 129 36 53 97 201 133 326 16 54 17 56
27 33 5 -14 12 -127 14 -251z"/>
<path id="32" fill="#ffffff" stroke="none" d="M3399 1470 c-32 -140 -99 -291 -196
-440 -38 -58 -81 -126 -96 -151 -37 -65 -88 -123 -154 -177 -31 -26 -68 -58
-82 -71 -14 -13 -87 -69 -161 -124 -74 -56 -159 -123 -188 -149 l-54 -48 -286
0 c-158 0 -662 -3 -1120 -7 l-832 -6 0 435 1 436 42 6 c65 9 238 25 393 36
129 9 148 8 225 -11 99 -24 149 -42 284 -102 55 -24 147 -59 205 -77 58 -18
150 -51 205 -73 55 -22 147 -50 205 -63 96 -21 128 -23 375 -23 504 0 652 37
811 201 57 58 274 313 291 342 9 15 125 106 134 106 4 0 3 -18 -2 -40z"/>
<path id="33" fill="#ffffff" stroke="none" d="M3512 1350 c30 -47 78 -122 108 -168
92 -144 281 -317 420 -387 77 -39 161 -99 148 -106 -76 -41 -426 20 -568 98
-76 42 -227 189 -254 247 -10 21 -21 59 -25 85 -6 39 -3 56 24 116 17 39 42
103 54 144 12 40 26 70 30 65 4 -5 33 -47 63 -94z"/>
<path id="34" fill="#ffffff" stroke="none" d="M3301 951 c-32 -105 -56 -127 -159
-145 l-32 -6 27 49 c16 26 57 93 93 149 l65 101 13 -40 c12 -35 12 -47 -7
-108z"/>
<path id="35" fill="#ffffff" stroke="none" d="M3397 922 c17 -21 38 -62 47 -91 26
-87 78 -173 147 -241 77 -77 131 -108 409 -238 l45 -21 -200 -2 c-110 -1 -218
-3 -240 -4 -30 -2 -964 -7 -1044 -5 -22 0 24 45 109 105 107 75 246 188 349
282 39 35 58 44 123 57 42 9 87 20 100 25 42 16 86 79 102 144 9 36 17 34 53
-11z"/>
<path id="36" fill="#ffffff" stroke="none" d="M3655 725 c149 -74 449 -113 555 -73
25 9 90 19 145 23 100 5 237 32 394 75 79 23 88 23 205 12 66 -7 154 -12 194
-12 l72 0 1 -67 c0 -38 2 -132 5 -210 l5 -143 -540 0 -540 0 -73 34 c-40 19
-122 57 -183 86 -194 91 -277 152 -340 249 -23 36 -46 77 -50 90 l-7 24 43
-27 c24 -15 76 -42 114 -61z"/>
</g>
</svg>
